<svg width="840" height="226" viewBox="0 0 840 226" fill="none" xmlns="http://www.w3.org/2000/svg">
<g clip-path="url(#clip0_514_41)">
<path d="M140.44 159.997C140.44 183.187 129.55 203.547 113.17 214.997C112.73 215.327 112.27 215.647 111.82 215.997L111.15 216.457L110.92 216.617L110.44 216.927L109.96 217.237L108.96 217.867L108.4 218.207L107.69 218.617L106.97 219.017L106.33 219.367L106.15 219.457L105.53 219.787L105.19 219.957L104.86 220.117L104.24 220.427C102.409 221.322 100.522 222.097 98.5899 222.747L97.8999 222.977C97.2463 223.182 96.5776 223.336 95.8999 223.437L95.5099 223.517L94.5099 223.707C93.8199 223.847 93.1199 223.977 92.4199 224.087L91.2799 224.287L90.7899 224.367L90.0499 224.477L88.7599 224.657C84.9613 225.179 81.134 225.466 77.2999 225.517H77.3599C73.8362 225.546 70.3137 225.373 66.8099 224.997C52.2999 223.437 38.0699 218.407 26.3499 209.777C15.4399 201.737 6.94992 190.587 3.14992 177.627C2.86992 176.677 2.61992 175.717 2.38992 174.767C-0.903419 159.974 1.67049 144.48 9.56992 131.547C10.4499 130.087 11.3833 128.65 12.3699 127.237C12.0099 127.917 11.6499 128.607 11.3199 129.307C9.61028 132.868 8.33448 136.621 7.51993 140.487C7.27993 141.627 7.06992 142.787 6.91992 143.947C6.54887 146.596 6.40501 149.273 6.48992 151.947C6.59149 155.258 7.02025 158.55 7.76993 161.777C9.32204 168.424 12.1437 174.71 16.0799 180.287C21.7679 188.344 29.4761 194.762 38.4299 198.897C53.1799 205.707 71.7199 207.787 86.6899 200.427C93.3096 197.098 99.0049 192.186 103.27 186.127C104.756 184.058 106.116 181.901 107.34 179.667C109.321 176.065 110.952 172.281 112.21 168.367C113.665 163.837 114.467 159.123 114.59 154.367C114.59 153.857 114.59 153.367 114.59 152.847C114.55 144.414 112.445 136.119 108.46 128.687C103.693 120.232 96.6309 113.298 88.0899 108.687C88.0399 105.427 87.9999 102.157 87.9499 98.8968C89.0876 99.3872 90.1902 99.9552 91.2499 100.597C97.5178 104.423 102.256 110.314 104.65 117.257C104.8 117.707 105.23 118.867 105.65 120.147C106.06 121.237 106.52 122.537 106.83 123.717C107.562 122.481 108.077 121.127 108.35 119.717C110.21 110.317 105.85 101.717 100.35 94.3968C92.7599 84.3868 84.9499 75.1568 79.2199 64.0568L77.9499 61.6868C77.9499 62.1768 77.9499 62.6868 77.9499 63.1568C77.9499 65.0068 78.0099 66.8568 78.0099 68.7068V104.127C77.3799 103.897 76.7399 103.697 76.1099 103.497C74.9699 103.147 73.8199 102.827 72.6599 102.497C68.4499 98.3168 65.6599 92.4968 63.3999 87.2668C60.3125 80.108 58.7232 72.393 58.7299 64.5968C58.7299 62.9368 58.8099 61.2968 58.9399 59.6768C60.1199 45.9968 66.3799 33.2168 75.6999 23.1068C85.4469 12.7999 97.6517 5.13708 111.17 0.836768L111.63 0.686768L111.06 1.26677C109.79 2.54677 108.51 3.78677 107.25 5.03677C105.79 6.48677 104.37 7.94677 103.02 9.49677C97.7076 16.1779 93.7564 23.8356 91.3899 32.0368C91.3959 32.0597 91.3959 32.0838 91.3899 32.1068C90.8999 33.8268 90.4799 35.5768 90.1299 37.3268C90.0199 37.9668 89.9099 38.5968 89.8199 39.2468C89.824 39.31 89.824 39.3735 89.8199 39.4368C89.7599 39.8268 89.7199 40.2168 89.6699 40.6068C89.4699 42.2168 89.3299 43.8368 89.2599 45.4468C89.2599 45.9068 89.2599 46.3568 89.2599 46.8168C89.2599 47.5268 89.2599 48.2468 89.2599 48.9668C89.3297 53.7323 90.0016 58.4698 91.2599 63.0668L91.4699 63.8268C91.5499 64.0868 91.6199 64.3368 91.6999 64.5868C91.7799 64.8368 91.8499 65.0868 91.9399 65.3468C92.0299 65.6068 92.1299 65.9468 92.2299 66.2468L92.5599 67.2468L92.7999 67.9168C92.8293 67.9673 92.8527 68.021 92.8699 68.0768C92.9599 68.3368 93.0599 68.5968 93.1599 68.8468C93.2599 69.0968 93.3799 69.3968 93.4799 69.6668C93.5799 69.9368 93.6099 69.9868 93.6799 70.1368C93.7499 70.2868 93.8999 70.6768 94.0199 70.9368C94.1399 71.1968 94.3399 71.6668 94.5099 72.0368L94.9699 73.0368L95.0499 73.1868L95.5299 74.1868L96.0899 75.2768C96.1899 75.4468 96.2799 75.6268 96.3799 75.8068L96.6799 76.3468C97.0299 76.9868 97.3899 77.6168 97.7699 78.2468L98.3299 79.1568V79.2168L98.8499 80.0268L99.2599 80.6668L99.6999 81.3068L100.06 81.8368C100.37 82.2868 100.69 82.7368 101.06 83.1768C101.2 83.3868 101.36 83.5968 101.51 83.7968C103.99 87.1068 106.94 89.8668 109.68 92.9368L109.79 93.0568V93.1068C109.89 93.2168 110.04 93.3768 110.22 93.5968L110.32 93.7068L110.55 93.9568C110.66 94.0868 110.77 94.2268 110.9 94.3668L111.59 95.1668L111.9 95.5368L112.07 95.7368L112.41 96.1368L112.59 96.3468L112.96 96.7968L113.55 97.4968L113.86 97.8768L114.26 98.3668L114.5 98.6568L114.81 99.0368L115.27 99.5968L116.14 100.687L116.37 100.977C116.45 101.077 116.52 101.177 116.61 101.277C116.641 101.328 116.678 101.375 116.72 101.417L117.16 101.987L117.66 102.627C117.83 102.847 118 103.057 118.17 103.287C119.03 104.387 119.92 105.567 120.81 106.787L121.35 107.517L122.49 109.087C122.7 109.377 122.91 109.677 123.11 109.977C123.31 110.277 123.32 110.277 123.43 110.417C123.54 110.557 123.64 110.717 123.74 110.877L124.36 111.777C124.57 112.087 124.78 112.387 124.98 112.697C125.18 113.007 125.4 113.307 125.6 113.617C126.01 114.237 126.41 114.857 126.81 115.487L127.4 116.427C127.6 116.737 127.79 117.047 127.98 117.367C128.08 117.527 128.18 117.677 128.27 117.837C128.56 118.307 128.84 118.837 129.11 119.257L129.38 119.737L129.79 120.437C129.86 120.557 129.92 120.687 129.98 120.797C130.052 120.91 130.119 121.027 130.18 121.147C130.54 121.807 130.88 122.457 131.18 123.147C131.33 123.437 131.47 123.727 131.61 124.017C131.75 124.307 131.81 124.397 131.89 124.587V124.647L132.1 125.087C132.23 125.357 132.35 125.627 132.47 125.887L132.79 126.607C132.79 126.607 132.79 126.607 132.79 126.667V126.737C132.9 126.967 132.99 127.197 133.09 127.427C133.111 127.499 133.137 127.569 133.17 127.637L133.42 128.247L133.63 128.807L133.81 129.307C133.94 129.657 134.06 129.997 134.17 130.307C134.17 130.427 134.24 130.537 134.27 130.647C134.274 130.667 134.274 130.687 134.27 130.707C134.27 130.707 134.27 130.787 134.27 130.817V130.917C134.287 130.995 134.311 131.072 134.34 131.147C134.368 131.225 134.391 131.305 134.41 131.387C134.47 131.587 134.52 131.787 134.57 131.987C135.771 134.824 136.773 137.741 137.57 140.717C137.57 140.817 137.63 140.917 137.65 141.017C139.411 147.193 140.349 153.575 140.44 159.997Z" fill="url(#paint0_radial_514_41)"/>
<path d="M114.68 152.817C114.68 153.317 114.68 153.817 114.68 154.337C114.557 159.093 113.755 163.807 112.3 168.337C111.043 172.253 109.409 176.037 107.42 179.637C106.205 181.874 104.849 184.032 103.36 186.097C99.0949 192.16 93.3954 197.072 86.77 200.397C71.77 207.757 53.27 205.687 38.52 198.867C29.5681 194.729 21.8608 188.311 16.17 180.257C12.2349 174.692 9.40996 168.421 7.84995 161.787C7.09872 158.561 6.66995 155.268 6.56995 151.957C6.48679 149.283 6.62728 146.607 6.98995 143.957C7.14995 142.797 7.35995 141.647 7.58995 140.497C8.39989 136.63 9.67588 132.876 11.39 129.317C11.7233 128.617 12.0733 127.927 12.44 127.247C14.2671 123.88 16.4822 120.739 19.04 117.887C26.9748 109.017 37.7529 103.189 49.52 101.407C56.8122 100.343 64.2376 100.621 71.43 102.227C71.88 102.317 72.32 102.427 72.77 102.537C73.9166 102.823 75.0666 103.157 76.2199 103.537C76.8499 103.737 77.49 103.937 78.1199 104.167V139.027C76.5399 138.077 69.59 137.587 68.71 137.577H68.38C65.1669 137.581 61.9781 138.133 58.95 139.207C56.4398 140.099 54.0796 141.366 51.95 142.967C48.93 145.196 46.494 148.122 44.85 151.497C43.7164 153.658 43.0527 156.035 42.9024 158.471C42.7521 160.907 43.1187 163.347 43.9781 165.631C44.8374 167.916 46.1701 169.993 47.8887 171.726C49.6072 173.458 51.6729 174.808 53.95 175.687C58.4217 177.506 63.3339 177.951 68.06 176.967C72.7304 176.089 77.0709 173.948 80.61 170.777C81.9204 169.591 83.0792 168.247 84.06 166.777C89.92 157.927 88.6899 146.227 88.56 136.127C88.4333 126.98 88.3066 117.833 88.18 108.687C96.7209 113.298 103.783 120.232 108.55 128.687C112.53 136.11 114.635 144.394 114.68 152.817Z" fill="url(#paint1_radial_514_41)"/>
<path d="M159.57 153.897C158.189 168.653 153.022 182.803 144.57 194.977C140.195 200.195 135.151 204.815 129.57 208.717C126.129 211.218 122.506 213.458 118.73 215.417C114.804 217.448 110.733 219.186 106.55 220.617C103.09 221.891 99.5486 222.933 95.9499 223.737C93.8399 224.177 91.6799 224.537 89.4899 224.827C85.6643 225.348 81.8105 225.635 77.9499 225.687H77.2699C81.1039 225.636 84.9312 225.348 88.7299 224.827L90.0199 224.647L90.7599 224.537L91.2499 224.457L92.3899 224.257L94.4799 223.877L95.4199 223.687L95.8099 223.607C96.4899 223.467 97.1699 223.337 97.8099 223.137H97.9799C99.2499 222.707 100.5 222.237 101.73 221.717C102.55 221.377 103.35 221.007 104.15 220.627L104.77 220.327L104.94 220.247L105.11 220.157L105.44 219.987L106.06 219.667L106.25 219.567L106.89 219.217L107.6 218.817L108.31 218.407L108.88 218.067C109.22 217.867 109.56 217.647 109.88 217.437L110.37 217.127L110.84 216.817L111.08 216.667L111.75 216.197L113.1 215.197C129.48 203.717 140.37 183.357 140.37 160.197C140.377 153.848 139.543 147.527 137.89 141.397C137.89 141.297 137.84 141.197 137.81 141.097C137.007 138.123 136.005 135.206 134.81 132.367C134.81 132.167 134.71 131.967 134.65 131.767C134.59 131.567 134.6 131.607 134.58 131.527C134.551 131.452 134.527 131.375 134.51 131.297V131.207V131.087C134.516 131.064 134.516 131.04 134.51 131.017C134.51 130.917 134.45 130.807 134.41 130.687C134.3 130.347 134.18 129.997 134.05 129.687L133.87 129.187L133.66 128.627L133.41 128.017L133.33 127.807L133.03 127.107C133.035 127.087 133.035 127.066 133.03 127.047C133.034 127.027 133.034 127.007 133.03 126.987L132.71 126.267C132.59 126.007 132.47 125.737 132.34 125.467L132.13 125.027V124.957L131.85 124.377C131.71 124.097 131.57 123.807 131.42 123.517C131.08 122.867 130.74 122.217 130.42 121.517C130.359 121.397 130.292 121.28 130.22 121.167C130.16 121.047 130.1 120.927 130.03 120.807C129.96 120.687 129.76 120.337 129.62 120.097L129.35 119.627C129.08 119.147 128.8 118.627 128.51 118.207C128.42 118.047 128.32 117.887 128.22 117.737L127.64 116.737L127.05 115.807C126.65 115.177 126.25 114.547 125.84 113.937C125.64 113.627 125.43 113.317 125.22 113.017C125.01 112.717 124.81 112.407 124.6 112.097C124.39 111.787 124.19 111.487 123.98 111.197C123.77 110.907 123.77 110.897 123.67 110.737L123.35 110.287L122.73 109.407L121.59 107.837C121.41 107.587 121.24 107.347 121.05 107.097C120.16 105.887 119.27 104.717 118.41 103.597L117.9 102.947L117.4 102.297C117.25 102.117 117.1 101.917 116.96 101.737C116.92 101.693 116.883 101.646 116.85 101.597L116.61 101.297C116.53 101.197 116.46 101.097 116.38 101.007L115.51 99.9168L115.05 99.3568L114.74 98.9768L114.25 98.6868L113.85 98.1968L113.54 97.8168L112.95 97.1068L112.58 96.6668L112.4 96.4568L112.06 96.0568C112 95.9868 111.95 95.9168 111.89 95.8568L111.58 95.4868C111.32 95.1968 111.09 94.9268 110.89 94.6868L110.54 94.2768L110.31 94.0168L110.21 93.9068C110.03 93.6968 109.88 93.5268 109.78 93.4268C109.748 93.3827 109.711 93.3425 109.67 93.3068C106.93 90.2368 103.98 87.4768 101.5 84.1668C101.35 83.9568 101.19 83.7568 101.05 83.5468C100.71 83.1068 100.39 82.6568 100.05 82.2068L99.6899 81.6768C99.5399 81.4568 99.3899 81.2468 99.2499 81.0268L98.8399 80.3968L98.3199 79.5868C98.3228 79.5669 98.3228 79.5467 98.3199 79.5268L97.7599 78.6268C97.3899 77.9968 97.0199 77.3668 96.6699 76.7268L96.3699 76.1868L95.9499 75.4768C95.7599 75.1168 95.5699 74.7568 95.3899 74.3968L94.9099 73.3968C94.8825 73.3488 94.859 73.2986 94.8399 73.2468C94.6799 72.9068 94.5199 72.5768 94.3699 72.2468C94.1999 71.8868 94.0299 71.5268 93.8799 71.1568C93.7299 70.7868 93.6499 70.6268 93.5399 70.3568C93.4299 70.0868 93.4099 70.0468 93.3399 69.8868C93.2699 69.7268 93.1299 69.3368 93.0199 69.0668C92.9099 68.7968 92.8199 68.5568 92.7299 68.2968C92.7299 68.2368 92.7299 68.1868 92.6599 68.1268L92.4199 67.4668L92.0899 66.4668C91.9899 66.1668 91.8899 65.8668 91.7999 65.5668C91.7099 65.2668 91.6399 65.0568 91.5599 64.8068C91.4799 64.5568 91.4099 64.3068 91.3299 64.0468L91.1199 63.2868C89.8518 58.6919 89.1796 53.9531 89.1199 49.1868C89.1199 48.4668 89.1199 47.7468 89.1199 47.0368C89.1199 46.5768 89.1199 46.1268 89.1199 45.6668C89.1999 44.0568 89.3299 42.4368 89.5299 40.8268L89.7299 39.6868V39.4968C89.8299 38.8468 89.9299 38.2068 90.0399 37.5668C90.3866 35.8068 90.8066 34.0668 91.2999 32.3468C91.3032 32.3236 91.3032 32.3 91.2999 32.2768C93.6588 24.0535 97.6178 16.3768 102.95 9.68678C104.3 8.12678 105.73 6.68677 107.18 5.22677C108.44 3.96677 109.72 2.72677 110.99 1.45677L111.56 0.876775H111.63C111.729 0.842839 111.826 0.802761 111.92 0.756775C111.92 0.756775 111.92 0.756775 111.92 0.816775C111.92 0.816775 111.92 0.866775 111.92 0.896775C111.92 0.896775 111.92 0.896775 111.92 0.956775C110.17 7.10677 108.83 13.0768 108.83 19.5468C108.83 28.3168 111.23 36.8468 114.69 44.8668C115.65 47.0734 116.677 49.2601 117.77 51.4268C118.31 52.5168 118.9 53.5768 119.48 54.6368C120.06 55.6968 120.48 56.6868 121.01 57.6968C122.01 59.2868 122.75 61.0168 123.62 62.6968C124.27 63.9268 124.96 65.1368 125.67 66.3368C126.38 67.5368 127.18 68.5868 127.89 69.7468C128.33 70.4468 128.73 71.1768 129.16 71.8968C130.81 74.6568 132.49 77.3868 134.16 80.1168C136.79 84.3368 139.44 88.5568 142.07 92.7768C144.7 96.9968 147.34 101.217 149.99 105.437C152.261 109.375 154.061 113.567 155.35 117.927C155.55 118.547 155.75 119.167 155.94 119.797C157.18 123.827 158.129 127.941 158.78 132.107C159.962 139.308 160.228 146.629 159.57 153.897Z" fill="url(#paint2_linear_514_41)"/>
<path d="M218.006 175.677V112.189H230.166L231.318 124.221C233.537 120.039 236.609 116.754 240.534 114.365C244.545 111.89 249.366 110.653 254.998 110.653V124.861H251.286C247.531 124.861 244.161 125.501 241.174 126.781C238.273 127.975 235.926 130.066 234.134 133.053C232.427 135.954 231.574 140.007 231.574 145.213V175.677H218.006ZM294.577 177.213C288.348 177.213 282.801 175.847 277.937 173.117C273.158 170.301 269.404 166.418 266.673 161.469C263.942 156.519 262.577 150.759 262.577 144.189C262.577 137.533 263.9 131.687 266.545 126.653C269.276 121.618 273.03 117.693 277.809 114.877C282.673 112.061 288.305 110.653 294.705 110.653C300.934 110.653 306.353 112.061 310.961 114.877C315.569 117.607 319.153 121.277 321.713 125.885C324.273 130.493 325.553 135.57 325.553 141.117C325.553 141.97 325.51 142.909 325.425 143.933C325.425 144.871 325.382 145.938 325.297 147.133H275.889C276.316 153.277 278.321 157.97 281.905 161.213C285.574 164.37 289.798 165.949 294.577 165.949C298.417 165.949 301.617 165.095 304.177 163.389C306.822 161.597 308.785 159.207 310.065 156.221H323.633C321.926 162.194 318.513 167.186 313.393 171.197C308.358 175.207 302.086 177.213 294.577 177.213ZM294.577 121.789C290.054 121.789 286.044 123.154 282.545 125.885C279.046 128.53 276.913 132.541 276.145 137.917H311.985C311.729 132.967 309.98 129.042 306.737 126.141C303.494 123.239 299.441 121.789 294.577 121.789ZM335.407 175.677V164.669L369.327 123.453H335.919V112.189H384.687V123.197L350.511 164.413H385.327V175.677H335.407ZM428.952 177.213C422.893 177.213 417.432 175.847 412.568 173.117C407.789 170.301 403.992 166.418 401.176 161.469C398.36 156.434 396.952 150.589 396.952 143.933C396.952 137.277 398.36 131.474 401.176 126.525C404.077 121.49 407.96 117.607 412.824 114.877C417.688 112.061 423.107 110.653 429.08 110.653C435.139 110.653 440.557 112.061 445.336 114.877C450.2 117.607 454.04 121.49 456.856 126.525C459.757 131.474 461.208 137.277 461.208 143.933C461.208 150.589 459.757 156.434 456.856 161.469C454.04 166.418 450.2 170.301 445.336 173.117C440.472 175.847 435.011 177.213 428.952 177.213ZM428.952 165.565C432.195 165.565 435.181 164.754 437.912 163.133C440.728 161.511 442.989 159.122 444.696 155.965C446.403 152.722 447.256 148.711 447.256 143.933C447.256 139.154 446.403 135.186 444.696 132.029C443.075 128.786 440.856 126.354 438.04 124.733C435.309 123.111 432.323 122.301 429.08 122.301C425.837 122.301 422.808 123.111 419.992 124.733C417.261 126.354 415.043 128.786 413.336 132.029C411.629 135.186 410.776 139.154 410.776 143.933C410.776 148.711 411.629 152.722 413.336 155.965C415.043 159.122 417.261 161.511 419.992 163.133C422.723 164.754 425.709 165.565 428.952 165.565ZM475.881 175.677V112.189H487.913L488.937 123.325C490.9 119.399 493.758 116.327 497.513 114.109C501.353 111.805 505.748 110.653 510.697 110.653C518.377 110.653 524.393 113.042 528.745 117.821C533.182 122.599 535.401 129.725 535.401 139.197V175.677H521.961V140.605C521.961 128.317 516.926 122.173 506.857 122.173C501.822 122.173 497.641 123.965 494.313 127.549C491.07 131.133 489.449 136.253 489.449 142.909V175.677H475.881ZM572.885 177.213C567.509 177.213 563.072 176.317 559.573 174.525C556.074 172.733 553.472 170.386 551.765 167.485C550.058 164.498 549.205 161.255 549.205 157.757C549.205 151.613 551.594 146.749 556.373 143.165C561.152 139.581 567.978 137.789 576.853 137.789H593.493V136.637C593.493 131.687 592.128 127.975 589.397 125.501C586.752 123.026 583.296 121.789 579.029 121.789C575.274 121.789 571.989 122.727 569.173 124.605C566.442 126.397 564.778 129.085 564.181 132.669H550.613C551.04 128.061 552.576 124.135 555.221 120.893C557.952 117.565 561.365 115.047 565.461 113.341C569.642 111.549 574.208 110.653 579.157 110.653C588.032 110.653 594.901 112.999 599.765 117.693C604.629 122.301 607.061 128.615 607.061 136.637V175.677H595.285L594.133 164.797C592.341 168.295 589.738 171.239 586.325 173.629C582.912 176.018 578.432 177.213 572.885 177.213ZM575.573 166.205C579.242 166.205 582.314 165.351 584.789 163.645C587.349 161.853 589.312 159.506 590.677 156.605C592.128 153.703 593.024 150.503 593.365 147.005H578.261C572.885 147.005 569.045 147.943 566.741 149.821C564.522 151.698 563.413 154.045 563.413 156.861C563.413 159.762 564.48 162.066 566.613 163.773C568.832 165.394 571.818 166.205 575.573 166.205ZM622.881 175.677V112.189H634.913L635.937 123.325C637.9 119.399 640.758 116.327 644.513 114.109C648.353 111.805 652.748 110.653 657.697 110.653C665.377 110.653 671.393 113.042 675.745 117.821C680.182 122.599 682.401 129.725 682.401 139.197V175.677H668.961V140.605C668.961 128.317 663.926 122.173 653.857 122.173C648.822 122.173 644.641 123.965 641.313 127.549C638.07 131.133 636.449 136.253 636.449 142.909V175.677H622.881ZM728.461 177.213C722.232 177.213 716.642 175.805 711.693 172.989C706.829 170.173 702.989 166.29 700.173 161.341C697.442 156.306 696.077 150.503 696.077 143.933C696.077 137.362 697.442 131.602 700.173 126.653C702.989 121.618 706.829 117.693 711.693 114.877C716.642 112.061 722.232 110.653 728.461 110.653C736.312 110.653 742.882 112.701 748.173 116.797C753.549 120.893 757.005 126.439 758.541 133.437H744.333C743.48 129.938 741.602 127.207 738.701 125.245C735.8 123.282 732.386 122.301 728.461 122.301C725.133 122.301 722.061 123.154 719.245 124.861C716.429 126.482 714.168 128.914 712.461 132.157C710.754 135.314 709.901 139.239 709.901 143.933C709.901 148.626 710.754 152.594 712.461 155.837C714.168 158.994 716.429 161.426 719.245 163.133C722.061 164.839 725.133 165.693 728.461 165.693C732.386 165.693 735.8 164.711 738.701 162.749C741.602 160.786 743.48 158.013 744.333 154.429H758.541C757.09 161.255 753.677 166.759 748.301 170.941C742.925 175.122 736.312 177.213 728.461 177.213ZM802.952 177.213C796.723 177.213 791.176 175.847 786.312 173.117C781.533 170.301 777.779 166.418 775.048 161.469C772.317 156.519 770.952 150.759 770.952 144.189C770.952 137.533 772.275 131.687 774.92 126.653C777.651 121.618 781.405 117.693 786.184 114.877C791.048 112.061 796.68 110.653 803.08 110.653C809.309 110.653 814.728 112.061 819.336 114.877C823.944 117.607 827.528 121.277 830.088 125.885C832.648 130.493 833.928 135.57 833.928 141.117C833.928 141.97 833.885 142.909 833.8 143.933C833.8 144.871 833.757 145.938 833.672 147.133H784.264C784.691 153.277 786.696 157.97 790.28 161.213C793.949 164.37 798.173 165.949 802.952 165.949C806.792 165.949 809.992 165.095 812.552 163.389C815.197 161.597 817.16 159.207 818.44 156.221H832.008C830.301 162.194 826.888 167.186 821.768 171.197C816.733 175.207 810.461 177.213 802.952 177.213ZM802.952 121.789C798.429 121.789 794.419 123.154 790.92 125.885C787.421 128.53 785.288 132.541 784.52 137.917H820.36C820.104 132.967 818.355 129.042 815.112 126.141C811.869 123.239 807.816 121.789 802.952 121.789Z" fill="white"/>
</g>
<defs>
<radialGradient id="paint0_radial_514_41" cx="0" cy="0" r="1" gradientUnits="userSpaceOnUse" gradientTransform="translate(69.7239 113.745) scale(138.028 138.017)">
<stop stop-color="white"/>
<stop offset="1" stop-color="#E6E6E6"/>
</radialGradient>
<radialGradient id="paint1_radial_514_41" cx="0" cy="0" r="1" gradientUnits="userSpaceOnUse" gradientTransform="translate(60.4733 154.039) scale(61.8251 61.8193)">
<stop stop-color="white"/>
<stop offset="0.33" stop-color="#FCFCFC"/>
<stop offset="0.54" stop-color="#F4F4F4"/>
<stop offset="1" stop-color="#E6E6E6"/>
</radialGradient>
<linearGradient id="paint2_linear_514_41" x1="160.74" y1="179.257" x2="46.9599" y2="65.4768" gradientUnits="userSpaceOnUse">
<stop stop-color="white"/>
<stop offset="1" stop-color="#E6E6E6"/>
</linearGradient>
<clipPath id="clip0_514_41">
<rect width="838.62" height="225" fill="white" transform="translate(0.949951 0.686768)"/>
</clipPath>
</defs>
</svg>
