<svg width="484" height="684" viewBox="0 0 484 684" fill="none" xmlns="http://www.w3.org/2000/svg">
<path d="M423.864 484.191C423.864 554.672 390.766 616.552 340.982 651.352C339.645 652.355 338.247 653.328 336.879 654.392L334.843 655.79L334.144 656.276L332.685 657.218L331.226 658.16L328.187 660.075L326.485 661.108L324.327 662.355L322.138 663.57L320.193 664.634L319.646 664.908L317.762 665.911L316.729 666.427L315.726 666.914L313.841 667.856C308.276 670.577 302.54 672.932 296.669 674.907L294.572 675.606C292.586 676.23 290.553 676.698 288.493 677.004L287.308 677.247L284.269 677.825C282.172 678.25 280.044 678.645 277.917 678.98L274.452 679.587L272.963 679.831L270.714 680.165L266.793 680.712C255.247 682.299 243.615 683.172 231.962 683.326H232.145C221.435 683.416 210.729 682.888 200.08 681.745C155.98 677.004 112.731 661.716 77.1101 635.487C43.9514 611.051 18.1477 577.163 6.59839 537.774C5.74739 534.886 4.98756 531.969 4.28852 529.081C-5.72094 484.121 2.10195 437.031 26.1107 397.723C28.7853 393.285 31.622 388.919 34.6207 384.623C33.5266 386.69 32.4324 388.787 31.4295 390.915C26.2333 401.738 22.3558 413.146 19.8801 424.894C19.1507 428.359 18.5124 431.884 18.0565 435.41C16.9288 443.463 16.4916 451.597 16.7497 459.724C17.0583 469.787 18.3615 479.795 20.64 489.601C25.3573 509.805 33.9333 528.907 45.8965 545.858C63.1841 570.346 86.6114 589.853 113.825 602.42C158.655 623.117 215.003 629.439 260.501 607.07C280.621 596.952 297.93 582.023 310.893 563.608C315.411 557.32 319.542 550.763 323.263 543.974C329.285 533.026 334.241 521.525 338.064 509.63C342.488 495.863 344.923 481.535 345.298 467.08C345.298 465.53 345.298 464.04 345.298 462.46C345.175 436.829 338.779 411.619 326.667 389.03C312.178 363.333 290.715 342.26 264.757 328.244C264.605 318.336 264.483 308.398 264.331 298.49C267.789 299.98 271.14 301.707 274.361 303.656C293.411 315.286 307.812 333.191 315.087 354.291C315.543 355.659 316.85 359.184 318.127 363.075C319.373 366.388 320.771 370.339 321.713 373.925C323.939 370.168 325.502 366.055 326.333 361.768C331.986 333.198 318.734 307.06 302.018 284.813C278.95 254.389 255.213 226.337 237.798 192.6L233.938 185.397C233.938 186.887 233.938 188.437 233.938 189.865C233.938 195.488 234.12 201.11 234.12 206.733V314.385C232.206 313.686 230.26 313.078 228.346 312.47C224.881 311.407 221.386 310.434 217.86 309.431C205.065 296.727 196.585 279.038 189.716 263.143C180.333 241.385 175.502 217.937 175.523 194.242C175.523 189.196 175.766 184.212 176.161 179.288C179.747 137.711 198.773 98.8684 227.1 68.1411C256.724 36.8155 293.818 13.5258 334.904 0.455895L336.302 0L334.569 1.76279C330.709 5.6531 326.819 9.42183 322.989 13.221C318.552 17.6279 314.236 22.0653 310.133 26.7762C293.987 47.0822 281.979 70.3563 274.786 95.2821C274.804 95.3518 274.804 95.425 274.786 95.4948C273.297 100.722 272.02 106.041 270.957 111.36C270.622 113.305 270.288 115.22 270.014 117.195C270.027 117.388 270.027 117.581 270.014 117.773C269.832 118.958 269.711 120.144 269.559 121.329C268.951 126.222 268.525 131.146 268.312 136.039C268.312 137.437 268.312 138.805 268.312 140.203C268.312 142.361 268.312 144.549 268.312 146.737C268.524 161.221 270.567 175.62 274.391 189.592L275.029 191.901C275.272 192.692 275.485 193.451 275.728 194.211C275.972 194.971 276.184 195.731 276.458 196.521C276.731 197.311 277.035 198.345 277.339 199.256L278.342 202.296L279.072 204.332C279.161 204.486 279.232 204.649 279.284 204.818C279.558 205.609 279.862 206.399 280.166 207.159C280.47 207.919 280.834 208.83 281.138 209.651C281.442 210.472 281.533 210.623 281.746 211.079C281.959 211.535 282.415 212.721 282.78 213.511C283.144 214.301 283.752 215.729 284.269 216.854L285.667 219.893L285.91 220.349L287.369 223.389L289.071 226.701C289.375 227.218 289.648 227.765 289.952 228.312L290.864 229.953C291.928 231.899 293.022 233.813 294.177 235.728L295.879 238.494V238.676L297.459 241.138L298.705 243.083L300.043 245.028L301.137 246.639C302.079 248.007 303.052 249.375 304.176 250.712C304.602 251.35 305.088 251.988 305.544 252.596C313.081 262.656 322.047 271.045 330.375 280.375L330.709 280.74V280.892C331.013 281.226 331.469 281.713 332.016 282.381L332.32 282.716L333.019 283.475C333.353 283.871 333.688 284.296 334.083 284.722L336.18 287.153L337.122 288.278L337.639 288.885L338.672 290.101L339.219 290.739L340.344 292.107L342.137 294.235L343.079 295.39L344.295 296.879L345.024 297.76L345.967 298.915L347.365 300.617L350.009 303.93L350.708 304.811C350.951 305.115 351.164 305.419 351.437 305.723C351.532 305.878 351.644 306.02 351.772 306.149L353.109 307.881L354.629 309.826C355.145 310.495 355.662 311.133 356.179 311.832C358.792 315.175 361.497 318.762 364.202 322.47L365.844 324.688L369.308 329.46C369.947 330.341 370.585 331.253 371.193 332.165C371.801 333.077 371.831 333.077 372.165 333.502C372.5 333.928 372.804 334.414 373.108 334.9L374.992 337.636C375.63 338.578 376.268 339.49 376.876 340.432C377.484 341.374 378.153 342.286 378.761 343.228C380.007 345.112 381.222 346.997 382.438 348.912L384.231 351.769C384.839 352.711 385.417 353.653 385.994 354.625C386.298 355.112 386.602 355.568 386.876 356.054C387.757 357.482 388.608 359.093 389.429 360.37L390.249 361.829L391.495 363.956C391.708 364.321 391.89 364.716 392.073 365.05C392.293 365.394 392.496 365.749 392.681 366.114C393.775 368.12 394.808 370.096 395.72 372.193C396.176 373.074 396.601 373.955 397.027 374.837C397.452 375.718 397.635 375.992 397.878 376.569V376.752L398.516 378.089C398.911 378.91 399.276 379.73 399.641 380.52L400.613 382.709C400.613 382.709 400.613 382.709 400.613 382.891V383.104C400.947 383.803 401.221 384.502 401.525 385.201C401.588 385.42 401.669 385.634 401.768 385.839L402.528 387.693L403.166 389.395L403.713 390.915C404.108 391.978 404.473 393.012 404.807 393.954C404.807 394.319 405.02 394.653 405.111 394.987C405.125 395.047 405.125 395.11 405.111 395.17C405.111 395.17 405.111 395.413 405.111 395.504V395.808C405.164 396.046 405.235 396.28 405.324 396.507C405.409 396.746 405.48 396.989 405.537 397.236C405.719 397.844 405.871 398.452 406.023 399.06C409.672 407.683 412.719 416.549 415.141 425.593C415.141 425.897 415.323 426.201 415.384 426.505C420.736 445.277 423.587 464.673 423.864 484.191Z" fill="url(#paint0_radial_514_50)"/>
<path d="M345.572 462.366C345.572 463.886 345.572 465.405 345.572 466.986C345.197 481.441 342.761 495.769 338.338 509.536C334.517 521.437 329.55 532.939 323.506 543.88C319.813 550.679 315.692 557.237 311.167 563.514C298.204 581.94 280.881 596.872 260.745 606.976C215.155 629.345 158.928 623.054 114.099 602.326C86.8913 589.749 63.4663 570.244 46.1703 545.764C34.2104 528.852 25.6246 509.792 20.8833 489.628C18.6001 479.823 17.2969 469.815 16.993 459.752C16.7402 451.626 17.1672 443.493 18.2695 435.438C18.7558 431.912 19.394 428.417 20.0931 424.922C22.5547 413.17 26.4328 401.76 31.6424 390.942C32.6555 388.815 33.7193 386.718 34.8337 384.651C40.3871 374.418 47.1193 364.87 54.8931 356.203C79.0095 329.244 111.767 311.533 147.531 306.115C169.694 302.882 192.262 303.726 214.122 308.608C215.49 308.881 216.827 309.216 218.195 309.55C221.68 310.421 225.175 311.434 228.68 312.589C230.595 313.197 232.54 313.805 234.455 314.504V420.454C229.653 417.567 208.53 416.077 205.855 416.047H204.852C195.087 416.061 185.395 417.736 176.192 421.001C168.562 423.712 161.389 427.565 154.916 432.429C145.738 439.204 138.334 448.098 133.337 458.354C129.892 464.923 127.875 472.147 127.418 479.55C126.962 486.954 128.076 494.371 130.687 501.313C133.299 508.256 137.35 514.568 142.573 519.835C147.796 525.102 154.074 529.205 160.995 531.875C174.586 537.402 189.516 538.757 203.88 535.765C218.074 533.098 231.267 526.591 242.023 516.952C246.006 513.347 249.528 509.264 252.508 504.794C270.319 477.897 266.58 442.337 266.185 411.64C265.8 383.84 265.415 356.041 265.03 328.242C290.989 342.257 312.452 363.33 326.941 389.028C339.038 411.589 345.434 436.766 345.572 462.366Z" fill="url(#paint1_radial_514_50)"/>
<path d="M482.006 465.652C477.808 510.5 462.105 553.506 436.416 590.506C423.118 606.367 407.79 620.408 390.827 632.266C380.37 639.869 369.357 646.676 357.881 652.63C345.948 658.805 333.575 664.087 320.862 668.434C310.345 672.306 299.583 675.474 288.645 677.917C282.232 679.254 275.668 680.348 269.012 681.23C257.384 682.814 245.671 683.687 233.938 683.843H231.871C243.524 683.688 255.156 682.815 266.702 681.23L270.622 680.682L272.871 680.348L274.361 680.105L277.825 679.497L284.178 678.342L287.035 677.765L288.22 677.522C290.287 677.096 292.353 676.701 294.298 676.093H294.815C298.675 674.786 302.474 673.358 306.213 671.777C308.705 670.744 311.136 669.619 313.568 668.464L315.452 667.553L315.969 667.31L316.485 667.036L317.488 666.519L319.373 665.547L319.95 665.243L321.895 664.179L324.053 662.963L326.211 661.717L327.944 660.684C328.977 660.076 330.01 659.407 330.983 658.769L332.472 657.827L333.901 656.885L334.63 656.429L336.666 655L340.769 651.961C390.553 617.07 423.651 555.19 423.651 484.8C423.671 465.504 421.137 446.291 416.114 427.661C416.114 427.357 415.962 427.053 415.87 426.749C413.43 417.71 410.383 408.846 406.753 400.216C406.753 399.608 406.449 399 406.266 398.392C406.084 397.784 406.114 397.906 406.054 397.663C405.965 397.436 405.893 397.202 405.841 396.964V396.69V396.326C405.859 396.256 405.859 396.183 405.841 396.113C405.841 395.809 405.658 395.475 405.537 395.11C405.203 394.076 404.838 393.013 404.443 392.071L403.896 390.551L403.257 388.849L402.498 386.995L402.254 386.357L401.343 384.229C401.36 384.17 401.36 384.106 401.343 384.047C401.356 383.987 401.356 383.925 401.343 383.864L400.37 381.676C400.005 380.886 399.641 380.065 399.245 379.245L398.607 377.907V377.695L397.756 375.932C397.331 375.081 396.905 374.199 396.449 373.318C395.416 371.343 394.383 369.367 393.41 367.24C393.225 366.875 393.023 366.52 392.802 366.176C392.62 365.811 392.437 365.446 392.225 365.082C392.012 364.717 391.404 363.653 390.979 362.924L390.158 361.495C389.337 360.036 388.486 358.456 387.605 357.179C387.331 356.693 387.028 356.207 386.724 355.751L384.961 352.712L383.168 349.885C381.952 347.97 380.736 346.056 379.49 344.202C378.882 343.259 378.244 342.317 377.606 341.405C376.967 340.494 376.36 339.551 375.721 338.609C375.083 337.667 374.475 336.755 373.837 335.874C373.199 334.993 373.199 334.962 372.895 334.476L371.922 333.108L370.038 330.434L366.573 325.662C366.026 324.902 365.509 324.173 364.932 323.413C362.227 319.735 359.522 316.179 356.908 312.775L355.358 310.8L353.838 308.824C353.382 308.277 352.927 307.669 352.501 307.122C352.38 306.988 352.269 306.846 352.167 306.697L351.437 305.785C351.194 305.481 350.981 305.177 350.738 304.903L348.094 301.591L346.696 299.889L345.754 298.734L344.265 297.852L343.049 296.363L342.107 295.208L340.313 293.05L339.189 291.713L338.642 291.075L337.609 289.859C337.426 289.646 337.274 289.433 337.092 289.251L336.15 288.127C335.359 287.245 334.66 286.424 334.053 285.695L332.989 284.449L332.29 283.659L331.986 283.324C331.439 282.686 330.983 282.169 330.679 281.866C330.582 281.732 330.469 281.609 330.345 281.501C322.017 272.17 313.051 263.782 305.514 253.722C305.058 253.083 304.571 252.476 304.146 251.837C303.112 250.5 302.14 249.132 301.107 247.765L300.012 246.154C299.556 245.485 299.101 244.847 298.675 244.178L297.429 242.263L295.849 239.802C295.857 239.741 295.857 239.68 295.849 239.619L294.147 236.884C293.022 234.969 291.897 233.054 290.834 231.109L289.922 229.468L288.645 227.31C288.068 226.216 287.49 225.122 286.943 224.028L285.485 220.988C285.401 220.843 285.33 220.69 285.272 220.532C284.785 219.499 284.299 218.496 283.843 217.493C283.327 216.399 282.81 215.305 282.354 214.18C281.898 213.056 281.655 212.57 281.321 211.749C280.986 210.928 280.926 210.807 280.713 210.32C280.5 209.834 280.075 208.649 279.74 207.828C279.406 207.008 279.132 206.278 278.859 205.488C278.859 205.306 278.859 205.154 278.646 204.971L277.917 202.965L276.914 199.926C276.61 199.014 276.306 198.102 276.032 197.191C275.759 196.279 275.546 195.641 275.303 194.881C275.06 194.121 274.847 193.361 274.604 192.571L273.966 190.261C270.111 176.296 268.068 161.893 267.887 147.407C267.887 145.219 267.887 143.03 267.887 140.872C267.887 139.474 267.887 138.107 267.887 136.709C268.13 131.815 268.525 126.892 269.133 121.998L269.741 118.534V117.956C270.045 115.981 270.349 114.035 270.683 112.09C271.737 106.741 273.013 101.453 274.513 96.2251C274.523 96.1545 274.523 96.0829 274.513 96.0124C281.682 71.0193 293.715 47.6874 309.92 27.3546C314.024 22.6133 318.37 18.2367 322.777 13.7993C326.606 9.96978 330.497 6.20104 334.356 2.34113L336.089 0.578339H336.302C336.603 0.475198 336.897 0.35339 337.183 0.213623C337.183 0.213623 337.183 0.213623 337.183 0.395981C337.183 0.395981 337.183 0.547946 337.183 0.639125C337.183 0.639125 337.183 0.639125 337.183 0.821483C331.864 19.5132 327.792 37.6578 327.792 57.3221C327.792 83.9767 335.086 109.902 345.602 134.277C348.52 140.984 351.64 147.63 354.963 154.215C356.604 157.528 358.397 160.749 360.16 163.971C361.923 167.193 363.199 170.202 364.81 173.271C367.85 178.104 370.099 183.362 372.743 188.468C374.718 192.206 376.815 195.884 378.973 199.531C381.131 203.178 383.563 206.369 385.721 209.895C387.058 212.022 388.274 214.241 389.581 216.429C394.595 224.818 399.701 233.115 404.777 241.412C412.77 254.238 420.825 267.064 428.818 279.89C436.811 292.716 444.835 305.542 452.889 318.368C459.793 330.337 465.261 343.078 469.18 356.328C469.788 358.213 470.396 360.097 470.973 362.012C474.741 374.261 477.626 386.764 479.605 399.426C483.199 421.311 484.006 443.564 482.006 465.652Z" fill="url(#paint2_linear_514_50)"/>
<defs>
<radialGradient id="paint0_radial_514_50" cx="0" cy="0" r="1" gradientUnits="userSpaceOnUse" gradientTransform="translate(208.937 343.618) scale(419.51 419.474)">
<stop stop-color="white"/>
<stop offset="1" stop-color="#E6E6E6"/>
</radialGradient>
<radialGradient id="paint1_radial_514_50" cx="0" cy="0" r="1" gradientUnits="userSpaceOnUse" gradientTransform="translate(180.821 466.08) scale(187.905 187.887)">
<stop stop-color="white"/>
<stop offset="0.33" stop-color="#FCFCFC"/>
<stop offset="0.54" stop-color="#F4F4F4"/>
<stop offset="1" stop-color="#E6E6E6"/>
</radialGradient>
<linearGradient id="paint2_linear_514_50" x1="485.562" y1="542.729" x2="139.75" y2="196.917" gradientUnits="userSpaceOnUse">
<stop stop-color="white"/>
<stop offset="1" stop-color="#E6E6E6"/>
</linearGradient>
</defs>
</svg>
