<?xml version="1.0" encoding="utf-8"?>
<!-- Generator: Adobe Illustrator 25.2.0, SVG Export Plug-In . SVG Version: 6.00 Build 0)  -->
<svg version="1.1" id="rezonance-black" xmlns="http://www.w3.org/2000/svg" xmlns:xlink="http://www.w3.org/1999/xlink" x="0px"
	 y="0px" viewBox="0 0 1024 1024" style="enable-background:new 0 0 1024 1024;" xml:space="preserve">
<style type="text/css">
	.st0{fill:url(#SVGID_1_);}
	.st1{fill:none;}
	.st2{fill:url(#SVGID_2_);}
	.st3{fill:url(#SVGID_3_);}
</style>
<radialGradient id="SVGID_1_" cx="439.7804" cy="576.167" r="402.9507" gradientTransform="matrix(1.2273 0 0 1.2272 -62.172 -194.706)" gradientUnits="userSpaceOnUse">
	<stop  offset="0" style="stop-color:#1A1A1A"/>
	<stop  offset="0.3118" style="stop-color:#161616"/>
	<stop  offset="0.6083" style="stop-color:#0B0B0B"/>
	<stop  offset="0.7858" style="stop-color:#000000"/>
</radialGradient>
<path class="st0" d="M723.72,677.82c0,81.85-38.43,153.7-96.23,194.21c-1.57,1.15-3.17,2.28-4.76,3.39
	c-0.79,0.54-1.58,1.09-2.37,1.63c-0.27,0.17-0.55,0.36-0.82,0.54c-0.56,0.37-1.12,0.74-1.68,1.09c-0.56,0.38-1.13,0.75-1.71,1.1
	c-1.2,0.76-2.41,1.51-3.62,2.23c-0.66,0.42-1.33,0.81-2,1.2c-0.82,0.49-1.66,0.98-2.5,1.45c-0.83,0.49-1.68,0.96-2.53,1.41
	c-0.75,0.42-1.5,0.82-2.25,1.24c-0.22,0.11-0.44,0.22-0.66,0.33c-0.72,0.39-1.45,0.77-2.18,1.14c-0.39,0.21-0.79,0.4-1.19,0.6
	c-0.39,0.2-0.79,0.39-1.18,0.59c-0.72,0.37-1.47,0.7-2.18,1.06c-6.49,3.21-13.12,5.9-19.93,8.2c-0.81,0.27-1.62,0.53-2.44,0.8
	c-2.36,0.75-4.74,1.28-7.14,1.63c-0.46,0.07-0.91,0.18-1.37,0.28c-1.1,0.23-2.21,0.45-3.33,0.67c-2.45,0.49-4.92,0.96-7.39,1.37
	c-1.34,0.23-2.68,0.48-4.01,0.69c-0.59,0.1-1.17,0.18-1.74,0.27c-0.87,0.14-1.76,0.27-2.61,0.39c-1.51,0.25-3.03,0.45-4.55,0.66
	c-13.62,1.85-27.12,2.83-40.44,3.01c0.06,0,0.12,0.01,0.2,0.01c-12.63,0.1-25.05-0.53-37.24-1.84
	c-51.2-5.51-101.39-23.24-142.77-53.71c-38.49-28.34-68.51-67.69-81.87-113.4c-0.98-3.36-1.87-6.74-2.66-10.12
	c-12.14-51.92-2.14-106.54,25.33-152.49c3.09-5.17,6.38-10.25,9.89-15.23c-1.3,2.39-2.54,4.84-3.72,7.3
	c-6.05,12.58-10.54,25.87-13.4,39.45V609c0,0.02-0.01,0.05-0.02,0.07v0.01c-0.85,4.05-1.56,8.11-2.12,12.21
	c-1.28,9.28-1.79,18.67-1.51,28.05c0.36,11.67,1.88,23.32,4.52,34.69c5.47,23.7,15.6,45.8,29.33,65.35
	c19.8,28.13,47.07,50.94,78.88,65.65c52.05,24.05,117.45,31.39,170.28,5.39c24.13-11.88,43.29-29.39,58.53-50.45
	c5.23-7.22,9.99-14.84,14.34-22.8c7-12.85,12.87-26.16,17.21-39.87c5.04-15.99,8.03-32.53,8.39-49.59c0.04-1.79,0.05-3.58,0.02-5.35
	c-0.21-29.6-7.49-59.24-21.61-85.28c-16.25-29.99-42.01-53.93-71.9-70.66c-0.16-11.52-0.32-23.05-0.48-34.57
	c4.01,1.75,7.9,3.77,11.65,6.01c13.41,8.07,24.96,19.16,33.8,32.05c5.66,8.25,10.22,17.27,13.46,26.74
	c0.54,1.58,2.05,5.69,3.45,10.2c1.45,3.85,3.06,8.43,4.16,12.59c2.59-4.26,4.31-9.08,5.34-14.24c6.58-33.16-8.82-63.64-28.4-89.35
	c-26.53-34.84-53.95-67.42-74.3-106.58c-1.46-2.81-2.91-5.62-4.37-8.43c0.02,1.73,0.04,3.45,0.06,5.18c0.1,6.53,0.2,13.06,0.2,19.59
	V480.6c-2.22-0.79-4.46-1.51-6.7-2.21c-4.03-1.25-8.09-2.38-12.18-3.37c-14.84-14.73-24.57-35.18-32.66-53.74
	c-10.96-25.11-16.48-52.72-16.48-80.01c0-5.83,0.26-11.62,0.74-17.34c4.16-48.28,26.24-93.38,59.13-129.05
	c33.8-36.66,77.57-62.99,124.99-78.7c0.01-0.01,0.01-0.01,0.02-0.01c0.53-0.18,1.07-0.36,1.6-0.52c-0.66,0.67-1.34,1.36-2.01,2.05
	c-4.46,4.52-8.98,8.88-13.44,13.31c-5.13,5.09-10.15,10.26-14.92,15.74c-0.01,0.01-0.02,0.02-0.02,0.04
	c-6.73,8.44-12.84,17.35-18.3,26.65c-9.74,16.57-17.42,34.37-22.72,52.85c-0.02,0.09-0.05,0.16-0.07,0.25
	c-1.73,6.07-3.23,12.22-4.44,18.42c-0.01,0.01-0.01,0.01-0.01,0.02c-0.39,2.25-0.77,4.5-1.09,6.77c-0.02,0.22-0.06,0.44-0.1,0.67
	c-0.21,1.39-0.38,2.76-0.55,4.14c-0.7,5.69-1.18,11.4-1.42,17.09c-0.09,1.61-0.14,3.2-0.17,4.82c-0.06,2.52-0.07,5.06-0.04,7.58
	c0.25,16.98,2.64,33.62,7.08,49.77c0.23,0.9,0.49,1.79,0.75,2.69c0.27,0.9,0.53,1.78,0.8,2.68c0.27,0.88,0.54,1.77,0.83,2.66
	c0.33,1.07,0.69,2.12,1.03,3.18c0.39,1.13,0.79,2.25,1.18,3.37c0.28,0.77,0.56,1.56,0.85,2.34c0.09,0.2,0.15,0.38,0.23,0.58
	c0.32,0.91,0.67,1.82,1.02,2.71c0.38,0.97,0.77,1.94,1.15,2.9c0.22,0.56,0.45,1.12,0.69,1.67c0.39,0.94,0.79,1.88,1.2,2.81
	c0.55,1.31,1.13,2.59,1.72,3.87c0.01,0.05,0.04,0.09,0.05,0.12c0.54,1.18,1.08,2.36,1.64,3.52c0.09,0.18,0.17,0.37,0.28,0.55
	c0.54,1.15,1.1,2.31,1.68,3.45c0.02,0.05,0.05,0.1,0.07,0.13c0.65,1.29,1.31,2.56,1.99,3.84c0.34,0.63,0.66,1.26,1.02,1.89
	c0.33,0.64,0.69,1.26,1.04,1.89c1.24,2.26,2.53,4.49,3.87,6.71c0.64,1.08,1.3,2.15,1.95,3.2c0.05,0.05,0.09,0.11,0.12,0.17
	c0.02,0.04,0.05,0.09,0.07,0.12c0.05,0.07,0.1,0.16,0.14,0.23l1.84,2.86c0.48,0.75,0.96,1.48,1.45,2.23
	c0.5,0.75,1.02,1.51,1.53,2.27c0.43,0.63,0.86,1.26,1.29,1.89c1.1,1.58,2.23,3.17,3.4,4.72c0.52,0.74,1.06,1.46,1.6,2.18
	c8.75,11.69,19.18,21.43,28.85,32.26c0.05,0.05,0.16,0.18,0.37,0.42c0.05,0.05,0.1,0.11,0.15,0.17c0.34,0.38,0.86,0.97,1.51,1.72
	c0.11,0.12,0.25,0.26,0.36,0.39c0.23,0.27,0.5,0.58,0.79,0.91c0.39,0.43,0.8,0.92,1.24,1.42c0.74,0.85,1.55,1.8,2.45,2.85
	c0.36,0.42,0.72,0.86,1.1,1.3c0.2,0.22,0.38,0.45,0.58,0.69c0.39,0.45,0.8,0.94,1.22,1.42c0.2,0.26,0.42,0.5,0.63,0.75
	c0.42,0.5,0.85,1.02,1.3,1.56c0.66,0.8,1.36,1.63,2.07,2.49c0.37,0.43,0.72,0.88,1.12,1.34c0.45,0.56,0.92,1.13,1.4,1.72
	c0.28,0.33,0.56,0.69,0.83,1.03c0.38,0.45,0.75,0.9,1.12,1.35c0.54,0.66,1.07,1.33,1.61,1.98c0.98,1.24,2.01,2.52,3.06,3.83
	c0.28,0.34,0.55,0.69,0.82,1.03c0.28,0.34,0.55,0.71,0.85,1.06c0.02,0.04,0.06,0.07,0.09,0.11c0.12,0.16,0.26,0.33,0.39,0.5
	c0.5,0.64,1.03,1.31,1.56,1.98c0.59,0.75,1.18,1.51,1.78,2.27c0.59,0.77,1.18,1.53,1.79,2.32c3.03,3.91,6.16,8.05,9.33,12.35
	c0.64,0.86,1.26,1.73,1.9,2.6c1.34,1.83,2.68,3.68,4,5.53c0.74,1.04,1.49,2.09,2.21,3.13c0.38,0.54,0.75,1.06,1.12,1.58
	c0.36,0.54,0.74,1.06,1.09,1.6c0.75,1.06,1.49,2.12,2.21,3.2c0.74,1.07,1.47,2.15,2.18,3.23c0.74,1.08,1.46,2.17,2.18,3.25
	c1.44,2.17,2.86,4.37,4.26,6.59c0.71,1.1,1.4,2.21,2.09,3.31c0.7,1.1,1.39,2.21,2.05,3.33c0.36,0.55,0.69,1.1,1.02,1.67
	c1.02,1.66,2,3.33,2.97,5.01c0.32,0.55,0.64,1.12,0.96,1.67c0.49,0.83,0.96,1.67,1.42,2.5c0.25,0.42,0.47,0.85,0.7,1.25
	c0.25,0.4,0.47,0.83,0.69,1.25c1.28,2.31,2.49,4.61,3.67,6.9c0.53,1.03,1.03,2.05,1.53,3.06c0.34,0.69,0.68,1.35,0.99,2.02
	c0.04,0.06,0.06,0.11,0.09,0.17c0.04,0.07,0.07,0.16,0.11,0.23c0.25,0.53,0.5,1.04,0.74,1.56c0.45,0.94,0.9,1.89,1.3,2.82
	c0.39,0.86,0.76,1.69,1.13,2.54c0.02,0.07,0.06,0.14,0.09,0.21c0.04,0.09,0.07,0.16,0.1,0.23c0.37,0.81,0.7,1.63,1.04,2.44
	c0.1,0.26,0.2,0.52,0.31,0.76c0.29,0.72,0.58,1.44,0.86,2.15c0.26,0.66,0.5,1.31,0.75,1.98c0.22,0.58,0.43,1.17,0.64,1.74
	c0.44,1.23,0.86,2.44,1.25,3.66c0.14,0.4,0.26,0.79,0.37,1.17c0.02,0.07,0.05,0.15,0.07,0.23c0.04,0.14,0.09,0.27,0.14,0.4
	c0.04,0.11,0.06,0.22,0.1,0.33c0.07,0.28,0.16,0.56,0.25,0.83c0.09,0.28,0.16,0.56,0.23,0.83c0.22,0.71,0.4,1.41,0.59,2.12
	c4.22,9.9,7.81,20.19,10.71,30.8c0.11,0.37,0.21,0.71,0.29,1.07C720.67,632.49,723.72,654.75,723.72,677.82z"/>
<path class="st1" d="M610.34,535.23c-1.03,5.15-2.75,9.98-5.34,14.24c-1.1-4.16-2.71-8.74-4.16-12.59c-1.4-4.5-2.91-8.61-3.45-10.2
	c-3.24-9.47-7.81-18.49-13.46-26.74c-8.84-12.9-20.39-23.98-33.8-32.05c-3.74-2.25-7.63-4.26-11.65-6.01
	c0.16,11.52,0.32,23.05,0.48,34.57c0.44,32.27,0.88,64.55,1.33,96.82c0.49,35.61,4.84,76.92-15.84,108.16
	c-3.46,5.24-7.57,9.98-12.19,14.2c-12.21,11.18-27.92,18.68-44.27,21.84c-16.61,3.22-34.25,2.17-49.82-4.5
	c-15.55-6.68-28.79-19.23-34.87-35.04c-6.17-16.1-4.55-34.67,2.87-50.24c5.69-11.95,14.51-22.16,25.06-30.08
	c7.49-5.64,15.86-10.11,24.62-13.27c10.65-3.83,21.99-5.78,33.31-5.83h1.17c3.12,0.02,27.63,1.78,33.2,5.11V355.63
	c0-6.53-0.1-13.06-0.2-19.59c-0.02-1.73-0.04-3.45-0.06-5.18c1.46,2.81,2.91,5.62,4.37,8.43c20.35,39.16,47.77,71.74,74.3,106.58
	C601.52,471.58,616.92,502.07,610.34,535.23z"/>
<radialGradient id="SVGID_2_" cx="410.5393" cy="690.6182" r="180.4865" fx="408.2316" fy="815.6749" gradientTransform="matrix(1.2273 0 0 1.2272 -62.172 -194.706)" gradientUnits="userSpaceOnUse">
	<stop  offset="0.2991" style="stop-color:#1A1A1A"/>
	<stop  offset="0.6301" style="stop-color:#171717"/>
	<stop  offset="0.8288" style="stop-color:#0F0F0F"/>
	<stop  offset="0.9923" style="stop-color:#010101"/>
	<stop  offset="1" style="stop-color:#000000"/>
</radialGradient>
<path class="st2" d="M632.48,652.37c0.02,1.77,0.01,3.56-0.02,5.35c-0.37,17.06-3.35,33.6-8.4,49.59
	c-4.33,13.71-10.21,27.02-17.21,39.87c-4.34,7.96-9.11,15.59-14.34,22.8c-15.24,21.06-34.4,38.57-58.53,50.45
	c-52.83,26-118.23,18.67-170.28-5.39c-31.81-14.71-59.08-37.53-78.88-65.66c-13.73-19.55-23.86-41.65-29.33-65.35
	c-2.64-11.38-4.16-23.02-4.52-34.69c-0.28-9.39,0.23-18.78,1.51-28.05c0.56-4.1,1.28-8.16,2.12-12.21v-0.01
	c0.01-0.02,0.02-0.05,0.02-0.07v-0.01c2.86-13.59,7.35-26.88,13.4-39.45c1.18-2.47,2.42-4.91,3.72-7.3
	c6.44-11.92,14.3-22.99,23.3-33.04c0-0.01,0.01-0.02,0.02-0.04c27.63-30.88,66.03-52.07,107.55-58.13
	c25.64-3.74,52.05-2.8,77.34,2.87c1.58,0.34,3.14,0.72,4.7,1.12c4.09,0.99,8.15,2.12,12.18,3.37c2.25,0.7,4.48,1.42,6.7,2.21v123.02
	c-5.57-3.33-30.08-5.08-33.2-5.11h-1.17c-11.32,0.05-22.66,2-33.31,5.83c-8.76,3.15-17.13,7.62-24.62,13.27
	c-10.56,7.92-19.37,18.13-25.06,30.08c-7.43,15.57-9.05,34.14-2.87,50.24c6.08,15.81,19.32,28.36,34.87,35.04
	c15.56,6.68,33.21,7.72,49.82,4.5c16.35-3.17,32.06-10.66,44.27-21.84c4.61-4.22,8.73-8.96,12.19-14.2
	c20.68-31.24,16.34-72.55,15.85-108.17c-0.44-32.28-0.88-64.55-1.33-96.83c29.89,16.73,55.65,40.67,71.9,70.66
	C624.99,593.13,632.27,622.77,632.48,652.37z"/>
<linearGradient id="SVGID_3_" gradientUnits="userSpaceOnUse" x1="795.4042" y1="745.1202" x2="393.9016" y2="343.6176">
	<stop  offset="3.594250e-07" style="stop-color:#1A1A1A"/>
	<stop  offset="1" style="stop-color:#000000"/>
</linearGradient>
<path class="st3" d="M791.21,655.65c-4.95,52.73-23.4,102.7-52.84,144.97c-14.97,17.99-32.76,34.34-52.87,48.51
	c-12.13,8.82-24.93,16.71-38.26,23.62c-13.83,7.18-28.22,13.31-42.97,18.37c-12.24,4.21-24.68,8.44-37.41,11.01
	c-7.46,1.53-15.07,2.81-22.78,3.85c-13.75,1.85-27.36,2.83-40.8,3.01c-0.71,0.01-1.44,0.02-2.15,0.01h-0.07
	c-0.07,0-0.14-0.01-0.2-0.01c13.32-0.17,26.82-1.15,40.44-3.01c1.52-0.21,3.04-0.42,4.55-0.66c0.87-0.12,1.74-0.25,2.61-0.39
	c0.58-0.09,1.15-0.17,1.74-0.27c1.34-0.21,2.68-0.45,4.01-0.69c2.47-0.42,4.93-0.88,7.39-1.37c1.12-0.22,2.22-0.44,3.33-0.67
	c0.47-0.1,0.92-0.18,1.37-0.28c2.39-0.49,4.81-0.94,7.14-1.63c0.21-0.04,0.41-0.09,0.6-0.13c4.47-1.5,8.87-3.17,13.22-5.01
	c2.88-1.2,5.73-2.48,8.55-3.85c0.72-0.33,1.46-0.69,2.18-1.06c0.2-0.09,0.39-0.18,0.59-0.28c0.2-0.1,0.39-0.2,0.59-0.31
	c0.4-0.2,0.8-0.39,1.19-0.6c0.74-0.37,1.46-0.75,2.18-1.14c0.22-0.11,0.44-0.22,0.66-0.33c0.75-0.42,1.5-0.82,2.25-1.24
	c0.85-0.45,1.69-0.92,2.53-1.41c0.85-0.47,1.68-0.96,2.5-1.45c0.68-0.39,1.34-0.79,2-1.2c1.22-0.72,2.42-1.47,3.62-2.23
	c0.58-0.36,1.14-0.72,1.71-1.1c0.56-0.36,1.12-0.72,1.68-1.09c0.27-0.18,0.55-0.37,0.82-0.54c0.79-0.54,1.58-1.09,2.37-1.63
	c1.6-1.1,3.19-2.23,4.76-3.39c57.81-40.51,96.23-112.36,96.23-194.21c0-23.07-3.06-45.33-8.74-66.33c-0.09-0.36-0.18-0.7-0.29-1.07
	c-2.91-10.62-6.49-20.9-10.71-30.8c-0.18-0.71-0.37-1.41-0.59-2.12c-0.07-0.27-0.15-0.55-0.23-0.83c-0.09-0.27-0.17-0.55-0.25-0.83
	c-0.04-0.11-0.06-0.22-0.1-0.33c-0.05-0.14-0.1-0.27-0.14-0.41c-0.02-0.09-0.05-0.16-0.07-0.23c-0.11-0.38-0.23-0.76-0.37-1.17
	c-0.39-1.21-0.81-2.43-1.25-3.66c-0.21-0.58-0.42-1.17-0.64-1.74c-0.25-0.66-0.49-1.31-0.75-1.98c-0.28-0.71-0.56-1.42-0.86-2.15
	c-0.11-0.25-0.21-0.5-0.31-0.76c-0.34-0.81-0.68-1.63-1.04-2.44c-0.02-0.07-0.06-0.15-0.1-0.23c-0.02-0.07-0.06-0.14-0.09-0.21
	c-0.37-0.85-0.74-1.68-1.13-2.54c-0.41-0.93-0.85-1.88-1.3-2.82c-0.23-0.52-0.49-1.03-0.74-1.56c-0.04-0.07-0.07-0.16-0.11-0.23
	c-0.02-0.06-0.05-0.11-0.09-0.17c-0.32-0.67-0.65-1.34-0.99-2.02c-0.5-1.01-1.01-2.02-1.53-3.06c-1.18-2.28-2.39-4.59-3.67-6.9
	c-0.22-0.42-0.44-0.85-0.69-1.25c-0.23-0.4-0.45-0.83-0.7-1.25c-0.47-0.83-0.93-1.67-1.42-2.5c-0.32-0.55-0.64-1.12-0.96-1.67
	c-0.97-1.68-1.95-3.35-2.97-5.01c-0.33-0.56-0.66-1.12-1.02-1.67c-0.66-1.12-1.35-2.22-2.05-3.33c-0.69-1.1-1.37-2.21-2.09-3.31
	c-1.4-2.22-2.82-4.42-4.26-6.59c-0.72-1.08-1.45-2.17-2.18-3.25c-0.71-1.08-1.45-2.16-2.18-3.23c-0.72-1.08-1.46-2.15-2.21-3.2
	c-0.36-0.54-0.74-1.06-1.09-1.6c-0.37-0.53-0.74-1.04-1.12-1.58c-0.72-1.04-1.47-2.09-2.21-3.13c-1.33-1.85-2.66-3.71-4-5.53
	c-0.64-0.87-1.26-1.74-1.9-2.6c-3.17-4.3-6.3-8.43-9.33-12.35c-0.61-0.79-1.2-1.55-1.79-2.32c-0.6-0.76-1.19-1.52-1.78-2.27
	c-0.53-0.66-1.06-1.34-1.56-1.98c-0.14-0.17-0.27-0.34-0.39-0.5c-0.02-0.04-0.06-0.07-0.09-0.11c-0.29-0.34-0.56-0.71-0.85-1.06
	c-0.27-0.34-0.54-0.69-0.82-1.03c-1.04-1.31-2.07-2.59-3.06-3.83c-0.54-0.65-1.07-1.31-1.61-1.98c-0.37-0.45-0.74-0.9-1.12-1.35
	c-0.27-0.34-0.55-0.7-0.83-1.03c-0.48-0.59-0.95-1.15-1.4-1.72c-0.39-0.45-0.75-0.91-1.12-1.34c-0.71-0.86-1.41-1.69-2.07-2.49
	c-0.45-0.54-0.88-1.06-1.3-1.56c-0.21-0.25-0.43-0.49-0.63-0.75c-0.42-0.48-0.82-0.97-1.22-1.42c-0.2-0.23-0.38-0.47-0.58-0.69
	c-0.38-0.44-0.75-0.88-1.1-1.3c-0.91-1.04-1.72-2-2.45-2.85c-0.44-0.5-0.85-0.99-1.24-1.42c-0.28-0.33-0.55-0.64-0.79-0.91
	c-0.11-0.13-0.25-0.27-0.36-0.39c-0.65-0.75-1.17-1.34-1.51-1.72c-0.05-0.06-0.1-0.12-0.15-0.17c-0.21-0.23-0.32-0.37-0.37-0.42
	c-9.67-10.84-20.1-20.57-28.85-32.26c-0.54-0.72-1.08-1.45-1.6-2.18c-1.17-1.56-2.3-3.14-3.4-4.72c-0.43-0.63-0.86-1.26-1.29-1.89
	c-0.52-0.76-1.03-1.52-1.53-2.27c-0.49-0.75-0.97-1.48-1.45-2.23l-1.84-2.86c-0.04-0.07-0.09-0.16-0.14-0.23
	c-0.02-0.04-0.05-0.09-0.07-0.12c-0.04-0.06-0.07-0.12-0.12-0.17c-0.65-1.06-1.31-2.12-1.95-3.2c-1.34-2.22-2.63-4.45-3.87-6.71
	c-0.36-0.63-0.71-1.25-1.04-1.89c-0.36-0.63-0.67-1.26-1.02-1.89c-0.68-1.28-1.34-2.55-1.99-3.84c-0.02-0.04-0.05-0.09-0.07-0.13
	c-0.58-1.14-1.14-2.29-1.68-3.45c-0.11-0.18-0.2-0.37-0.28-0.55c-0.56-1.17-1.1-2.34-1.64-3.52c-0.01-0.04-0.04-0.07-0.05-0.12
	c-0.59-1.28-1.17-2.55-1.72-3.87c-0.42-0.93-0.81-1.87-1.2-2.81c-0.23-0.55-0.47-1.1-0.69-1.67c-0.38-0.96-0.77-1.93-1.15-2.9
	c-0.34-0.9-0.7-1.8-1.02-2.71c-0.09-0.2-0.15-0.38-0.23-0.58c-0.28-0.79-0.56-1.57-0.85-2.34c-0.39-1.13-0.79-2.25-1.18-3.37
	c-0.34-1.06-0.7-2.11-1.03-3.18c-0.29-0.9-0.56-1.78-0.83-2.66c-0.27-0.9-0.53-1.78-0.8-2.68c-0.26-0.9-0.52-1.79-0.75-2.69
	c-4.44-16.15-6.84-32.79-7.08-49.77c-0.04-2.53-0.02-5.07,0.04-7.58c0.04-1.62,0.09-3.22,0.17-4.82c0.25-5.69,0.72-11.4,1.42-17.09
	c0.17-1.37,0.36-2.75,0.55-4.14c0.04-0.23,0.07-0.45,0.1-0.67c0.33-2.28,0.71-4.54,1.1-6.8c1.22-6.2,2.71-12.35,4.44-18.42
	c0.02-0.09,0.05-0.16,0.07-0.25c5.3-18.48,12.97-36.29,22.72-52.85c5.46-9.3,11.57-18.21,18.3-26.65c0-0.01,0.01-0.02,0.02-0.04
	c4.77-5.49,9.79-10.65,14.92-15.74c4.46-4.43,8.98-8.8,13.44-13.31c0.68-0.69,1.35-1.37,2.01-2.05c0.01,0,0.01-0.01,0.02-0.01
	c0.01-0.01,0.02-0.02,0.04-0.02c0.05-0.02,0.09-0.02,0.13-0.05c0.02,0,0.06-0.01,0.09-0.02c0.09-0.02,0.16-0.05,0.25-0.1
	c0.01-0.01,0.01-0.02,0.02-0.04c0.36-0.11,0.71-0.26,1.01-0.43c0.01-0.01,0.04-0.02,0.05-0.02c-0.02,0.06-0.04,0.13-0.05,0.2
	c0,0,0-0.01,0.01-0.01c-0.04,0.1-0.06,0.18-0.09,0.28c-0.02,0.06-0.04,0.11-0.05,0.16c-0.02,0.07-0.05,0.16-0.06,0.23
	c-0.01,0.05-0.02,0.11-0.05,0.16c-6.17,21.7-10.92,42.78-10.92,65.6c0,30.95,8.49,61.06,20.69,89.34
	c3.39,7.83,7.04,15.55,10.86,23.17c1.93,3.83,4,7.58,6.04,11.34c1.93,3.57,3.52,7.2,5.4,10.77c3.39,5.61,6.16,11.72,9.22,17.54
	c2.27,4.34,4.73,8.61,7.22,12.86c2.43,4.14,5.33,7.93,7.85,12.01c1.53,2.49,2.95,5.08,4.46,7.61c5.82,9.73,11.76,19.36,17.76,28.99
	c9.3,14.89,18.62,29.78,27.92,44.68c9.3,14.89,18.61,29.78,27.93,44.68c8.39,13.44,13.99,29.06,18.93,44.09
	c0.72,2.18,1.41,4.38,2.09,6.59c4.43,14.46,7.76,28.97,10.01,43.45C792.86,604.61,793.59,630.44,791.21,655.65z"/>
</svg>
