<svg xmlns="http://www.w3.org/2000/svg" xmlns:xlink="http://www.w3.org/1999/xlink" viewBox="0 0 832.95 225"><defs><style>.cls-1{fill:url(#radial-gradient);}.cls-2{fill:url(#radial-gradient-2);}.cls-3{fill:url(#linear-gradient);}.cls-4{fill:url(#linear-gradient-2);}</style><radialGradient id="radial-gradient" cx="-94.7" cy="625.23" r="0.31" gradientTransform="matrix(457.85, 0, 0, -457.81, 43428.02, 286351.48)" gradientUnits="userSpaceOnUse"><stop offset="0" stop-color="aqua"/><stop offset="1" stop-color="blue"/></radialGradient><radialGradient id="radial-gradient-2" cx="-94.81" cy="625.33" r="0.31" gradientTransform="matrix(205.08, 0, 0, -205.06, 19502.21, 128383.82)" gradientUnits="userSpaceOnUse"><stop offset="0" stop-color="aqua"/><stop offset="0.23" stop-color="#00fcff"/><stop offset="0.36" stop-color="#00f4ff"/><stop offset="0.47" stop-color="#00e6ff"/><stop offset="0.57" stop-color="#00d1ff"/><stop offset="0.67" stop-color="#00b7ff"/><stop offset="0.75" stop-color="#0097ff"/><stop offset="0.83" stop-color="#0070ff"/><stop offset="0.91" stop-color="#04f"/><stop offset="0.98" stop-color="#0012ff"/><stop offset="1" stop-color="blue"/></radialGradient><linearGradient id="linear-gradient" x1="159.79" y1="48.43" x2="46.01" y2="162.21" gradientTransform="matrix(1, 0, 0, -1, 0, 227)" xlink:href="#radial-gradient"/><linearGradient id="linear-gradient-2" x1="216.9" y1="144.15" x2="832.95" y2="144.15" gradientUnits="userSpaceOnUse"><stop offset="0" stop-color="aqua"/><stop offset="1" stop-color="#0080ff"/></linearGradient></defs><g id="Layer_2" data-name="Layer 2"><g id="blue-words"><g id="rezo-blue"><path id="Vector" class="cls-1" d="M139.49,159.31c0,23.19-10.89,43.55-27.27,55-.44.33-.9.65-1.35,1l-.67.46-.23.16-.48.31-.48.31-1,.63-.56.34-.71.41-.72.4-.64.35-.18.09-.62.33-.34.17-.33.16-.62.31a46.89,46.89,0,0,1-5.65,2.32l-.69.23a13.09,13.09,0,0,1-2,.46l-.39.08-1,.19c-.69.14-1.39.27-2.09.38l-1.14.2-.49.08-.74.11-1.29.18a93.22,93.22,0,0,1-11.46.86h.06a91.69,91.69,0,0,1-10.55-.52c-14.51-1.56-28.74-6.59-40.46-15.22C14.49,201.05,6,189.9,2.2,176.94c-.28-.95-.53-1.91-.76-2.86a58.52,58.52,0,0,1,7.18-43.22q1.32-2.19,2.8-4.31c-.36.68-.72,1.37-1.05,2.07a49.34,49.34,0,0,0-3.8,11.18h0v0h0c-.24,1.14-.45,2.3-.6,3.46a46.94,46.94,0,0,0-.43,8,50.24,50.24,0,0,0,1.28,9.83,53,53,0,0,0,8.31,18.51,56.2,56.2,0,0,0,22.35,18.61c14.75,6.81,33.29,8.89,48.26,1.53a45,45,0,0,0,16.58-14.3,62.81,62.81,0,0,0,4.07-6.46,64.22,64.22,0,0,0,4.87-11.3,50,50,0,0,0,2.38-14c0-.51,0-1,0-1.52a51.65,51.65,0,0,0-6.13-24.16,51.44,51.44,0,0,0-20.37-20c-.05-3.26-.09-6.53-.14-9.79a27.05,27.05,0,0,1,3.3,1.7,31.58,31.58,0,0,1,13.4,16.66c.15.45.58,1.61,1,2.89.41,1.09.87,2.39,1.18,3.57a12.52,12.52,0,0,0,1.52-4c1.86-9.4-2.5-18-8-25.32C91.81,83.7,84,74.47,78.27,63.37L77,61c0,.49,0,1,0,1.47,0,1.85.06,3.7.06,5.55v35.42c-.63-.23-1.27-.43-1.9-.63-1.14-.35-2.29-.67-3.45-1-4.21-4.18-7-10-9.26-15.23a57.12,57.12,0,0,1-4.67-22.67c0-1.66.08-3.3.21-4.92,1.18-13.68,7.44-26.46,16.76-36.57A83.77,83.77,0,0,1,110.22.15h0l.46-.15-.57.58c-1.27,1.28-2.55,2.52-3.81,3.77-1.46,1.45-2.88,2.91-4.23,4.46h0A65.31,65.31,0,0,0,90.44,31.35a.14.14,0,0,1,0,.07c-.49,1.72-.91,3.47-1.26,5.22h0c-.11.64-.22,1.27-.31,1.92a1.48,1.48,0,0,1,0,.19c-.06.39-.1.78-.15,1.17-.2,1.61-.34,3.23-.41,4.84,0,.46,0,.91,0,1.37,0,.71,0,1.43,0,2.15a56.54,56.54,0,0,0,2,14.1l.21.76c.08.26.15.51.23.76s.15.5.24.76.19.6.29.9l.33,1,.24.67a.77.77,0,0,1,.07.16c.09.26.19.52.29.77s.22.55.32.82.13.32.2.47.22.54.34.8.32.73.49,1.1c0,0,0,0,0,0l.46,1,.08.15.48,1,0,0,.56,1.09c.1.17.19.35.29.53l.3.54c.35.64.71,1.27,1.09,1.9l.56.91,0,0s0,0,0,0l0,.06.52.81.41.64.44.64.36.53c.31.45.63.9,1,1.34.14.21.3.42.45.62,2.48,3.31,5.43,6.07,8.17,9.14l.11.12,0,.05c.1.11.25.27.43.49l.1.11.23.25c.11.13.22.27.35.41l.69.8.31.37.17.2.34.4.18.21.37.45.59.7.31.38.4.49.24.29.31.38.46.56.87,1.09.23.29c.08.1.15.2.24.3l0,0a.76.76,0,0,0,.11.14l.44.57.5.64c.17.22.34.43.51.66.86,1.1,1.75,2.28,2.64,3.5l.54.73,1.14,1.57c.21.29.42.59.62.89s.21.3.32.44.21.3.31.46l.62.9c.21.31.42.61.62.92s.42.61.62.92c.41.62.81,1.24,1.21,1.87l.59.94c.2.31.39.62.58.94.1.16.2.31.29.47.29.47.57,1,.84,1.42l.27.48.41.7c.07.12.13.25.19.36a4,4,0,0,1,.2.35c.36.66.7,1.31,1,2,.15.29.29.58.43.87s.2.38.28.57l0,0,0,.06.21.44c.13.27.25.54.37.8l.32.72s0,0,0,.06l0,.07c.11.23.2.46.3.69a1.31,1.31,0,0,0,.08.21l.25.61.21.56.18.5c.13.35.25.69.36,1,0,.12.07.23.1.34a.14.14,0,0,1,0,.06s0,.08,0,.11l0,.1a1.55,1.55,0,0,0,.07.23,2.17,2.17,0,0,1,.07.24c.06.2.11.4.16.6a66.64,66.64,0,0,1,3,8.73c0,.1.06.2.08.3A73,73,0,0,1,139.49,159.31Z"/><path id="Vector_2" data-name="Vector 2" class="cls-2" d="M113.73,152.13c0,.5,0,1,0,1.52a50,50,0,0,1-2.38,14,63.53,63.53,0,0,1-4.88,11.3,60.06,60.06,0,0,1-4.06,6.46,44.91,44.91,0,0,1-16.59,14.3c-15,7.36-33.5,5.29-48.25-1.53a56.28,56.28,0,0,1-22.35-18.61A53,53,0,0,1,6.9,161.1a50,50,0,0,1-1.28-9.83,48,48,0,0,1,.42-8c.16-1.16.37-2.31.6-3.46h0s0,0,0,0h0a48.85,48.85,0,0,1,3.8-11.18q.5-1.05,1.05-2.07a49.08,49.08,0,0,1,6.6-9.36h0a51.18,51.18,0,0,1,30.48-16.48,60.47,60.47,0,0,1,21.91.82c.45.09.89.2,1.34.31q1.72.43,3.45,1c.63.2,1.27.4,1.9.63v34.86c-1.58-.95-8.53-1.44-9.41-1.45h-.33A28.33,28.33,0,0,0,58,138.52a26.32,26.32,0,0,0-7,3.76,23.27,23.27,0,0,0-7.1,8.53A17.31,17.31,0,0,0,53,175a24.3,24.3,0,0,0,14.11,1.28,26,26,0,0,0,12.55-6.19,21.44,21.44,0,0,0,3.45-4c5.86-8.85,4.63-20.55,4.5-30.65q-.19-13.72-.38-27.44a51.44,51.44,0,0,1,20.37,20A51.65,51.65,0,0,1,113.73,152.13Z"/><path id="Vector_3" data-name="Vector 3" class="cls-3" d="M158.62,153.21a86.1,86.1,0,0,1-15,41.08,77.58,77.58,0,0,1-15,13.74,85,85,0,0,1-10.84,6.7,89.53,89.53,0,0,1-12.18,5.2A83.08,83.08,0,0,1,95,223.05c-2.11.44-4.27.8-6.46,1.09A94.83,94.83,0,0,1,77,225h-.68a93.37,93.37,0,0,0,11.46-.86l1.29-.18.74-.11.49-.08,1.14-.2,2.09-.38.94-.19.39-.08c.68-.14,1.36-.27,2-.47l.17,0c1.27-.43,2.52-.9,3.75-1.42.82-.34,1.62-.71,2.42-1.09l.62-.3.17-.08.17-.09.33-.17.62-.32.19-.1.64-.35.71-.4.71-.41.57-.34c.34-.2.68-.42,1-.63l.49-.31.47-.31.24-.15.67-.47,1.35-1c16.38-11.48,27.27-31.84,27.27-55a71.93,71.93,0,0,0-2.48-18.8c0-.1-.05-.2-.08-.3a68.68,68.68,0,0,0-3-8.73c0-.2-.1-.4-.16-.6s-.05-.16-.07-.24a1.55,1.55,0,0,1-.07-.23l0-.09,0-.12a.14.14,0,0,0,0-.07c0-.1-.06-.21-.1-.33-.11-.34-.23-.69-.36-1l-.18-.5-.21-.56-.25-.61-.08-.21-.3-.7a.11.11,0,0,0,0-.06.14.14,0,0,0,0-.06l-.32-.72c-.12-.26-.24-.53-.37-.8l-.21-.44,0-.07,0,0-.28-.58c-.14-.28-.28-.57-.43-.86-.34-.65-.68-1.3-1-2a4,4,0,0,0-.2-.35c-.06-.12-.12-.24-.19-.36s-.27-.47-.41-.71l-.27-.47c-.27-.48-.55-1-.84-1.42-.09-.16-.19-.32-.29-.47l-.58-1-.59-.93c-.4-.63-.8-1.26-1.21-1.87-.2-.31-.41-.62-.62-.92s-.41-.61-.62-.92-.41-.61-.62-.9-.21-.3-.31-.46l-.32-.45-.62-.88-1.14-1.57c-.18-.25-.35-.49-.54-.74-.89-1.21-1.78-2.38-2.64-3.5l-.51-.65-.5-.65c-.15-.18-.3-.38-.44-.56a1.34,1.34,0,0,1-.11-.14l0,0-.24-.3c-.08-.1-.15-.2-.23-.29l-.87-1.09-.46-.56-.31-.38L113.3,98l-.4-.49-.31-.38-.59-.71-.37-.44-.18-.21-.34-.4c-.06-.07-.11-.14-.17-.2l-.31-.37c-.26-.29-.49-.56-.69-.8l-.35-.41-.23-.26-.1-.11c-.18-.21-.33-.38-.43-.48l0,0a.72.72,0,0,0-.11-.12c-2.74-3.07-5.69-5.83-8.17-9.14-.15-.21-.31-.41-.45-.62-.34-.44-.66-.89-1-1.34l-.36-.53c-.15-.22-.3-.43-.44-.65l-.41-.63-.52-.81a.21.21,0,0,0,0-.06.08.08,0,0,0,0,0l0,0-.56-.9c-.37-.63-.74-1.26-1.09-1.9l-.3-.54L95,74.79c-.19-.36-.38-.72-.56-1.08,0,0,0,0,0,0l-.48-1a1,1,0,0,1-.07-.15c-.16-.34-.32-.67-.47-1,0,0,0,0,0,0-.17-.36-.34-.72-.49-1.09s-.23-.53-.34-.8-.13-.31-.2-.47-.21-.55-.32-.82-.2-.51-.29-.77c0-.06,0-.11-.07-.17l-.24-.66-.33-1c-.1-.3-.2-.6-.29-.9s-.16-.51-.24-.76-.15-.5-.23-.76l-.21-.76a55.62,55.62,0,0,1-2-14.1c0-.72,0-1.44,0-2.15,0-.46,0-.91,0-1.37.08-1.61.21-3.23.41-4.84L88.78,39l0-.19c.1-.65.2-1.29.31-1.93q.52-2.64,1.26-5.22a.25.25,0,0,0,0-.07A65,65,0,0,1,102,9h0c1.35-1.56,2.78-3,4.23-4.46,1.26-1.26,2.54-2.5,3.81-3.77l.57-.58h0l0,0h0l.07,0h0a2.52,2.52,0,0,0,.29-.12h0s0,0,0,.06h0s0,.05,0,.08l0,0s0,0,0,.06l0,0c-1.75,6.15-3.09,12.12-3.09,18.59,0,8.77,2.4,17.3,5.86,25.32q1.44,3.31,3.08,6.56c.54,1.09,1.13,2.15,1.71,3.21s1,2.05,1.53,3.06c1,1.59,1.74,3.32,2.61,5,.65,1.23,1.34,2.44,2.05,3.64s1.51,2.25,2.22,3.41c.44.7.84,1.43,1.27,2.15,1.65,2.76,3.33,5.49,5,8.22,2.63,4.22,5.28,8.44,7.91,12.66s5.27,8.44,7.92,12.66a57.81,57.81,0,0,1,5.36,12.49c.2.62.4,1.24.59,1.87a88.17,88.17,0,0,1,2.84,12.31A86.39,86.39,0,0,1,158.62,153.21Z"/></g><path class="cls-4" d="M216.9,175.89V112.41h12.16l1.15,12a25.33,25.33,0,0,1,9.28-9.92,27.07,27.07,0,0,1,14.4-3.65v14.21h-3.71a25.84,25.84,0,0,0-10.05,1.85,14.68,14.68,0,0,0-7,6.28q-2.62,4.41-2.63,12.22v30.46Zm76.54,1.54a32.69,32.69,0,0,1-16.58-4.16,29.53,29.53,0,0,1-11.32-11.58,35.1,35.1,0,0,1-4.1-17.28,36.68,36.68,0,0,1,4-17.54,29.4,29.4,0,0,1,11.27-11.78,32.81,32.81,0,0,1,16.83-4.22A30.91,30.91,0,0,1,309.82,115a29.38,29.38,0,0,1,10.76,11.07,30.85,30.85,0,0,1,3.84,15.23c0,.86,0,1.78-.07,2.76s-.11,2.07-.19,3.26H274.75q.64,9.21,6.08,14a18.49,18.49,0,0,0,12.61,4.8,16.92,16.92,0,0,0,9.66-2.63,15.84,15.84,0,0,0,5.83-7.1H322.5a28.82,28.82,0,0,1-10.18,15Q304.7,177.44,293.44,177.43Zm0-55.42a19.2,19.2,0,0,0-12,4q-5.25,4-6.4,12.09h35.84q-.39-7.41-5.25-11.77A17.57,17.57,0,0,0,293.44,122Zm40.83,53.88v-11l33.92-41.22H334.78V112.41h48.77v11l-34.17,41.22h34.81v11.26Zm93.57,1.54a32.16,32.16,0,0,1-16.32-4.16,30.4,30.4,0,0,1-11.46-11.65,35,35,0,0,1-4.22-17.47,34.51,34.51,0,0,1,4.29-17.47A30.63,30.63,0,0,1,411.71,115a34,34,0,0,1,32.58,0,30.84,30.84,0,0,1,11.52,11.65,34.61,34.61,0,0,1,4.28,17.47,34.61,34.61,0,0,1-4.28,17.47,30.66,30.66,0,0,1-11.59,11.65A32.49,32.49,0,0,1,427.84,177.43Zm0-11.65a17.56,17.56,0,0,0,9-2.43,17.86,17.86,0,0,0,6.72-7.23,25.19,25.19,0,0,0,2.56-12,25.82,25.82,0,0,0-2.49-12A17.69,17.69,0,0,0,418.94,125a17.86,17.86,0,0,0-6.72,7.23,25.31,25.31,0,0,0-2.56,12,25.31,25.31,0,0,0,2.56,12,18,18,0,0,0,6.66,7.23A17.22,17.22,0,0,0,427.84,165.78Zm47,10.11V112.41h12l1,11.13a22.09,22.09,0,0,1,8.64-9.28,25.16,25.16,0,0,1,13.12-3.39q11.52,0,18.11,7.17t6.59,21.37v36.48H520.89V140.82q0-18.43-15.1-18.43a16.16,16.16,0,0,0-12.48,5.38q-4.94,5.37-4.93,15.36v32.76Zm97,1.54q-8.07,0-13.31-2.69a18.37,18.37,0,0,1-7.81-7.1,18.93,18.93,0,0,1-2.56-9.67,17.28,17.28,0,0,1,7.17-14.59q7.15-5.37,20.48-5.37h16.64v-1.16c0-4.94-1.35-8.66-4-11.13A14.75,14.75,0,0,0,578,122a17.29,17.29,0,0,0-9.79,2.75,11.54,11.54,0,0,0-5.06,8.13H549.57a21.25,21.25,0,0,1,4.67-11.84,26.1,26.1,0,0,1,10.24-7.56,34.82,34.82,0,0,1,13.63-2.62q13.3,0,20.61,7t7.29,19v39H594.24L593.09,165a24.25,24.25,0,0,1-7.81,8.84Q580.15,177.42,571.84,177.43Zm2.69-11a15.88,15.88,0,0,0,9.28-2.62,17.76,17.76,0,0,0,5.88-7,28,28,0,0,0,2.63-9.6H577.21q-8.06,0-11.45,2.82a8.78,8.78,0,0,0-3.39,7,8.15,8.15,0,0,0,3.26,6.85C567.81,165.59,570.77,166.42,574.53,166.42Zm47.35,9.47V112.41h12l1,11.13a22.09,22.09,0,0,1,8.64-9.28,25.16,25.16,0,0,1,13.12-3.39q11.52,0,18.11,7.17t6.59,21.37v36.48H668V140.82q0-18.43-15.1-18.43a16.16,16.16,0,0,0-12.48,5.38q-4.93,5.37-4.93,15.36v32.76Zm105.6,1.54a33,33,0,0,1-16.7-4.22,30,30,0,0,1-11.52-11.72,35.14,35.14,0,0,1-4.16-17.34,35.14,35.14,0,0,1,4.16-17.34,30,30,0,0,1,11.52-11.72,33,33,0,0,1,16.7-4.22q11.78,0,19.78,6.14a27.75,27.75,0,0,1,10.3,16.64h-14.2a13.44,13.44,0,0,0-5.64-8.19,18.81,18.81,0,0,0-19.45-.45,18.2,18.2,0,0,0-6.79,7.3,25,25,0,0,0-2.56,11.84A25,25,0,0,0,711.48,156a18.63,18.63,0,0,0,6.79,7.36,17.41,17.41,0,0,0,9.21,2.56A17.84,17.84,0,0,0,737.72,163a13.48,13.48,0,0,0,5.64-8.32h14.2a27.48,27.48,0,0,1-10.24,16.51Q739.27,177.43,727.48,177.43Zm74.5,0a32.69,32.69,0,0,1-16.58-4.16,29.46,29.46,0,0,1-11.32-11.58,35.1,35.1,0,0,1-4.1-17.28,36.68,36.68,0,0,1,4-17.54,29.4,29.4,0,0,1,11.27-11.78,32.78,32.78,0,0,1,16.83-4.22A31,31,0,0,1,818.36,115a29.45,29.45,0,0,1,10.76,11.07A31,31,0,0,1,833,141.33q0,1.29-.06,2.76c0,1-.11,2.07-.19,3.26H783.29q.65,9.21,6.08,14a18.49,18.49,0,0,0,12.61,4.8,16.92,16.92,0,0,0,9.66-2.63,15.84,15.84,0,0,0,5.83-7.1H831a28.88,28.88,0,0,1-10.18,15Q813.24,177.44,802,177.43ZM802,122a19.18,19.18,0,0,0-12,4q-5.25,4-6.4,12.09h35.84q-.39-7.41-5.25-11.77A17.57,17.57,0,0,0,802,122Z"/></g></g></svg>