<?xml version="1.0" encoding="utf-8"?>
<!-- Generator: Adobe Illustrator 25.2.0, SVG Export Plug-In . SVG Version: 6.00 Build 0)  -->
<svg version="1.1" xmlns="http://www.w3.org/2000/svg" xmlns:xlink="http://www.w3.org/1999/xlink" x="0px" y="0px"
	 viewBox="0 0 1920 1080" style="enable-background:new 0 0 1920 1080;" xml:space="preserve">
<style type="text/css">
	.st0{display:none;}
	.st1{display:inline;fill:none;}
	.st2{display:inline;fill:#73AA3A;}
	.st3{display:inline;fill:#CCBC2B;}
	.st4{display:inline;fill:#C9CC36;}
	.st5{display:inline;fill:#CC4F29;}
	.st6{display:inline;fill:#66CC33;}
	.st7{display:inline;}
	.st8{fill:#CC259D;}
	.st9{display:inline;fill:#127F4B;stroke:#000099;stroke-miterlimit:10;}
	.st10{display:inline;fill:#CC33CC;}
	.st11{display:inline;fill:#CC3668;}
	.st12{fill:none;}
	.st13{display:inline;fill:#3636CC;}
	.st14{display:inline;fill:#127F4B;}
	.st15{display:inline;fill:#201E84;}
	.st16{display:inline;fill:url(#SVGID_1_);}
	.st17{display:inline;fill:url(#SVGID_2_);}
	.st18{display:inline;fill:url(#SVGID_3_);}
	.st19{display:inline;fill:url(#SVGID_4_);}
	.st20{display:inline;fill:url(#SVGID_5_);}
	.st21{fill:#73AA3A;}
	.st22{fill:#CCBC2B;}
	.st23{fill:url(#SVGID_6_);}
	.st24{fill:url(#SVGID_7_);}
	.st25{fill:url(#SVGID_8_);}
	.st26{fill:url(#SVGID_9_);}
	.st27{fill:#66CC33;}
	.st28{fill:#127F4B;}
</style>
<g id="outline" class="st0">
	<path class="st1" d="M875.33,599.4c0.06,0.12,0.12,0.25,0.18,0.37c-0.33-0.66-0.66-1.32-1-1.97
		C874.79,598.33,875.06,598.86,875.33,599.4z"/>
	<path class="st1" d="M875.33,599.4c0.06,0.12,0.12,0.25,0.18,0.37c-0.33-0.66-0.66-1.32-1-1.97
		C874.79,598.33,875.06,598.86,875.33,599.4z"/>
	<path class="st2" d="M963.14,168.7c0,0.04-0.01,0.08-0.02,0.12c-0.01,0-0.01,0.01-0.02,0.01
		C963.12,168.79,963.13,168.74,963.14,168.7z"/>
	<path class="st1" d="M875.33,599.4c0.06,0.12,0.12,0.25,0.18,0.37c-0.33-0.66-0.66-1.32-1-1.97
		C874.79,598.33,875.06,598.86,875.33,599.4z"/>
	<path class="st3" d="M645.17,654.37c0.72,5.25,1.69,10.42,2.9,15.49c-2.99-9.84-4.58-20.23-4.58-30.98c0-2,0.05-3.99,0.16-5.96
		c0.01,3.56,0.14,7.15,0.4,10.74c0,0,0,0.01,0,0.02C644.31,647.22,644.68,650.8,645.17,654.37z"/>
	<path class="st3" d="M924.48,807.1c-0.65,0.24-1.31,0.46-1.99,0.65c0.16-0.03,0.33-0.07,0.49-0.11c3.64-1.22,7.23-2.58,10.76-4.08
		c2.35-0.98,4.68-2.02,6.97-3.14C935.41,802.93,929.99,805.04,924.48,807.1z"/>
	<path class="st4" d="M1044.91,626.67c0,66.71-31.31,125.25-78.4,158.26c-1.28,0.94-2.58,1.86-3.88,2.76
		c-0.64,0.45-1.28,0.89-1.93,1.33c-0.22,0.14-0.45,0.29-0.67,0.45c-0.46,0.3-0.91,0.6-1.37,0.89c-0.47,0.3-0.93,0.61-1.4,0.9
		c-0.98,0.62-1.96,1.22-2.95,1.82c-0.54,0.33-1.08,0.66-1.63,0.97c-0.67,0.4-1.36,0.8-2.04,1.18c-0.68,0.39-1.38,0.78-2.06,1.15
		c-0.61,0.33-1.22,0.67-1.83,1c-0.18,0.09-0.36,0.18-0.54,0.27c-0.59,0.32-1.18,0.63-1.78,0.93c-0.64,0.33-1.28,0.66-1.93,0.97
		c-0.59,0.29-1.19,0.59-1.78,0.86c-5.31,2.51-10.73,4.62-16.24,6.68c-0.65,0.24-1.31,0.46-1.99,0.65c-1.93,0.47-3.86,0.9-5.82,1.33
		c-0.38,0.08-0.74,0.15-1.12,0.23c-0.91,0.19-1.8,0.37-2.71,0.55c-2.01,0.4-4.02,0.78-6.02,1.12c-1.09,0.19-2.18,0.38-3.27,0.56
		c-0.48,0.08-0.95,0.15-1.42,0.22c-0.71,0.11-1.43,0.22-2.13,0.32c-1.23,0.19-2.48,0.36-3.71,0.54c-11.1,1.51-22.11,2.31-32.95,2.45
		c0.05,0,0.1,0.01,0.15,0.01c-10.28,0.08-20.4-0.43-30.34-1.5c-41.71-4.49-82.6-18.94-116.33-43.77
		c-31.36-23.09-55.82-55.17-66.7-92.42c-0.81-2.74-1.53-5.49-2.17-8.25c-9.9-42.31-1.74-86.82,20.64-124.26
		c2.52-4.21,5.2-8.35,8.06-12.41c-1.06,1.95-2.07,3.94-3.04,5.95c-4.92,10.25-8.58,21.07-10.92,32.15v0.01
		c0,0.02-0.01,0.04-0.02,0.06v0.01c-0.69,3.3-1.27,6.61-1.73,9.95c-1.04,7.56-1.46,15.21-1.22,22.86c0.29,9.51,1.53,19,3.68,28.27
		c4.45,19.31,12.71,37.32,23.9,53.25c16.12,22.92,38.35,41.51,64.27,53.5c42.41,19.61,95.7,25.59,138.74,4.39
		c19.66-9.68,35.27-23.95,47.69-41.11c4.26-5.88,8.14-12.1,11.68-18.58c5.71-10.47,10.5-21.32,14.02-32.49
		c4.11-13.03,6.54-26.51,6.84-40.41c0.03-1.46,0.04-2.92,0.02-4.36c-0.16-24.11-6.09-48.26-17.61-69.49
		c-19.17-35.39-54.59-60.42-92.91-72.27c-3.28-1.02-6.59-1.94-9.92-2.75c-12.1-12-20.03-28.68-26.61-43.79
		c-8.94-20.47-13.43-42.96-13.43-65.21c0-4.75,0.2-9.46,0.6-14.13c3.38-39.33,21.38-76.09,48.18-105.16
		c27.54-29.87,63.2-51.33,101.84-64.12c0.01-0.01,0.01-0.01,0.02-0.01c0.43-0.15,0.87-0.29,1.29-0.43
		c-0.54,0.56-1.09,1.11-1.64,1.67c-3.63,3.68-7.32,7.25-10.95,10.85c-4.18,4.15-8.28,8.36-12.16,12.83
		c-0.01,0.01-0.02,0.02-0.02,0.03c-5.48,6.87-10.47,14.14-14.91,21.71c-7.94,13.5-14.19,28.02-18.51,43.07
		c-0.02,0.07-0.04,0.13-0.06,0.2c-1.42,4.95-2.63,9.96-3.62,15.01c-0.01,0.01-0.01,0.01-0.01,0.02c-0.33,1.83-0.63,3.67-0.9,5.52
		c-0.02,0.18-0.05,0.36-0.08,0.56c-0.16,1.12-0.31,2.25-0.45,3.37c-0.57,4.64-0.96,9.28-1.16,13.93c-0.06,1.31-0.1,2.61-0.13,3.93
		c-0.05,2.05-0.06,4.12-0.03,6.18c0.19,13.84,2.15,27.4,5.77,40.56c0.19,0.73,0.4,1.46,0.61,2.19c0.21,0.73,0.43,1.45,0.65,2.18
		c0.21,0.73,0.44,1.45,0.67,2.18c0.28,0.87,0.56,1.73,0.85,2.59c0.32,0.92,0.63,1.83,0.96,2.74c0.22,0.64,0.46,1.28,0.69,1.91
		c0.06,0.16,0.11,0.31,0.18,0.48c0.27,0.74,0.55,1.48,0.84,2.21c0.31,0.79,0.62,1.58,0.94,2.36c0.18,0.46,0.37,0.91,0.56,1.36
		c0.32,0.77,0.64,1.54,0.98,2.3c0.45,1.06,0.92,2.11,1.4,3.15c0.01,0.04,0.03,0.07,0.04,0.1c0.44,0.96,0.89,1.91,1.35,2.86
		c0.07,0.15,0.14,0.3,0.22,0.46c0.45,0.94,0.91,1.87,1.38,2.8c0.02,0.04,0.04,0.08,0.06,0.11c0.53,1.05,1.07,2.1,1.62,3.13
		c0.28,0.52,0.54,1.03,0.83,1.55c0.28,0.52,0.56,1.02,0.85,1.54c1.02,1.83,2.07,3.65,3.16,5.47c0.52,0.88,1.06,1.75,1.59,2.61
		c0.03,0.04,0.06,0.09,0.09,0.14c0.02,0.03,0.04,0.07,0.06,0.1c0.04,0.06,0.08,0.12,0.11,0.18l1.5,2.34
		c0.39,0.61,0.78,1.2,1.18,1.81c0.41,0.62,0.83,1.23,1.25,1.85c0.35,0.52,0.69,1.03,1.05,1.54c0.9,1.3,1.81,2.58,2.76,3.86
		c0.43,0.6,0.87,1.18,1.3,1.77c7.13,9.54,15.63,17.46,23.51,26.3c0.04,0.04,0.13,0.15,0.3,0.33c0.04,0.04,0.08,0.09,0.12,0.14
		c0.29,0.31,0.7,0.79,1.23,1.4c0.09,0.1,0.19,0.21,0.29,0.32c0.19,0.22,0.41,0.48,0.64,0.74c0.32,0.35,0.65,0.75,1.01,1.16
		c0.6,0.69,1.26,1.47,2,2.32c0.3,0.34,0.59,0.7,0.91,1.06c0.15,0.18,0.31,0.36,0.47,0.56c0.32,0.37,0.65,0.77,0.99,1.16
		c0.16,0.2,0.34,0.4,0.51,0.61c0.34,0.4,0.69,0.83,1.06,1.27c0.54,0.66,1.11,1.34,1.69,2.03c0.3,0.35,0.59,0.72,0.91,1.09
		c0.37,0.46,0.75,0.92,1.14,1.4c0.22,0.27,0.46,0.56,0.68,0.84c0.31,0.36,0.6,0.73,0.91,1.1c0.44,0.54,0.87,1.07,1.3,1.61
		c0.81,1,1.64,2.04,2.5,3.12c0.22,0.28,0.45,0.56,0.67,0.84c0.22,0.28,0.45,0.58,0.68,0.86c0.02,0.03,0.05,0.06,0.07,0.09
		c0.1,0.13,0.21,0.26,0.32,0.4c0.42,0.53,0.85,1.07,1.27,1.61c0.48,0.62,0.96,1.23,1.45,1.85c0.48,0.63,0.97,1.26,1.47,1.89
		c2.47,3.19,5.01,6.56,7.59,10.06c0.52,0.7,1.03,1.41,1.55,2.12c1.09,1.49,2.18,3,3.26,4.51c0.6,0.85,1.21,1.7,1.8,2.55
		c0.31,0.44,0.61,0.86,0.91,1.29c0.3,0.44,0.6,0.86,0.9,1.3c0.6,0.86,1.2,1.73,1.79,2.61c0.6,0.87,1.2,1.75,1.78,2.63
		c0.6,0.88,1.19,1.77,1.77,2.65c1.17,1.77,2.33,3.56,3.48,5.36c0.58,0.9,1.14,1.8,1.7,2.7c0.57,0.9,1.13,1.8,1.67,2.71
		c0.29,0.45,0.56,0.9,0.83,1.36c0.83,1.36,1.63,2.71,2.42,4.08c0.27,0.46,0.53,0.91,0.78,1.37c0.4,0.68,0.78,1.36,1.16,2.03
		c0.19,0.34,0.38,0.69,0.57,1.02c0.19,0.33,0.38,0.68,0.56,1.02c1.04,1.87,2.03,3.76,2.99,5.62c0.43,0.84,0.85,1.67,1.25,2.49
		c0.28,0.56,0.55,1.1,0.81,1.65c0.03,0.05,0.05,0.09,0.07,0.14c0.03,0.06,0.06,0.13,0.09,0.19c0.2,0.43,0.41,0.85,0.6,1.27
		c0.37,0.77,0.72,1.54,1.06,2.3c0.32,0.7,0.62,1.39,0.92,2.08c0.02,0.06,0.05,0.11,0.07,0.17c0.03,0.06,0.06,0.12,0.08,0.18
		c0.3,0.67,0.57,1.34,0.85,1.99c0.08,0.21,0.16,0.42,0.25,0.62c0.23,0.59,0.47,1.17,0.69,1.75c0.21,0.54,0.42,1.07,0.61,1.61
		c0.18,0.48,0.36,0.95,0.52,1.42c0.37,1,0.7,1.99,1.02,2.99c0.11,0.32,0.21,0.64,0.31,0.95c0.02,0.06,0.04,0.12,0.06,0.18
		c0.03,0.11,0.07,0.22,0.1,0.33c0.03,0.09,0.05,0.18,0.08,0.27c0.06,0.22,0.13,0.46,0.2,0.68c0.07,0.23,0.13,0.46,0.19,0.68
		c0.17,0.58,0.33,1.15,0.48,1.73c3.43,8.07,6.36,16.45,8.72,25.1c0.09,0.29,0.17,0.58,0.24,0.87
		C1042.42,589.73,1044.91,607.87,1044.91,626.67z"/>
	<path class="st5" d="M970.56,605.93c0.02,1.45,0.01,2.91-0.02,4.36c-0.3,13.9-2.73,27.38-6.84,40.41
		c-3.53,11.17-8.32,22.03-14.02,32.49c-3.54,6.49-7.42,12.7-11.68,18.58c-12.41,17.16-28.03,31.43-47.69,41.11
		c-43.04,21.2-96.33,15.21-138.74-4.39c-25.92-11.98-48.14-30.58-64.27-53.5c-11.19-15.93-19.45-33.94-23.9-53.25
		c-2.15-9.27-3.39-18.76-3.68-28.27c-0.23-7.64,0.18-15.29,1.22-22.86c0.46-3.34,1.04-6.65,1.73-9.95v-0.01
		c0.01-0.02,0.02-0.04,0.02-0.06v-0.01c2.33-11.07,5.99-21.89,10.92-32.15c0.97-2.01,1.98-4,3.04-5.95
		c5.25-9.71,11.65-18.73,18.98-26.91c0-0.01,0.01-0.02,0.02-0.03c22.51-25.16,53.8-42.43,87.63-47.37
		c20.89-3.06,42.42-2.28,63.01,2.34c1.28,0.28,2.56,0.59,3.83,0.91c3.32,0.81,6.63,1.73,9.92,2.75
		c38.32,11.85,73.74,36.89,92.91,72.27C964.46,557.66,970.39,581.81,970.56,605.93z"/>
	<path class="st1" d="M1026.19,549.8c-0.09-0.35-0.17-0.71-0.29-1.06"/>
	<path class="st6" d="M1099.9,608.63c-4.03,42.97-19.07,83.69-43.05,118.14c-12.2,14.66-26.69,27.98-43.08,39.53
		c-9.88,7.19-20.31,13.61-31.17,19.25c-11.27,5.85-22.99,10.85-35.02,14.97c-9.97,3.42-20.11,6.87-30.47,8.97
		c-6.08,1.25-12.28,2.29-18.56,3.14c-11.2,1.51-22.3,2.31-33.24,2.45c-0.58,0.01-1.17,0.02-1.75,0.01h-0.06
		c-0.05,0-0.1-0.01-0.15-0.01c10.84-0.14,21.85-0.94,32.95-2.45c1.23-0.17,2.48-0.34,3.71-0.54c0.71-0.1,1.42-0.2,2.13-0.32
		c0.47-0.07,0.94-0.14,1.42-0.22c1.09-0.17,2.18-0.36,3.27-0.56c2.01-0.34,4.02-0.72,6.02-1.12c0.91-0.17,1.8-0.35,2.71-0.55
		c0.38-0.08,0.74-0.15,1.12-0.23c1.95-0.39,3.91-0.77,5.82-1.33c0.16-0.03,0.33-0.07,0.49-0.11c3.64-1.22,7.23-2.58,10.76-4.08
		c2.35-0.98,4.68-2.02,6.97-3.14c0.59-0.27,1.19-0.57,1.78-0.86c0.16-0.07,0.32-0.15,0.48-0.23c0.49-0.24,0.97-0.49,1.45-0.74
		c0.6-0.3,1.19-0.61,1.78-0.93c0.18-0.09,0.36-0.18,0.54-0.27c0.61-0.33,1.22-0.67,1.83-1c0.68-0.37,1.38-0.76,2.06-1.15
		c0.68-0.38,1.37-0.78,2.04-1.18c0.55-0.31,1.09-0.64,1.63-0.97c0.99-0.6,1.97-1.2,2.95-1.82c0.47-0.29,0.93-0.6,1.4-0.9
		c0.46-0.29,0.91-0.59,1.37-0.89c0.22-0.15,0.45-0.3,0.67-0.45c0.64-0.44,1.28-0.88,1.93-1.33c1.3-0.9,2.6-1.82,3.88-2.76
		c47.1-33.01,78.4-91.56,78.4-158.26c0-18.8-2.49-36.94-7.11-54.04c-0.07-0.29-0.15-0.58-0.24-0.87c-2.36-8.65-5.29-17.04-8.72-25.1
		c-0.15-0.58-0.31-1.15-0.48-1.73c-0.06-0.22-0.12-0.45-0.19-0.68c-0.07-0.22-0.14-0.46-0.2-0.68c-0.03-0.09-0.05-0.18-0.08-0.27
		c-0.03-0.11-0.07-0.22-0.1-0.33c-0.02-0.06-0.04-0.12-0.06-0.18c-0.09-0.31-0.19-0.63-0.31-0.95c-0.32-0.99-0.65-1.98-1.02-2.99
		c-0.16-0.47-0.34-0.94-0.52-1.42c-0.19-0.54-0.4-1.07-0.61-1.61c-0.22-0.58-0.46-1.16-0.69-1.75c-0.09-0.2-0.17-0.4-0.25-0.62
		c-0.28-0.66-0.55-1.33-0.85-1.99c-0.02-0.06-0.05-0.12-0.08-0.18c-0.02-0.06-0.05-0.11-0.07-0.17c-0.3-0.69-0.6-1.38-0.92-2.08
		c-0.34-0.76-0.69-1.53-1.06-2.3c-0.19-0.42-0.4-0.84-0.6-1.27c-0.03-0.06-0.06-0.13-0.09-0.19c-0.02-0.05-0.04-0.09-0.07-0.14
		c-0.25-0.55-0.53-1.09-0.81-1.65c-0.41-0.82-0.83-1.65-1.25-2.49c-0.96-1.86-1.95-3.75-2.99-5.62c-0.18-0.34-0.37-0.69-0.56-1.02
		c-0.19-0.33-0.38-0.68-0.57-1.02c-0.38-0.68-0.76-1.36-1.16-2.03c-0.25-0.46-0.52-0.91-0.78-1.37c-0.78-1.37-1.59-2.72-2.42-4.08
		c-0.26-0.46-0.54-0.91-0.83-1.36c-0.54-0.91-1.1-1.81-1.67-2.71c-0.56-0.9-1.12-1.8-1.7-2.7c-1.14-1.8-2.3-3.59-3.48-5.36
		c-0.58-0.88-1.17-1.77-1.77-2.65c-0.58-0.88-1.18-1.76-1.78-2.63c-0.59-0.88-1.19-1.75-1.79-2.61c-0.3-0.44-0.6-0.86-0.9-1.3
		c-0.3-0.43-0.6-0.85-0.91-1.29c-0.59-0.85-1.2-1.7-1.8-2.55c-1.08-1.52-2.17-3.03-3.26-4.51c-0.52-0.71-1.03-1.42-1.55-2.12
		c-2.58-3.5-5.13-6.87-7.59-10.06c-0.5-0.64-0.99-1.27-1.47-1.89c-0.49-0.62-0.97-1.23-1.45-1.85c-0.43-0.54-0.86-1.08-1.27-1.61
		c-0.1-0.14-0.21-0.27-0.32-0.4c-0.02-0.03-0.05-0.06-0.07-0.09c-0.23-0.28-0.46-0.58-0.68-0.86c-0.22-0.28-0.45-0.56-0.67-0.84
		c-0.86-1.07-1.69-2.12-2.5-3.12c-0.44-0.54-0.87-1.07-1.3-1.61c-0.31-0.37-0.6-0.74-0.91-1.1c-0.22-0.28-0.46-0.57-0.68-0.84
		c-0.39-0.48-0.77-0.94-1.14-1.4c-0.32-0.37-0.61-0.74-0.91-1.09c-0.58-0.7-1.15-1.38-1.69-2.03c-0.37-0.44-0.72-0.86-1.06-1.27
		c-0.17-0.2-0.35-0.4-0.51-0.61c-0.34-0.39-0.67-0.79-0.99-1.16c-0.16-0.19-0.32-0.37-0.47-0.56c-0.32-0.36-0.61-0.72-0.91-1.06
		c-0.73-0.85-1.4-1.63-2-2.32c-0.36-0.42-0.69-0.81-1.01-1.16c-0.23-0.26-0.45-0.52-0.64-0.74c-0.09-0.11-0.19-0.22-0.29-0.32
		c-0.53-0.61-0.95-1.08-1.23-1.4c-0.04-0.05-0.08-0.1-0.12-0.14c-0.16-0.18-0.25-0.29-0.3-0.33c-7.88-8.84-16.38-16.76-23.51-26.3
		c-0.44-0.59-0.88-1.17-1.3-1.77c-0.95-1.28-1.86-2.56-2.76-3.86c-0.36-0.51-0.7-1.02-1.05-1.54c-0.43-0.62-0.85-1.23-1.25-1.85
		c-0.4-0.61-0.79-1.2-1.18-1.81l-1.5-2.34c-0.03-0.06-0.07-0.12-0.11-0.18c-0.02-0.03-0.04-0.07-0.06-0.1
		c-0.03-0.05-0.06-0.1-0.09-0.14c-0.53-0.86-1.07-1.73-1.59-2.61c-1.09-1.81-2.14-3.63-3.16-5.47c-0.29-0.52-0.57-1.02-0.85-1.54
		c-0.29-0.52-0.55-1.03-0.83-1.55c-0.55-1.03-1.09-2.08-1.62-3.13c-0.02-0.03-0.04-0.07-0.06-0.11c-0.47-0.93-0.93-1.86-1.38-2.8
		c-0.08-0.15-0.15-0.3-0.22-0.46c-0.46-0.95-0.91-1.9-1.35-2.86c-0.01-0.03-0.03-0.06-0.04-0.1c-0.48-1.04-0.95-2.09-1.4-3.15
		c-0.34-0.76-0.66-1.53-0.98-2.3c-0.19-0.45-0.38-0.9-0.56-1.36c-0.32-0.78-0.63-1.57-0.94-2.36c-0.29-0.73-0.57-1.47-0.84-2.21
		c-0.07-0.16-0.12-0.31-0.18-0.48c-0.23-0.64-0.47-1.28-0.69-1.91c-0.33-0.91-0.64-1.82-0.96-2.74c-0.29-0.86-0.57-1.72-0.85-2.59
		c-0.23-0.73-0.46-1.45-0.67-2.18c-0.22-0.73-0.44-1.45-0.65-2.18c-0.21-0.73-0.42-1.46-0.61-2.19
		c-3.62-13.16-5.57-26.72-5.77-40.56c-0.03-2.06-0.02-4.13,0.03-6.18c0.03-1.32,0.07-2.62,0.13-3.93c0.2-4.65,0.59-9.29,1.16-13.93
		c0.14-1.12,0.3-2.25,0.45-3.37c0.03-0.19,0.06-0.37,0.08-0.56c0.28-1.85,0.58-3.69,0.91-5.54c0.99-5.05,2.2-10.06,3.62-15.01
		c0.02-0.07,0.04-0.13,0.06-0.2c4.32-15.05,10.57-29.57,18.51-43.07c4.44-7.57,9.43-14.84,14.91-21.71c0-0.01,0.01-0.02,0.02-0.03
		c3.88-4.47,7.98-8.68,12.16-12.83c3.63-3.6,7.32-7.17,10.95-10.85c0.55-0.56,1.1-1.11,1.64-1.67c0.01,0,0.01-0.01,0.02-0.01
		c0.01-0.01,0.02-0.02,0.03-0.02c0.04-0.02,0.07-0.02,0.11-0.04c0.02,0,0.05-0.01,0.07-0.02c0.07-0.02,0.13-0.04,0.19-0.07
		c0.01-0.01,0.01-0.02,0.02-0.03c0.3-0.09,0.58-0.21,0.83-0.35c0.01-0.01,0.03-0.02,0.04-0.02c-0.02,0.05-0.03,0.11-0.04,0.16
		c0,0,0-0.01,0.01-0.01c-0.03,0.08-0.05,0.15-0.07,0.23c-0.02,0.04-0.03,0.08-0.04,0.12c-0.02,0.06-0.04,0.13-0.05,0.19
		c-0.01,0.04-0.02,0.09-0.04,0.13c-5.02,17.68-8.9,34.86-8.9,53.46c0,25.22,6.92,49.76,16.86,72.81c2.76,6.38,5.74,12.66,8.86,18.88
		c1.57,3.12,3.26,6.17,4.91,9.24c1.57,2.91,2.87,5.87,4.4,8.78c2.76,4.58,5.02,9.56,7.51,14.29c1.85,3.54,3.85,7.01,5.88,10.48
		c1.98,3.37,4.34,6.46,6.4,9.79c1.25,2.03,2.39,4.14,3.63,6.2c4.74,7.93,9.58,15.78,14.47,23.62c7.58,12.14,15.17,24.27,22.75,36.41
		c7.58,12.14,15.17,24.27,22.76,36.41c6.84,10.95,11.4,23.69,15.42,35.93c0.59,1.78,1.15,3.57,1.7,5.37
		c3.61,11.77,6.32,23.6,8.16,35.41C1101.24,567.04,1101.84,588.09,1099.9,608.63z"/>
	<path class="st6" d="M940.72,800.42c-2.29,1.11-4.62,2.16-6.97,3.14c-3.54,1.5-7.12,2.85-10.76,4.08
		c-0.16,0.04-0.33,0.08-0.49,0.11c0.67-0.19,1.34-0.4,1.99-0.65C929.99,805.04,935.41,802.93,940.72,800.42z"/>
	<g class="st7">
		<g>
			<path class="st8" d="M863.57,602.18c2.31,0.26,4.63,0.51,6.94,0.77c1.13,0.13,2.27,0.25,3.4,0.38c1.16,0.13,2.29,0.33,3.16-0.64
				c0.68-0.76,0.87-2.05,1.11-3.02c0.27-1.09,0.58-2.26,0.65-3.39c0.09-1.3-0.89-1.91-1.98-2.28c-1.02-0.35-2.49-0.78-3.38,0.08
				c-0.91,0.87-0.66,2.38-0.62,3.52c0.04,1.16,0.07,2.97,1.59,3.18c0.8,0.11,1.61-0.2,1.85-1.05c0.19-0.7-0.24-1.73-1.05-1.85
				c0.04,0.02,0.07,0.04,0.11,0.06c0.18,0.18,0.36,0.36,0.54,0.54c0.01,0.06,0.01,0.12,0.01,0.18c-0.01-0.18-0.02-0.35-0.03-0.53
				c-0.01-0.31-0.02-0.62-0.03-0.93c-0.01-0.31-0.01-0.62-0.01-0.93c0-0.33-0.03-0.45,0.04-0.61c-0.13,0.22-0.26,0.44-0.39,0.66
				c0.04-0.04,0.07-0.08,0.11-0.11c-0.22,0.13-0.44,0.26-0.66,0.39c-0.06,0.03-0.18-0.08,0.05,0.02c0.17,0.07,0.42,0.09,0.6,0.14
				c0.16,0.04,0.31,0.1,0.47,0.14c0.42,0.11,0.24,0.12,0.16,0.03c-0.13-0.22-0.26-0.44-0.39-0.66c-0.01-0.03,0.04-0.09,0-0.04
				c-0.07,0.11-0.06,0.37-0.09,0.51c-0.06,0.34-0.13,0.67-0.2,1.01c-0.15,0.71-0.33,1.42-0.52,2.12c-0.06,0.22-0.33,0.74-0.28,0.95
				c-0.07,0.18-0.01,0.14,0.21-0.12c0.12-0.04,0.2-0.12,0.24-0.22c-0.01-0.03-0.28-0.04-0.33-0.05c-0.77-0.08-1.54-0.17-2.31-0.26
				c-3-0.33-5.99-0.67-8.99-1c-0.81-0.09-1.5,0.75-1.5,1.5C862.07,601.56,862.76,602.09,863.57,602.18L863.57,602.18z"/>
		</g>
	</g>
</g>
<g id="music" class="st0">
	<path class="st9" d="M952.53,510.47c-0.84,4.2-2.24,8.13-4.35,11.6c-0.9-3.39-2.21-7.12-3.39-10.26c-1.14-3.67-2.37-7.02-2.81-8.31
		c-2.64-7.72-6.36-15.07-10.97-21.79c-7.2-10.51-16.61-19.54-27.54-26.12c-3.05-1.83-6.22-3.47-9.49-4.9
		c0.49,35.69,0.98,71.38,1.47,107.07c0.4,29.02,3.94,62.68-12.91,88.14c-2.82,4.27-6.17,8.13-9.93,11.57
		c-9.95,9.11-22.75,15.22-36.07,17.8c-13.53,2.62-27.91,1.77-40.59-3.67c-12.67-5.44-23.46-15.67-28.41-28.55
		c-5.03-13.12-3.71-28.25,2.34-40.94c4.64-9.74,11.82-18.06,20.42-24.51c6.1-4.6,12.92-8.24,20.06-10.81
		c8.68-3.12,17.92-4.71,27.14-4.75h0.95c2.54,0.02,22.51,1.45,27.05,4.16c0,0,0-202.08,0-202.08c0-5.32-0.08-10.64-0.16-15.96
		c-0.02-1.41-0.03-2.81-0.05-4.22c1.19,2.29,2.37,4.58,3.56,6.87c16.58,31.91,38.92,58.46,60.54,86.85
		C945.34,458.61,957.89,483.45,952.53,510.47z"/>
</g>
<g id="outline-final" class="st0">
	<path class="st1" d="M875.51,599.77c-0.33-0.66-0.66-1.32-1-1.97c0.28,0.53,0.55,1.06,0.82,1.6
		C875.39,599.52,875.45,599.65,875.51,599.77z"/>
	<path class="st1" d="M875.51,599.77c-0.33-0.66-0.66-1.32-1-1.97c0.28,0.53,0.55,1.06,0.82,1.6
		C875.39,599.52,875.45,599.65,875.51,599.77z"/>
	<path class="st2" d="M963.14,168.7c0,0.04-0.01,0.08-0.02,0.12c-0.01,0-0.01,0.01-0.02,0.01
		C963.12,168.79,963.13,168.74,963.14,168.7z"/>
	<path class="st1" d="M875.51,599.77c-0.33-0.66-0.66-1.32-1-1.97c0.28,0.53,0.55,1.06,0.82,1.6
		C875.39,599.52,875.45,599.65,875.51,599.77z"/>
	<path class="st3" d="M645.17,654.37c0.72,5.25,1.69,10.42,2.9,15.49c-2.99-9.84-4.58-20.23-4.58-30.98c0-2,0.05-3.99,0.16-5.96
		c0.01,3.56,0.14,7.15,0.4,10.74c0,0,0,0.01,0,0.02C644.31,647.22,644.68,650.8,645.17,654.37z"/>
	<path class="st3" d="M924.48,807.1c-0.65,0.25-1.31,0.46-1.99,0.65c0.17-0.03,0.33-0.07,0.49-0.11c3.64-1.22,7.23-2.58,10.77-4.08
		c2.35-0.98,4.67-2.02,6.97-3.14C935.41,802.93,929.99,805.04,924.48,807.1z"/>
	<path class="st10" d="M1044.91,626.67c0,66.7-31.31,125.25-78.41,158.26c-1.28,0.94-2.58,1.86-3.88,2.76
		c-0.64,0.44-1.29,0.89-1.93,1.33c-0.22,0.14-0.45,0.29-0.67,0.44c-0.46,0.3-0.91,0.6-1.37,0.89c-0.46,0.31-0.92,0.61-1.39,0.9
		c-0.98,0.62-1.96,1.23-2.95,1.82c-0.54,0.34-1.08,0.66-1.63,0.98c-0.67,0.4-1.35,0.8-2.04,1.18c-0.68,0.4-1.37,0.78-2.06,1.15
		c-0.61,0.34-1.22,0.67-1.83,1.01c-0.18,0.09-0.36,0.18-0.54,0.27c-0.59,0.32-1.18,0.63-1.78,0.93c-0.32,0.17-0.64,0.33-0.97,0.49
		c-0.32,0.16-0.64,0.32-0.96,0.48c-0.59,0.3-1.19,0.59-1.78,0.86c-5.31,2.51-10.73,4.62-16.24,6.68c-0.65,0.25-1.31,0.46-1.99,0.65
		c-1.92,0.47-3.86,0.9-5.82,1.33c-0.37,0.08-0.74,0.15-1.12,0.23c-0.9,0.19-1.8,0.37-2.71,0.55c-2,0.4-4.01,0.78-6.02,1.12
		c-1.09,0.19-2.18,0.39-3.27,0.56c-0.48,0.08-0.95,0.15-1.42,0.22c-0.71,0.11-1.43,0.22-2.13,0.32c-1.23,0.2-2.47,0.37-3.71,0.54
		c-11.1,1.51-22.1,2.31-32.95,2.45c0.05,0,0.1,0.01,0.16,0.01c-10.29,0.08-20.41-0.43-30.34-1.5
		c-41.72-4.49-82.61-18.94-116.33-43.77c-31.36-23.09-55.82-55.16-66.71-92.41c-0.8-2.74-1.52-5.49-2.17-8.25
		c-9.89-42.31-1.74-86.82,20.64-124.26c2.52-4.21,5.2-8.35,8.06-12.41c-1.06,1.95-2.07,3.94-3.03,5.95
		c-4.93,10.25-8.59,21.08-10.92,32.15v0.01c0,0.02-0.01,0.04-0.02,0.06v0.01c-0.69,3.3-1.27,6.61-1.73,9.95
		c-1.04,7.56-1.46,15.21-1.23,22.86c0.29,9.51,1.53,19,3.68,28.27c4.46,19.31,12.71,37.32,23.9,53.25
		c16.13,22.92,38.35,41.51,64.27,53.5c42.41,19.6,95.7,25.58,138.74,4.39c19.66-9.68,35.27-23.95,47.69-41.11
		c4.26-5.88,8.14-12.09,11.68-18.58c5.7-10.47,10.49-21.32,14.02-32.49c4.11-13.03,6.54-26.51,6.84-40.41
		c0.03-1.46,0.04-2.92,0.02-4.36c-0.17-24.12-6.1-48.27-17.61-69.49c-13.24-24.44-34.23-43.95-58.58-57.58
		c-0.13-9.39-0.26-18.78-0.39-28.17c3.27,1.43,6.44,3.07,9.49,4.9c10.93,6.58,20.34,15.61,27.54,26.12
		c4.61,6.72,8.33,14.07,10.97,21.79c0.44,1.29,1.67,4.64,2.81,8.31c1.18,3.14,2.49,6.87,3.39,10.26c2.11-3.47,3.51-7.4,4.35-11.6
		c5.36-27.02-7.19-51.86-23.14-72.81c-21.62-28.39-43.96-54.94-60.54-86.85c-1.19-2.29-2.37-4.58-3.56-6.87
		c0.02,1.41,0.03,2.81,0.05,4.22c0.08,5.32,0.16,10.64,0.16,15.96v101.84c-1.81-0.64-3.63-1.23-5.46-1.8
		c-3.28-1.02-6.59-1.94-9.92-2.75c-12.09-12-20.02-28.67-26.61-43.79c-8.93-20.46-13.43-42.96-13.43-65.2
		c0-4.75,0.21-9.47,0.6-14.13c3.39-39.34,21.38-76.09,48.18-105.16c27.54-29.87,63.2-51.33,101.84-64.13
		c0.01-0.01,0.01-0.01,0.02-0.01c0.43-0.15,0.87-0.29,1.3-0.42c-0.54,0.55-1.09,1.11-1.64,1.67c-3.63,3.68-7.32,7.24-10.95,10.85
		c-4.18,4.15-8.27,8.36-12.16,12.83c-0.01,0.01-0.02,0.02-0.02,0.03c-5.48,6.88-10.46,14.14-14.91,21.72
		c-7.94,13.5-14.19,28.01-18.51,43.07c-0.02,0.07-0.04,0.13-0.06,0.2c-1.41,4.95-2.63,9.96-3.62,15.01
		c-0.01,0.01-0.01,0.01-0.01,0.02c-0.32,1.83-0.63,3.67-0.89,5.52c-0.02,0.18-0.05,0.36-0.08,0.55c-0.17,1.13-0.31,2.25-0.45,3.37
		c-0.57,4.64-0.96,9.29-1.16,13.93c-0.07,1.31-0.11,2.61-0.14,3.93c-0.05,2.05-0.06,4.12-0.03,6.18c0.2,13.84,2.15,27.4,5.77,40.56
		c0.19,0.73,0.4,1.46,0.61,2.19c0.22,0.73,0.43,1.45,0.65,2.18c0.22,0.72,0.44,1.44,0.68,2.17c0.27,0.87,0.56,1.73,0.84,2.59
		c0.32,0.92,0.64,1.83,0.96,2.75c0.23,0.63,0.46,1.27,0.69,1.91c0.07,0.16,0.12,0.31,0.19,0.47c0.26,0.74,0.55,1.48,0.83,2.21
		c0.31,0.79,0.63,1.58,0.94,2.36c0.18,0.46,0.37,0.91,0.56,1.36c0.32,0.77,0.64,1.53,0.98,2.29c0.45,1.07,0.92,2.11,1.4,3.15
		c0.01,0.04,0.03,0.07,0.04,0.1c0.44,0.96,0.88,1.92,1.34,2.87c0.07,0.15,0.14,0.3,0.23,0.45c0.44,0.94,0.9,1.88,1.37,2.81
		c0.02,0.04,0.04,0.08,0.06,0.11c0.53,1.05,1.07,2.09,1.62,3.13c0.28,0.51,0.54,1.03,0.83,1.54c0.27,0.52,0.56,1.03,0.85,1.54
		c1.01,1.84,2.06,3.66,3.15,5.47c0.52,0.88,1.06,1.75,1.59,2.61c0.04,0.04,0.07,0.09,0.1,0.14c0.02,0.03,0.04,0.07,0.06,0.1
		c0.04,0.06,0.08,0.13,0.11,0.19l1.5,2.33c0.39,0.61,0.78,1.21,1.18,1.82c0.41,0.61,0.83,1.23,1.25,1.85
		c0.35,0.51,0.7,1.03,1.05,1.54c0.9,1.29,1.82,2.58,2.77,3.85c0.42,0.6,0.86,1.19,1.3,1.78c7.13,9.53,15.63,17.46,23.51,26.29
		c0.04,0.04,0.13,0.15,0.3,0.34c0.04,0.04,0.08,0.09,0.12,0.14c0.28,0.31,0.7,0.79,1.23,1.4c0.09,0.1,0.2,0.21,0.29,0.32
		c0.19,0.22,0.41,0.47,0.64,0.74c0.32,0.35,0.65,0.75,1.01,1.16c0.6,0.69,1.26,1.47,2,2.32c0.29,0.34,0.59,0.7,0.9,1.06
		c0.16,0.18,0.31,0.37,0.47,0.56c0.32,0.37,0.65,0.77,0.99,1.16c0.16,0.21,0.34,0.41,0.51,0.61c0.34,0.41,0.69,0.83,1.06,1.27
		c0.54,0.65,1.11,1.33,1.69,2.03c0.3,0.35,0.59,0.72,0.91,1.09c0.37,0.46,0.75,0.92,1.14,1.4c0.23,0.27,0.46,0.56,0.68,0.84
		c0.31,0.37,0.61,0.73,0.91,1.1c0.44,0.54,0.87,1.08,1.31,1.61c0.8,1.01,1.64,2.05,2.49,3.12c0.23,0.28,0.45,0.56,0.67,0.84
		c0.23,0.28,0.45,0.58,0.69,0.86c0.02,0.03,0.05,0.06,0.07,0.09c0.1,0.13,0.21,0.27,0.32,0.41c0.41,0.52,0.84,1.07,1.27,1.61
		c0.48,0.61,0.96,1.23,1.45,1.85c0.48,0.63,0.96,1.25,1.46,1.89c2.47,3.19,5.02,6.56,7.6,10.06c0.52,0.7,1.03,1.41,1.55,2.12
		c1.09,1.49,2.18,3,3.26,4.51c0.6,0.85,1.21,1.7,1.8,2.55c0.31,0.44,0.61,0.86,0.91,1.29c0.29,0.44,0.6,0.86,0.89,1.3
		c0.61,0.86,1.21,1.73,1.8,2.61c0.6,0.87,1.2,1.75,1.78,2.63c0.6,0.88,1.19,1.77,1.78,2.65c1.17,1.77,2.33,3.56,3.47,5.37
		c0.58,0.9,1.14,1.8,1.7,2.7c0.57,0.9,1.13,1.8,1.67,2.71c0.29,0.45,0.56,0.9,0.83,1.36c0.83,1.35,1.63,2.71,2.42,4.08
		c0.26,0.45,0.52,0.91,0.78,1.36c0.4,0.68,0.78,1.36,1.16,2.04c0.2,0.34,0.38,0.69,0.57,1.02c0.2,0.33,0.38,0.68,0.56,1.02
		c1.04,1.88,2.03,3.76,2.99,5.62c0.43,0.84,0.84,1.67,1.25,2.49c0.28,0.56,0.55,1.1,0.81,1.65c0.03,0.05,0.05,0.09,0.07,0.14
		c0.03,0.06,0.06,0.13,0.09,0.19c0.2,0.43,0.41,0.85,0.6,1.27c0.37,0.77,0.73,1.54,1.06,2.3c0.32,0.7,0.62,1.38,0.92,2.07
		c0.02,0.06,0.05,0.11,0.07,0.17c0.03,0.07,0.06,0.13,0.08,0.19c0.3,0.66,0.57,1.33,0.85,1.99c0.08,0.21,0.16,0.42,0.25,0.62
		c0.24,0.59,0.47,1.17,0.7,1.75c0.21,0.54,0.41,1.07,0.61,1.61c0.18,0.47,0.35,0.95,0.52,1.42c0.36,1,0.7,1.99,1.02,2.98
		c0.11,0.33,0.21,0.64,0.3,0.95c0.02,0.06,0.04,0.12,0.06,0.19c0.03,0.11,0.07,0.22,0.11,0.33c0.03,0.09,0.05,0.18,0.08,0.27
		c0.06,0.23,0.13,0.46,0.2,0.68c0.07,0.23,0.13,0.46,0.19,0.68c0.18,0.58,0.33,1.15,0.48,1.73c3.44,8.07,6.36,16.45,8.73,25.1
		c0.09,0.3,0.17,0.58,0.24,0.87C1042.42,589.73,1044.91,607.87,1044.91,626.67z"/>
	<path class="st5" d="M875.51,599.77c-0.33-0.66-0.66-1.32-1-1.97c0.28,0.53,0.55,1.06,0.82,1.6
		C875.39,599.52,875.45,599.65,875.51,599.77z"/>
	<path class="st5" d="M970.56,605.93c0.02,1.44,0.01,2.9-0.02,4.36c-0.3,13.9-2.73,27.38-6.84,40.41
		c-3.53,11.17-8.32,22.02-14.02,32.49c-3.54,6.49-7.42,12.7-11.68,18.58c-12.42,17.16-28.03,31.43-47.69,41.11
		c-43.04,21.19-96.33,15.21-138.74-4.39c-25.92-11.99-48.14-30.58-64.27-53.5c-11.19-15.93-19.44-33.94-23.9-53.25
		c-2.15-9.27-3.39-18.76-3.68-28.27c-0.23-7.65,0.19-15.3,1.23-22.86c0.46-3.34,1.04-6.65,1.73-9.95v-0.01
		c0.01-0.02,0.02-0.04,0.02-0.06v-0.01c2.33-11.07,5.99-21.9,10.92-32.15c0.96-2.01,1.97-4,3.03-5.95
		c5.25-9.71,11.65-18.73,18.98-26.92c0-0.01,0.01-0.02,0.02-0.03c22.51-25.16,53.8-42.43,87.63-47.37
		c20.89-3.05,42.41-2.28,63.01,2.34c1.29,0.28,2.56,0.59,3.83,0.91c3.33,0.81,6.64,1.73,9.92,2.75c1.83,0.57,3.65,1.16,5.46,1.8
		V566.2c-4.54-2.71-24.51-4.14-27.05-4.16h-0.95c-9.22,0.04-18.46,1.63-27.14,4.75c-7.14,2.57-13.96,6.21-20.06,10.81
		c-8.6,6.45-15.78,14.77-20.42,24.51c-6.05,12.69-7.37,27.82-2.34,40.94c4.95,12.88,15.74,23.11,28.41,28.55
		c12.68,5.44,27.06,6.29,40.59,3.67c13.32-2.58,26.12-8.69,36.07-17.8c3.76-3.44,7.11-7.3,9.93-11.57
		c16.85-25.46,13.31-59.12,12.91-88.14c-0.36-26.3-0.72-52.6-1.08-78.9c24.35,13.63,45.34,33.14,58.58,57.58
		C964.46,557.66,970.39,581.81,970.56,605.93z"/>
	<path class="st1" d="M1026.19,549.8c-0.09-0.35-0.17-0.71-0.29-1.06"/>
	<path class="st11" d="M1099.9,608.63c-4.03,42.97-19.07,83.69-43.05,118.13c-12.2,14.66-26.69,27.98-43.08,39.53
		c-9.88,7.19-20.31,13.62-31.17,19.25c-11.27,5.85-22.99,10.85-35.01,14.97c-9.97,3.43-20.11,6.88-30.48,8.97
		c-6.08,1.25-12.28,2.29-18.56,3.14c-11.2,1.51-22.29,2.31-33.24,2.45c-0.58,0.01-1.17,0.02-1.75,0.01h-0.06
		c-0.06,0-0.11-0.01-0.16-0.01c10.85-0.14,21.85-0.94,32.95-2.45c1.24-0.17,2.48-0.34,3.71-0.54c0.71-0.1,1.42-0.2,2.13-0.32
		c0.47-0.07,0.94-0.14,1.42-0.22c1.09-0.17,2.18-0.37,3.27-0.56c2.01-0.34,4.02-0.72,6.02-1.12c0.91-0.18,1.81-0.36,2.71-0.55
		c0.38-0.08,0.75-0.15,1.12-0.23c1.95-0.4,3.92-0.77,5.82-1.33c0.17-0.03,0.33-0.07,0.49-0.11c3.64-1.22,7.23-2.58,10.77-4.08
		c2.35-0.98,4.67-2.02,6.97-3.14c0.59-0.27,1.19-0.56,1.78-0.86c0.16-0.07,0.32-0.15,0.48-0.23c0.16-0.08,0.32-0.16,0.48-0.25
		c0.33-0.16,0.65-0.32,0.97-0.49c0.6-0.3,1.19-0.61,1.78-0.93c0.18-0.09,0.36-0.18,0.54-0.27c0.61-0.34,1.22-0.67,1.83-1.01
		c0.69-0.37,1.38-0.75,2.06-1.15c0.69-0.38,1.37-0.78,2.04-1.18c0.55-0.32,1.09-0.64,1.63-0.98c0.99-0.59,1.97-1.2,2.95-1.82
		c0.47-0.29,0.93-0.59,1.39-0.9c0.46-0.29,0.91-0.59,1.37-0.89c0.22-0.15,0.45-0.3,0.67-0.44c0.64-0.44,1.29-0.89,1.93-1.33
		c1.3-0.9,2.6-1.82,3.88-2.76c47.1-33.01,78.41-91.56,78.41-158.26c0-18.8-2.49-36.94-7.12-54.05c-0.07-0.29-0.15-0.57-0.24-0.87
		c-2.37-8.65-5.29-17.03-8.73-25.1c-0.15-0.58-0.3-1.15-0.48-1.73c-0.06-0.22-0.12-0.45-0.19-0.68c-0.07-0.22-0.14-0.45-0.2-0.68
		c-0.03-0.09-0.05-0.18-0.08-0.27c-0.04-0.11-0.08-0.22-0.11-0.33c-0.02-0.07-0.04-0.13-0.06-0.19c-0.09-0.31-0.19-0.62-0.3-0.95
		c-0.32-0.99-0.66-1.98-1.02-2.98c-0.17-0.47-0.34-0.95-0.52-1.42c-0.2-0.54-0.4-1.07-0.61-1.61c-0.23-0.58-0.46-1.16-0.7-1.75
		c-0.09-0.2-0.17-0.41-0.25-0.62c-0.28-0.66-0.55-1.33-0.85-1.99c-0.02-0.06-0.05-0.12-0.08-0.19c-0.02-0.06-0.05-0.11-0.07-0.17
		c-0.3-0.69-0.6-1.37-0.92-2.07c-0.33-0.76-0.69-1.53-1.06-2.3c-0.19-0.42-0.4-0.84-0.6-1.27c-0.03-0.06-0.06-0.13-0.09-0.19
		c-0.02-0.05-0.04-0.09-0.07-0.14c-0.26-0.55-0.53-1.09-0.81-1.65c-0.41-0.82-0.82-1.65-1.25-2.49c-0.96-1.86-1.95-3.74-2.99-5.62
		c-0.18-0.34-0.36-0.69-0.56-1.02c-0.19-0.33-0.37-0.68-0.57-1.02c-0.38-0.68-0.76-1.36-1.16-2.04c-0.26-0.45-0.52-0.91-0.78-1.36
		c-0.79-1.37-1.59-2.73-2.42-4.08c-0.27-0.46-0.54-0.91-0.83-1.36c-0.54-0.91-1.1-1.81-1.67-2.71c-0.56-0.9-1.12-1.8-1.7-2.7
		c-1.14-1.81-2.3-3.6-3.47-5.37c-0.59-0.88-1.18-1.77-1.78-2.65c-0.58-0.88-1.18-1.76-1.78-2.63c-0.59-0.88-1.19-1.75-1.8-2.61
		c-0.29-0.44-0.6-0.86-0.89-1.3c-0.3-0.43-0.6-0.85-0.91-1.29c-0.59-0.85-1.2-1.7-1.8-2.55c-1.08-1.51-2.17-3.02-3.26-4.51
		c-0.52-0.71-1.03-1.42-1.55-2.12c-2.58-3.5-5.13-6.87-7.6-10.06c-0.5-0.64-0.98-1.26-1.46-1.89c-0.49-0.62-0.97-1.24-1.45-1.85
		c-0.43-0.54-0.86-1.09-1.27-1.61c-0.11-0.14-0.22-0.28-0.32-0.41c-0.02-0.03-0.05-0.06-0.07-0.09c-0.24-0.28-0.46-0.58-0.69-0.86
		c-0.22-0.28-0.44-0.56-0.67-0.84c-0.85-1.07-1.69-2.11-2.49-3.12c-0.44-0.53-0.87-1.07-1.31-1.61c-0.3-0.37-0.6-0.73-0.91-1.1
		c-0.22-0.28-0.45-0.57-0.68-0.84c-0.39-0.48-0.77-0.94-1.14-1.4c-0.32-0.37-0.61-0.74-0.91-1.09c-0.58-0.7-1.15-1.38-1.69-2.03
		c-0.37-0.44-0.72-0.86-1.06-1.27c-0.17-0.2-0.35-0.4-0.51-0.61c-0.34-0.39-0.67-0.79-0.99-1.16c-0.16-0.19-0.31-0.38-0.47-0.56
		c-0.31-0.36-0.61-0.72-0.9-1.06c-0.74-0.85-1.4-1.63-2-2.32c-0.36-0.41-0.69-0.81-1.01-1.16c-0.23-0.27-0.45-0.52-0.64-0.74
		c-0.09-0.11-0.2-0.22-0.29-0.32c-0.53-0.61-0.95-1.09-1.23-1.4c-0.04-0.05-0.08-0.1-0.12-0.14c-0.17-0.19-0.26-0.3-0.3-0.34
		c-7.88-8.83-16.38-16.76-23.51-26.29c-0.44-0.59-0.88-1.18-1.3-1.78c-0.95-1.27-1.87-2.56-2.77-3.85c-0.35-0.51-0.7-1.03-1.05-1.54
		c-0.42-0.62-0.84-1.24-1.25-1.85c-0.4-0.61-0.79-1.21-1.18-1.82l-1.5-2.33c-0.03-0.06-0.07-0.13-0.11-0.19
		c-0.02-0.03-0.04-0.07-0.06-0.1c-0.03-0.05-0.06-0.1-0.1-0.14c-0.53-0.86-1.07-1.73-1.59-2.61c-1.09-1.81-2.14-3.63-3.15-5.47
		c-0.29-0.51-0.58-1.02-0.85-1.54c-0.29-0.51-0.55-1.03-0.83-1.54c-0.55-1.04-1.09-2.08-1.62-3.13c-0.02-0.03-0.04-0.07-0.06-0.11
		c-0.47-0.93-0.93-1.87-1.37-2.81c-0.09-0.15-0.16-0.3-0.23-0.45c-0.46-0.95-0.9-1.91-1.34-2.87c-0.01-0.03-0.03-0.06-0.04-0.1
		c-0.48-1.04-0.95-2.08-1.4-3.15c-0.34-0.76-0.66-1.52-0.98-2.29c-0.19-0.45-0.38-0.9-0.56-1.36c-0.31-0.78-0.63-1.57-0.94-2.36
		c-0.28-0.73-0.57-1.47-0.83-2.21c-0.07-0.16-0.12-0.31-0.19-0.47c-0.23-0.64-0.46-1.28-0.69-1.91c-0.32-0.92-0.64-1.83-0.96-2.75
		c-0.28-0.86-0.57-1.72-0.84-2.59c-0.24-0.73-0.46-1.45-0.68-2.17c-0.22-0.73-0.43-1.45-0.65-2.18c-0.21-0.73-0.42-1.46-0.61-2.19
		c-3.62-13.16-5.57-26.72-5.77-40.56c-0.03-2.06-0.02-4.13,0.03-6.18c0.03-1.32,0.07-2.62,0.14-3.93c0.2-4.64,0.59-9.29,1.16-13.93
		c0.14-1.12,0.29-2.24,0.45-3.37c0.03-0.19,0.06-0.37,0.08-0.55c0.27-1.86,0.58-3.7,0.9-5.54c0.99-5.05,2.21-10.06,3.62-15.01
		c0.02-0.07,0.04-0.13,0.06-0.2c4.32-15.06,10.57-29.57,18.51-43.07c4.45-7.58,9.43-14.84,14.91-21.72c0-0.01,0.01-0.02,0.02-0.03
		c3.89-4.47,7.98-8.68,12.16-12.83c3.63-3.61,7.32-7.17,10.95-10.85c0.55-0.56,1.1-1.12,1.64-1.67c0.01,0,0.01-0.01,0.02-0.01
		c0.01-0.01,0.02-0.02,0.03-0.02c0.04-0.02,0.07-0.02,0.11-0.04c0.02,0,0.05-0.01,0.07-0.02c0.07-0.02,0.13-0.04,0.2-0.08
		c0.01-0.01,0.01-0.02,0.02-0.03c0.29-0.09,0.58-0.21,0.82-0.35c0.01-0.01,0.03-0.02,0.04-0.02c-0.02,0.05-0.03,0.11-0.04,0.16
		c0,0,0-0.01,0.01-0.01c-0.03,0.08-0.05,0.15-0.07,0.23c-0.02,0.05-0.03,0.09-0.04,0.13c-0.02,0.06-0.04,0.13-0.05,0.19
		c-0.01,0.04-0.02,0.09-0.04,0.13c-5.03,17.68-8.9,34.86-8.9,53.46c0,25.22,6.92,49.76,16.86,72.8c2.76,6.38,5.74,12.67,8.85,18.88
		c1.57,3.12,3.26,6.18,4.92,9.24c1.57,2.91,2.87,5.87,4.4,8.78c2.76,4.57,5.02,9.55,7.51,14.29c1.85,3.54,3.85,7.02,5.88,10.48
		c1.98,3.37,4.34,6.46,6.4,9.79c1.25,2.03,2.4,4.14,3.63,6.2c4.74,7.93,9.58,15.78,14.47,23.62c7.58,12.13,15.17,24.27,22.75,36.41
		c7.58,12.13,15.16,24.27,22.76,36.41c6.84,10.95,11.4,23.68,15.42,35.93c0.59,1.78,1.15,3.57,1.7,5.37
		c3.61,11.78,6.32,23.61,8.16,35.41C1101.24,567.04,1101.84,588.09,1099.9,608.63z"/>
	<path class="st6" d="M940.72,800.42c-2.3,1.12-4.62,2.16-6.97,3.14c-3.54,1.5-7.13,2.86-10.77,4.08c-0.16,0.04-0.32,0.08-0.49,0.11
		c0.68-0.19,1.34-0.4,1.99-0.65C929.99,805.04,935.41,802.93,940.72,800.42z"/>
	<g class="st7">
		<path class="st12" d="M863.57,600.68c3.81,0.42,7.62,0.85,11.44,1.27c0.26,0.03,0.53,0.05,0.76-0.08
			c0.26-0.15,0.37-0.46,0.46-0.74c0.48-1.56,0.85-3.15,1.11-4.76c0.03-0.17,0.05-0.36-0.04-0.51c-0.08-0.13-0.22-0.19-0.36-0.25
			c-0.61-0.24-1.25-0.42-1.9-0.52c-0.16-0.03-0.35-0.04-0.48,0.05c-0.18,0.12-0.2,0.37-0.2,0.59c-0.01,0.98,0.02,1.95,0.07,2.93
			c0.02,0.3,0.14,0.7,0.45,0.67"/>
	</g>
</g>
<g id="music-final" class="st0">
	<path class="st13" d="M929.39,437.66c-21.62-28.39-43.96-54.94-60.54-86.85c-1.19-2.29-2.37-4.58-3.56-6.87
		c0.02,1.41,0.03,2.81,0.05,4.22c0.08,5.32,0.16,10.64,0.16,15.96V566.2c-4.54-2.71-24.51-4.14-27.05-4.16h-0.95
		c-9.22,0.04-18.46,1.63-27.14,4.75c-7.14,2.57-13.96,6.21-20.06,10.81c-8.6,6.45-15.78,14.77-20.42,24.51
		c-6.05,12.69-7.37,27.82-2.34,40.94c4.95,12.88,15.74,23.11,28.41,28.55c12.68,5.44,27.06,6.29,40.59,3.67
		c13.32-2.58,26.12-8.69,36.07-17.8c3.76-3.44,7.11-7.3,9.93-11.57c16.85-25.46,13.31-59.12,12.91-88.14
		c-0.36-26.3-0.72-52.6-1.08-78.9c-0.13-9.39-0.26-18.78-0.39-28.17c3.27,1.43,6.44,3.07,9.49,4.9
		c10.93,6.58,20.34,15.61,27.54,26.12c4.61,6.72,8.33,14.07,10.97,21.79c0.44,1.29,1.67,4.64,2.81,8.31
		c1.18,3.14,2.49,6.87,3.39,10.26c2.11-3.47,3.51-7.4,4.35-11.6C957.89,483.45,945.34,458.61,929.39,437.66z M874.51,597.8
		c0.28,0.53,0.55,1.06,0.82,1.6c0.06,0.12,0.12,0.25,0.18,0.37C875.18,599.11,874.85,598.45,874.51,597.8z"/>
	<path class="st14" d="M875.51,599.77c-0.33-0.66-0.66-1.32-1-1.97c0.28,0.53,0.55,1.06,0.82,1.6
		C875.39,599.52,875.45,599.65,875.51,599.77z"/>
</g>
<g id="merged" class="st0">
	<path class="st2" d="M963.14,168.7c0,0.04-0.01,0.08-0.02,0.12c-0.01,0-0.01,0.01-0.02,0.01
		C963.12,168.79,963.13,168.74,963.14,168.7z"/>
	<path class="st3" d="M645.17,654.37c0.72,5.25,1.69,10.42,2.9,15.49c-2.99-9.84-4.58-20.23-4.58-30.98c0-2,0.05-3.99,0.16-5.96
		c0.01,3.56,0.14,7.15,0.4,10.74c0,0,0,0.01,0,0.02C644.31,647.22,644.68,650.8,645.17,654.37z"/>
	<path class="st3" d="M924.48,807.1c-0.65,0.25-1.31,0.46-1.99,0.65c0.17-0.03,0.33-0.07,0.49-0.11c3.64-1.22,7.23-2.58,10.77-4.08
		c2.35-0.98,4.67-2.02,6.97-3.14C935.41,802.93,929.99,805.04,924.48,807.1z"/>
	<path class="st10" d="M1044.91,626.67c0,66.7-31.31,125.25-78.41,158.26c-1.28,0.94-2.58,1.86-3.88,2.76
		c-0.64,0.44-1.29,0.89-1.93,1.33c-0.22,0.14-0.45,0.29-0.67,0.44c-0.46,0.3-0.91,0.6-1.37,0.89c-0.46,0.31-0.92,0.61-1.39,0.9
		c-0.98,0.62-1.96,1.23-2.95,1.82c-0.54,0.34-1.08,0.66-1.63,0.98c-0.67,0.4-1.35,0.8-2.04,1.18c-0.68,0.4-1.37,0.78-2.06,1.15
		c-0.61,0.34-1.22,0.67-1.83,1.01c-0.18,0.09-0.36,0.18-0.54,0.27c-0.59,0.32-1.18,0.63-1.78,0.93c-0.32,0.17-0.64,0.33-0.97,0.49
		c-0.32,0.16-0.64,0.32-0.96,0.48c-0.59,0.3-1.19,0.59-1.78,0.86c-5.31,2.51-10.73,4.62-16.24,6.68c-0.65,0.25-1.31,0.46-1.99,0.65
		c-1.92,0.47-3.86,0.9-5.82,1.33c-0.37,0.08-0.74,0.15-1.12,0.23c-0.9,0.19-1.8,0.37-2.71,0.55c-2,0.4-4.01,0.78-6.02,1.12
		c-1.09,0.19-2.18,0.39-3.27,0.56c-0.48,0.08-0.95,0.15-1.42,0.22c-0.71,0.11-1.43,0.22-2.13,0.32c-1.23,0.2-2.47,0.37-3.71,0.54
		c-11.1,1.51-22.1,2.31-32.95,2.45c0.05,0,0.1,0.01,0.16,0.01c-10.29,0.08-20.41-0.43-30.34-1.5
		c-41.72-4.49-82.61-18.94-116.33-43.77c-31.36-23.09-55.82-55.16-66.71-92.41c-0.8-2.74-1.52-5.49-2.17-8.25
		c-9.89-42.31-1.74-86.82,20.64-124.26c2.52-4.21,5.2-8.35,8.06-12.41c-1.06,1.95-2.07,3.94-3.03,5.95
		c-4.93,10.25-8.59,21.08-10.92,32.15v0.01c0,0.02-0.01,0.04-0.02,0.06v0.01c-0.69,3.3-1.27,6.61-1.73,9.95
		c-1.04,7.56-1.46,15.21-1.23,22.86c0.29,9.51,1.53,19,3.68,28.27c4.46,19.31,12.71,37.32,23.9,53.25
		c16.13,22.92,38.35,41.51,64.27,53.5c42.41,19.6,95.7,25.58,138.74,4.39c19.66-9.68,35.27-23.95,47.69-41.11
		c4.26-5.88,8.14-12.09,11.68-18.58c5.7-10.47,10.49-21.32,14.02-32.49c4.11-13.03,6.54-26.51,6.84-40.41
		c0.03-1.46,0.04-2.92,0.02-4.36c-0.17-24.12-6.1-48.27-17.61-69.49c-13.24-24.44-34.23-43.95-58.58-57.58
		c-0.13-9.39-0.26-18.78-0.39-28.17c3.27,1.43,6.44,3.07,9.49,4.9c10.93,6.58,20.34,15.61,27.54,26.12
		c4.61,6.72,8.33,14.07,10.97,21.79c0.44,1.29,1.67,4.64,2.81,8.31c1.18,3.14,2.49,6.87,3.39,10.26c2.11-3.47,3.51-7.4,4.35-11.6
		c5.36-27.02-7.19-51.86-23.14-72.81c-21.62-28.39-43.96-54.94-60.54-86.85c-1.19-2.29-2.37-4.58-3.56-6.87
		c0.02,1.41,0.03,2.81,0.05,4.22c0.08,5.32,0.16,10.64,0.16,15.96v101.84c-1.81-0.64-3.63-1.23-5.46-1.8
		c-3.28-1.02-6.59-1.94-9.92-2.75c-12.09-12-20.02-28.67-26.61-43.79c-8.93-20.46-13.43-42.96-13.43-65.2
		c0-4.75,0.21-9.47,0.6-14.13c3.39-39.34,21.38-76.09,48.18-105.16c27.54-29.87,63.2-51.33,101.84-64.13
		c0.01-0.01,0.01-0.01,0.02-0.01c0.43-0.15,0.87-0.29,1.3-0.42c-0.54,0.55-1.09,1.11-1.64,1.67c-3.63,3.68-7.32,7.24-10.95,10.85
		c-4.18,4.15-8.27,8.36-12.16,12.83c-0.01,0.01-0.02,0.02-0.02,0.03c-5.48,6.88-10.46,14.14-14.91,21.72
		c-7.94,13.5-14.19,28.01-18.51,43.07c-0.02,0.07-0.04,0.13-0.06,0.2c-1.41,4.95-2.63,9.96-3.62,15.01
		c-0.01,0.01-0.01,0.01-0.01,0.02c-0.32,1.83-0.63,3.67-0.89,5.52c-0.02,0.18-0.05,0.36-0.08,0.55c-0.17,1.13-0.31,2.25-0.45,3.37
		c-0.57,4.64-0.96,9.29-1.16,13.93c-0.07,1.31-0.11,2.61-0.14,3.93c-0.05,2.05-0.06,4.12-0.03,6.18c0.2,13.84,2.15,27.4,5.77,40.56
		c0.19,0.73,0.4,1.46,0.61,2.19c0.22,0.73,0.43,1.45,0.65,2.18c0.22,0.72,0.44,1.44,0.68,2.17c0.27,0.87,0.56,1.73,0.84,2.59
		c0.32,0.92,0.64,1.83,0.96,2.75c0.23,0.63,0.46,1.27,0.69,1.91c0.07,0.16,0.12,0.31,0.19,0.47c0.26,0.74,0.55,1.48,0.83,2.21
		c0.31,0.79,0.63,1.58,0.94,2.36c0.18,0.46,0.37,0.91,0.56,1.36c0.32,0.77,0.64,1.53,0.98,2.29c0.45,1.07,0.92,2.11,1.4,3.15
		c0.01,0.04,0.03,0.07,0.04,0.1c0.44,0.96,0.88,1.92,1.34,2.87c0.07,0.15,0.14,0.3,0.23,0.45c0.44,0.94,0.9,1.88,1.37,2.81
		c0.02,0.04,0.04,0.08,0.06,0.11c0.53,1.05,1.07,2.09,1.62,3.13c0.28,0.51,0.54,1.03,0.83,1.54c0.27,0.52,0.56,1.03,0.85,1.54
		c1.01,1.84,2.06,3.66,3.15,5.47c0.52,0.88,1.06,1.75,1.59,2.61c0.04,0.04,0.07,0.09,0.1,0.14c0.02,0.03,0.04,0.07,0.06,0.1
		c0.04,0.06,0.08,0.13,0.11,0.19l1.5,2.33c0.39,0.61,0.78,1.21,1.18,1.82c0.41,0.61,0.83,1.23,1.25,1.85
		c0.35,0.51,0.7,1.03,1.05,1.54c0.9,1.29,1.82,2.58,2.77,3.85c0.42,0.6,0.86,1.19,1.3,1.78c7.13,9.53,15.63,17.46,23.51,26.29
		c0.04,0.04,0.13,0.15,0.3,0.34c0.04,0.04,0.08,0.09,0.12,0.14c0.28,0.31,0.7,0.79,1.23,1.4c0.09,0.1,0.2,0.21,0.29,0.32
		c0.19,0.22,0.41,0.47,0.64,0.74c0.32,0.35,0.65,0.75,1.01,1.16c0.6,0.69,1.26,1.47,2,2.32c0.29,0.34,0.59,0.7,0.9,1.06
		c0.16,0.18,0.31,0.37,0.47,0.56c0.32,0.37,0.65,0.77,0.99,1.16c0.16,0.21,0.34,0.41,0.51,0.61c0.34,0.41,0.69,0.83,1.06,1.27
		c0.54,0.65,1.11,1.33,1.69,2.03c0.3,0.35,0.59,0.72,0.91,1.09c0.37,0.46,0.75,0.92,1.14,1.4c0.23,0.27,0.46,0.56,0.68,0.84
		c0.31,0.37,0.61,0.73,0.91,1.1c0.44,0.54,0.87,1.08,1.31,1.61c0.8,1.01,1.64,2.05,2.49,3.12c0.23,0.28,0.45,0.56,0.67,0.84
		c0.23,0.28,0.45,0.58,0.69,0.86c0.02,0.03,0.05,0.06,0.07,0.09c0.1,0.13,0.21,0.27,0.32,0.41c0.41,0.52,0.84,1.07,1.27,1.61
		c0.48,0.61,0.96,1.23,1.45,1.85c0.48,0.63,0.96,1.25,1.46,1.89c2.47,3.19,5.02,6.56,7.6,10.06c0.52,0.7,1.03,1.41,1.55,2.12
		c1.09,1.49,2.18,3,3.26,4.51c0.6,0.85,1.21,1.7,1.8,2.55c0.31,0.44,0.61,0.86,0.91,1.29c0.29,0.44,0.6,0.86,0.89,1.3
		c0.61,0.86,1.21,1.73,1.8,2.61c0.6,0.87,1.2,1.75,1.78,2.63c0.6,0.88,1.19,1.77,1.78,2.65c1.17,1.77,2.33,3.56,3.47,5.37
		c0.58,0.9,1.14,1.8,1.7,2.7c0.57,0.9,1.13,1.8,1.67,2.71c0.29,0.45,0.56,0.9,0.83,1.36c0.83,1.35,1.63,2.71,2.42,4.08
		c0.26,0.45,0.52,0.91,0.78,1.36c0.4,0.68,0.78,1.36,1.16,2.04c0.2,0.34,0.38,0.69,0.57,1.02c0.2,0.33,0.38,0.68,0.56,1.02
		c1.04,1.88,2.03,3.76,2.99,5.62c0.43,0.84,0.84,1.67,1.25,2.49c0.28,0.56,0.55,1.1,0.81,1.65c0.03,0.05,0.05,0.09,0.07,0.14
		c0.03,0.06,0.06,0.13,0.09,0.19c0.2,0.43,0.41,0.85,0.6,1.27c0.37,0.77,0.73,1.54,1.06,2.3c0.32,0.7,0.62,1.38,0.92,2.07
		c0.02,0.06,0.05,0.11,0.07,0.17c0.03,0.07,0.06,0.13,0.08,0.19c0.3,0.66,0.57,1.33,0.85,1.99c0.08,0.21,0.16,0.42,0.25,0.62
		c0.24,0.59,0.47,1.17,0.7,1.75c0.21,0.54,0.41,1.07,0.61,1.61c0.18,0.47,0.35,0.95,0.52,1.42c0.36,1,0.7,1.99,1.02,2.98
		c0.11,0.33,0.21,0.64,0.3,0.95c0.02,0.06,0.04,0.12,0.06,0.19c0.03,0.11,0.07,0.22,0.11,0.33c0.03,0.09,0.05,0.18,0.08,0.27
		c0.06,0.23,0.13,0.46,0.2,0.68c0.07,0.23,0.13,0.46,0.19,0.68c0.18,0.58,0.33,1.15,0.48,1.73c3.44,8.07,6.36,16.45,8.73,25.1
		c0.09,0.3,0.17,0.58,0.24,0.87C1042.42,589.73,1044.91,607.87,1044.91,626.67z"/>
	<path class="st15" d="M952.53,510.47c-0.84,4.2-2.24,8.13-4.35,11.6c-0.9-3.39-2.21-7.12-3.39-10.26
		c-1.14-3.67-2.37-7.02-2.81-8.31c-2.64-7.72-6.36-15.07-10.97-21.79c-7.2-10.51-16.61-19.54-27.54-26.12
		c-3.05-1.83-6.22-3.47-9.49-4.9c0.13,9.39,0.26,18.78,0.39,28.17c0.36,26.3,0.72,52.6,1.08,78.9c0.4,29.02,3.94,62.68-12.91,88.14
		c-2.82,4.27-6.17,8.13-9.93,11.57c-9.95,9.11-22.75,15.22-36.07,17.8c-13.53,2.62-27.91,1.77-40.59-3.67
		c-12.67-5.44-23.46-15.67-28.41-28.55c-5.03-13.12-3.71-28.25,2.34-40.94c4.64-9.74,11.82-18.06,20.42-24.51
		c6.1-4.6,12.92-8.24,20.06-10.81c8.68-3.12,17.92-4.71,27.14-4.75h0.95c2.54,0.02,22.51,1.45,27.05,4.16V364.12
		c0-5.32-0.08-10.64-0.16-15.96c-0.02-1.41-0.03-2.81-0.05-4.22c1.19,2.29,2.37,4.58,3.56,6.87c16.58,31.91,38.92,58.46,60.54,86.85
		C945.34,458.61,957.89,483.45,952.53,510.47z"/>
	<path class="st5" d="M970.56,605.93c0.02,1.44,0.01,2.9-0.02,4.36c-0.3,13.9-2.73,27.38-6.84,40.41
		c-3.53,11.17-8.32,22.02-14.02,32.49c-3.54,6.49-7.42,12.7-11.68,18.58c-12.42,17.16-28.03,31.43-47.69,41.11
		c-43.04,21.19-96.33,15.21-138.74-4.39c-25.92-11.99-48.14-30.58-64.27-53.5c-11.19-15.93-19.44-33.94-23.9-53.25
		c-2.15-9.27-3.39-18.76-3.68-28.27c-0.23-7.65,0.19-15.3,1.23-22.86c0.46-3.34,1.04-6.65,1.73-9.95v-0.01
		c0.01-0.02,0.02-0.04,0.02-0.06v-0.01c2.33-11.07,5.99-21.9,10.92-32.15c0.96-2.01,1.97-4,3.03-5.95
		c5.25-9.71,11.65-18.73,18.98-26.92c0-0.01,0.01-0.02,0.02-0.03c22.51-25.16,53.8-42.43,87.63-47.37
		c20.89-3.05,42.41-2.28,63.01,2.34c1.29,0.28,2.56,0.59,3.83,0.91c3.33,0.81,6.64,1.73,9.92,2.75c1.83,0.57,3.65,1.16,5.46,1.8
		V566.2c-4.54-2.71-24.51-4.14-27.05-4.16h-0.95c-9.22,0.04-18.46,1.63-27.14,4.75c-7.14,2.57-13.96,6.21-20.06,10.81
		c-8.6,6.45-15.78,14.77-20.42,24.51c-6.05,12.69-7.37,27.82-2.34,40.94c4.95,12.88,15.74,23.11,28.41,28.55
		c12.68,5.44,27.06,6.29,40.59,3.67c13.32-2.58,26.12-8.69,36.07-17.8c3.76-3.44,7.11-7.3,9.93-11.57
		c16.85-25.46,13.31-59.12,12.91-88.14c-0.36-26.3-0.72-52.6-1.08-78.9c24.35,13.63,45.34,33.14,58.58,57.58
		C964.46,557.66,970.39,581.81,970.56,605.93z"/>
	<path class="st1" d="M1026.19,549.8c-0.09-0.35-0.17-0.71-0.29-1.06"/>
	<path class="st11" d="M1099.9,608.63c-4.03,42.97-19.07,83.69-43.05,118.13c-12.2,14.66-26.69,27.98-43.08,39.53
		c-9.88,7.19-20.31,13.62-31.17,19.25c-11.27,5.85-22.99,10.85-35.01,14.97c-9.97,3.43-20.11,6.88-30.48,8.97
		c-6.08,1.25-12.28,2.29-18.56,3.14c-11.2,1.51-22.29,2.31-33.24,2.45c-0.58,0.01-1.17,0.02-1.75,0.01h-0.06
		c-0.06,0-0.11-0.01-0.16-0.01c10.85-0.14,21.85-0.94,32.95-2.45c1.24-0.17,2.48-0.34,3.71-0.54c0.71-0.1,1.42-0.2,2.13-0.32
		c0.47-0.07,0.94-0.14,1.42-0.22c1.09-0.17,2.18-0.37,3.27-0.56c2.01-0.34,4.02-0.72,6.02-1.12c0.91-0.18,1.81-0.36,2.71-0.55
		c0.38-0.08,0.75-0.15,1.12-0.23c1.95-0.4,3.92-0.77,5.82-1.33c0.17-0.03,0.33-0.07,0.49-0.11c3.64-1.22,7.23-2.58,10.77-4.08
		c2.35-0.98,4.67-2.02,6.97-3.14c0.59-0.27,1.19-0.56,1.78-0.86c0.16-0.07,0.32-0.15,0.48-0.23c0.16-0.08,0.32-0.16,0.48-0.25
		c0.33-0.16,0.65-0.32,0.97-0.49c0.6-0.3,1.19-0.61,1.78-0.93c0.18-0.09,0.36-0.18,0.54-0.27c0.61-0.34,1.22-0.67,1.83-1.01
		c0.69-0.37,1.38-0.75,2.06-1.15c0.69-0.38,1.37-0.78,2.04-1.18c0.55-0.32,1.09-0.64,1.63-0.98c0.99-0.59,1.97-1.2,2.95-1.82
		c0.47-0.29,0.93-0.59,1.39-0.9c0.46-0.29,0.91-0.59,1.37-0.89c0.22-0.15,0.45-0.3,0.67-0.44c0.64-0.44,1.29-0.89,1.93-1.33
		c1.3-0.9,2.6-1.82,3.88-2.76c47.1-33.01,78.41-91.56,78.41-158.26c0-18.8-2.49-36.94-7.12-54.05c-0.07-0.29-0.15-0.57-0.24-0.87
		c-2.37-8.65-5.29-17.03-8.73-25.1c-0.15-0.58-0.3-1.15-0.48-1.73c-0.06-0.22-0.12-0.45-0.19-0.68c-0.07-0.22-0.14-0.45-0.2-0.68
		c-0.03-0.09-0.05-0.18-0.08-0.27c-0.04-0.11-0.08-0.22-0.11-0.33c-0.02-0.07-0.04-0.13-0.06-0.19c-0.09-0.31-0.19-0.62-0.3-0.95
		c-0.32-0.99-0.66-1.98-1.02-2.98c-0.17-0.47-0.34-0.95-0.52-1.42c-0.2-0.54-0.4-1.07-0.61-1.61c-0.23-0.58-0.46-1.16-0.7-1.75
		c-0.09-0.2-0.17-0.41-0.25-0.62c-0.28-0.66-0.55-1.33-0.85-1.99c-0.02-0.06-0.05-0.12-0.08-0.19c-0.02-0.06-0.05-0.11-0.07-0.17
		c-0.3-0.69-0.6-1.37-0.92-2.07c-0.33-0.76-0.69-1.53-1.06-2.3c-0.19-0.42-0.4-0.84-0.6-1.27c-0.03-0.06-0.06-0.13-0.09-0.19
		c-0.02-0.05-0.04-0.09-0.07-0.14c-0.26-0.55-0.53-1.09-0.81-1.65c-0.41-0.82-0.82-1.65-1.25-2.49c-0.96-1.86-1.95-3.74-2.99-5.62
		c-0.18-0.34-0.36-0.69-0.56-1.02c-0.19-0.33-0.37-0.68-0.57-1.02c-0.38-0.68-0.76-1.36-1.16-2.04c-0.26-0.45-0.52-0.91-0.78-1.36
		c-0.79-1.37-1.59-2.73-2.42-4.08c-0.27-0.46-0.54-0.91-0.83-1.36c-0.54-0.91-1.1-1.81-1.67-2.71c-0.56-0.9-1.12-1.8-1.7-2.7
		c-1.14-1.81-2.3-3.6-3.47-5.37c-0.59-0.88-1.18-1.77-1.78-2.65c-0.58-0.88-1.18-1.76-1.78-2.63c-0.59-0.88-1.19-1.75-1.8-2.61
		c-0.29-0.44-0.6-0.86-0.89-1.3c-0.3-0.43-0.6-0.85-0.91-1.29c-0.59-0.85-1.2-1.7-1.8-2.55c-1.08-1.51-2.17-3.02-3.26-4.51
		c-0.52-0.71-1.03-1.42-1.55-2.12c-2.58-3.5-5.13-6.87-7.6-10.06c-0.5-0.64-0.98-1.26-1.46-1.89c-0.49-0.62-0.97-1.24-1.45-1.85
		c-0.43-0.54-0.86-1.09-1.27-1.61c-0.11-0.14-0.22-0.28-0.32-0.41c-0.02-0.03-0.05-0.06-0.07-0.09c-0.24-0.28-0.46-0.58-0.69-0.86
		c-0.22-0.28-0.44-0.56-0.67-0.84c-0.85-1.07-1.69-2.11-2.49-3.12c-0.44-0.53-0.87-1.07-1.31-1.61c-0.3-0.37-0.6-0.73-0.91-1.1
		c-0.22-0.28-0.45-0.57-0.68-0.84c-0.39-0.48-0.77-0.94-1.14-1.4c-0.32-0.37-0.61-0.74-0.91-1.09c-0.58-0.7-1.15-1.38-1.69-2.03
		c-0.37-0.44-0.72-0.86-1.06-1.27c-0.17-0.2-0.35-0.4-0.51-0.61c-0.34-0.39-0.67-0.79-0.99-1.16c-0.16-0.19-0.31-0.38-0.47-0.56
		c-0.31-0.36-0.61-0.72-0.9-1.06c-0.74-0.85-1.4-1.63-2-2.32c-0.36-0.41-0.69-0.81-1.01-1.16c-0.23-0.27-0.45-0.52-0.64-0.74
		c-0.09-0.11-0.2-0.22-0.29-0.32c-0.53-0.61-0.95-1.09-1.23-1.4c-0.04-0.05-0.08-0.1-0.12-0.14c-0.17-0.19-0.26-0.3-0.3-0.34
		c-7.88-8.83-16.38-16.76-23.51-26.29c-0.44-0.59-0.88-1.18-1.3-1.78c-0.95-1.27-1.87-2.56-2.77-3.85c-0.35-0.51-0.7-1.03-1.05-1.54
		c-0.42-0.62-0.84-1.24-1.25-1.85c-0.4-0.61-0.79-1.21-1.18-1.82l-1.5-2.33c-0.03-0.06-0.07-0.13-0.11-0.19
		c-0.02-0.03-0.04-0.07-0.06-0.1c-0.03-0.05-0.06-0.1-0.1-0.14c-0.53-0.86-1.07-1.73-1.59-2.61c-1.09-1.81-2.14-3.63-3.15-5.47
		c-0.29-0.51-0.58-1.02-0.85-1.54c-0.29-0.51-0.55-1.03-0.83-1.54c-0.55-1.04-1.09-2.08-1.62-3.13c-0.02-0.03-0.04-0.07-0.06-0.11
		c-0.47-0.93-0.93-1.87-1.37-2.81c-0.09-0.15-0.16-0.3-0.23-0.45c-0.46-0.95-0.9-1.91-1.34-2.87c-0.01-0.03-0.03-0.06-0.04-0.1
		c-0.48-1.04-0.95-2.08-1.4-3.15c-0.34-0.76-0.66-1.52-0.98-2.29c-0.19-0.45-0.38-0.9-0.56-1.36c-0.31-0.78-0.63-1.57-0.94-2.36
		c-0.28-0.73-0.57-1.47-0.83-2.21c-0.07-0.16-0.12-0.31-0.19-0.47c-0.23-0.64-0.46-1.28-0.69-1.91c-0.32-0.92-0.64-1.83-0.96-2.75
		c-0.28-0.86-0.57-1.72-0.84-2.59c-0.24-0.73-0.46-1.45-0.68-2.17c-0.22-0.73-0.43-1.45-0.65-2.18c-0.21-0.73-0.42-1.46-0.61-2.19
		c-3.62-13.16-5.57-26.72-5.77-40.56c-0.03-2.06-0.02-4.13,0.03-6.18c0.03-1.32,0.07-2.62,0.14-3.93c0.2-4.64,0.59-9.29,1.16-13.93
		c0.14-1.12,0.29-2.24,0.45-3.37c0.03-0.19,0.06-0.37,0.08-0.55c0.27-1.86,0.58-3.7,0.9-5.54c0.99-5.05,2.21-10.06,3.62-15.01
		c0.02-0.07,0.04-0.13,0.06-0.2c4.32-15.06,10.57-29.57,18.51-43.07c4.45-7.58,9.43-14.84,14.91-21.72c0-0.01,0.01-0.02,0.02-0.03
		c3.89-4.47,7.98-8.68,12.16-12.83c3.63-3.61,7.32-7.17,10.95-10.85c0.55-0.56,1.1-1.12,1.64-1.67c0.01,0,0.01-0.01,0.02-0.01
		c0.01-0.01,0.02-0.02,0.03-0.02c0.04-0.02,0.07-0.02,0.11-0.04c0.02,0,0.05-0.01,0.07-0.02c0.07-0.02,0.13-0.04,0.2-0.08
		c0.01-0.01,0.01-0.02,0.02-0.03c0.29-0.09,0.58-0.21,0.82-0.35c0.01-0.01,0.03-0.02,0.04-0.02c-0.02,0.05-0.03,0.11-0.04,0.16
		c0,0,0-0.01,0.01-0.01c-0.03,0.08-0.05,0.15-0.07,0.23c-0.02,0.05-0.03,0.09-0.04,0.13c-0.02,0.06-0.04,0.13-0.05,0.19
		c-0.01,0.04-0.02,0.09-0.04,0.13c-5.03,17.68-8.9,34.86-8.9,53.46c0,25.22,6.92,49.76,16.86,72.8c2.76,6.38,5.74,12.67,8.85,18.88
		c1.57,3.12,3.26,6.18,4.92,9.24c1.57,2.91,2.87,5.87,4.4,8.78c2.76,4.57,5.02,9.55,7.51,14.29c1.85,3.54,3.85,7.02,5.88,10.48
		c1.98,3.37,4.34,6.46,6.4,9.79c1.25,2.03,2.4,4.14,3.63,6.2c4.74,7.93,9.58,15.78,14.47,23.62c7.58,12.13,15.17,24.27,22.75,36.41
		c7.58,12.13,15.16,24.27,22.76,36.41c6.84,10.95,11.4,23.68,15.42,35.93c0.59,1.78,1.15,3.57,1.7,5.37
		c3.61,11.78,6.32,23.61,8.16,35.41C1101.24,567.04,1101.84,588.09,1099.9,608.63z"/>
	<path class="st6" d="M940.72,800.42c-2.3,1.12-4.62,2.16-6.97,3.14c-3.54,1.5-7.13,2.86-10.77,4.08c-0.16,0.04-0.32,0.08-0.49,0.11
		c0.68-0.19,1.34-0.4,1.99-0.65C929.99,805.04,935.41,802.93,940.72,800.42z"/>
	<path class="st14" d="M1248.51,529.77c0.59-0.66,1.18-1.32,1.78-1.97c-0.5,0.53-0.98,1.06-1.46,1.6
		C1248.72,529.52,1248.62,529.65,1248.51,529.77z"/>
</g>
<g id="mer-grad" class="st0">
	<path class="st2" d="M963.14,168.7c0,0.04-0.01,0.08-0.02,0.12c-0.01,0-0.01,0.01-0.02,0.01
		C963.12,168.79,963.13,168.74,963.14,168.7z"/>
	<linearGradient id="SVGID_1_" gradientUnits="userSpaceOnUse" x1="643.5" y1="651.3842" x2="648.076" y2="651.3842">
		<stop  offset="4.888180e-07" style="stop-color:#C31432"/>
		<stop  offset="1" style="stop-color:#240B36"/>
	</linearGradient>
	<path class="st16" d="M645.17,654.37c0.72,5.25,1.69,10.42,2.9,15.49c-2.99-9.84-4.58-20.23-4.58-30.98c0-2,0.05-3.99,0.16-5.96
		c0.01,3.56,0.14,7.15,0.4,10.74c0,0,0,0.01,0,0.02C644.31,647.22,644.68,650.8,645.17,654.37z"/>
	<path class="st3" d="M924.48,807.1c-0.65,0.25-1.31,0.46-1.99,0.65c0.17-0.03,0.33-0.07,0.49-0.11c3.64-1.22,7.23-2.58,10.77-4.08
		c2.35-0.98,4.67-2.02,6.97-3.14C935.41,802.93,929.99,805.04,924.48,807.1z"/>
	<radialGradient id="SVGID_2_" cx="844.3557" cy="491.829" r="402.9507" gradientUnits="userSpaceOnUse">
		<stop  offset="0" style="stop-color:#C31432"/>
		<stop  offset="0.1308" style="stop-color:#BF1432"/>
		<stop  offset="0.2555" style="stop-color:#B41332"/>
		<stop  offset="0.3776" style="stop-color:#A01233"/>
		<stop  offset="0.4983" style="stop-color:#851134"/>
		<stop  offset="0.6179" style="stop-color:#630F34"/>
		<stop  offset="0.7351" style="stop-color:#390C35"/>
		<stop  offset="0.7858" style="stop-color:#240B36"/>
	</radialGradient>
	<path class="st17" d="M1044.91,626.67c0,66.7-31.31,125.25-78.41,158.26c-1.28,0.94-2.58,1.86-3.88,2.76
		c-0.64,0.44-1.29,0.89-1.93,1.33c-0.22,0.14-0.45,0.29-0.67,0.44c-0.46,0.3-0.91,0.6-1.37,0.89c-0.46,0.31-0.92,0.61-1.39,0.9
		c-0.98,0.62-1.96,1.23-2.95,1.82c-0.54,0.34-1.08,0.66-1.63,0.98c-0.67,0.4-1.35,0.8-2.04,1.18c-0.68,0.4-1.37,0.78-2.06,1.15
		c-0.61,0.34-1.22,0.67-1.83,1.01c-0.18,0.09-0.36,0.18-0.54,0.27c-0.59,0.32-1.18,0.63-1.78,0.93c-0.32,0.17-0.64,0.33-0.97,0.49
		c-0.32,0.16-0.64,0.32-0.96,0.48c-0.59,0.3-1.19,0.59-1.78,0.86c-5.31,2.51-10.73,4.62-16.24,6.68c-0.65,0.25-1.31,0.46-1.99,0.65
		c-1.92,0.47-3.86,0.9-5.82,1.33c-0.37,0.08-0.74,0.15-1.12,0.23c-0.9,0.19-1.8,0.37-2.71,0.55c-2,0.4-4.01,0.78-6.02,1.12
		c-1.09,0.19-2.18,0.39-3.27,0.56c-0.48,0.08-0.95,0.15-1.42,0.22c-0.71,0.11-1.43,0.22-2.13,0.32c-1.23,0.2-2.47,0.37-3.71,0.54
		c-11.1,1.51-22.1,2.31-32.95,2.45c0.05,0,0.1,0.01,0.16,0.01c-10.29,0.08-20.41-0.43-30.34-1.5
		c-41.72-4.49-82.61-18.94-116.33-43.77c-31.36-23.09-55.82-55.16-66.71-92.41c-0.8-2.74-1.52-5.49-2.17-8.25
		c-9.89-42.31-1.74-86.82,20.64-124.26c2.52-4.21,5.2-8.35,8.06-12.41c-1.06,1.95-2.07,3.94-3.03,5.95
		c-4.93,10.25-8.59,21.08-10.92,32.15v0.01c0,0.02-0.01,0.04-0.02,0.06v0.01c-0.69,3.3-1.27,6.61-1.73,9.95
		c-1.04,7.56-1.46,15.21-1.23,22.86c0.29,9.51,1.53,19,3.68,28.27c4.46,19.31,12.71,37.32,23.9,53.25
		c16.13,22.92,38.35,41.51,64.27,53.5c42.41,19.6,95.7,25.58,138.74,4.39c19.66-9.68,35.27-23.95,47.69-41.11
		c4.26-5.88,8.14-12.09,11.68-18.58c5.7-10.47,10.49-21.32,14.02-32.49c4.11-13.03,6.54-26.51,6.84-40.41
		c0.03-1.46,0.04-2.92,0.02-4.36c-0.17-24.12-6.1-48.27-17.61-69.49c-13.24-24.44-34.23-43.95-58.58-57.58
		c-0.13-9.39-0.26-18.78-0.39-28.17c3.27,1.43,6.44,3.07,9.49,4.9c10.93,6.58,20.34,15.61,27.54,26.12
		c4.61,6.72,8.33,14.07,10.97,21.79c0.44,1.29,1.67,4.64,2.81,8.31c1.18,3.14,2.49,6.87,3.39,10.26c2.11-3.47,3.51-7.4,4.35-11.6
		c5.36-27.02-7.19-51.86-23.14-72.81c-21.62-28.39-43.96-54.94-60.54-86.85c-1.19-2.29-2.37-4.58-3.56-6.87
		c0.02,1.41,0.03,2.81,0.05,4.22c0.08,5.32,0.16,10.64,0.16,15.96v101.84c-1.81-0.64-3.63-1.23-5.46-1.8
		c-3.28-1.02-6.59-1.94-9.92-2.75c-12.09-12-20.02-28.67-26.61-43.79c-8.93-20.46-13.43-42.96-13.43-65.2
		c0-4.75,0.21-9.47,0.6-14.13c3.39-39.34,21.38-76.09,48.18-105.16c27.54-29.87,63.2-51.33,101.84-64.13
		c0.01-0.01,0.01-0.01,0.02-0.01c0.43-0.15,0.87-0.29,1.3-0.42c-0.54,0.55-1.09,1.11-1.64,1.67c-3.63,3.68-7.32,7.24-10.95,10.85
		c-4.18,4.15-8.27,8.36-12.16,12.83c-0.01,0.01-0.02,0.02-0.02,0.03c-5.48,6.88-10.46,14.14-14.91,21.72
		c-7.94,13.5-14.19,28.01-18.51,43.07c-0.02,0.07-0.04,0.13-0.06,0.2c-1.41,4.95-2.63,9.96-3.62,15.01
		c-0.01,0.01-0.01,0.01-0.01,0.02c-0.32,1.83-0.63,3.67-0.89,5.52c-0.02,0.18-0.05,0.36-0.08,0.55c-0.17,1.13-0.31,2.25-0.45,3.37
		c-0.57,4.64-0.96,9.29-1.16,13.93c-0.07,1.31-0.11,2.61-0.14,3.93c-0.05,2.05-0.06,4.12-0.03,6.18c0.2,13.84,2.15,27.4,5.77,40.56
		c0.19,0.73,0.4,1.46,0.61,2.19c0.22,0.73,0.43,1.45,0.65,2.18c0.22,0.72,0.44,1.44,0.68,2.17c0.27,0.87,0.56,1.73,0.84,2.59
		c0.32,0.92,0.64,1.83,0.96,2.75c0.23,0.63,0.46,1.27,0.69,1.91c0.07,0.16,0.12,0.31,0.19,0.47c0.26,0.74,0.55,1.48,0.83,2.21
		c0.31,0.79,0.63,1.58,0.94,2.36c0.18,0.46,0.37,0.91,0.56,1.36c0.32,0.77,0.64,1.53,0.98,2.29c0.45,1.07,0.92,2.11,1.4,3.15
		c0.01,0.04,0.03,0.07,0.04,0.1c0.44,0.96,0.88,1.92,1.34,2.87c0.07,0.15,0.14,0.3,0.23,0.45c0.44,0.94,0.9,1.88,1.37,2.81
		c0.02,0.04,0.04,0.08,0.06,0.11c0.53,1.05,1.07,2.09,1.62,3.13c0.28,0.51,0.54,1.03,0.83,1.54c0.27,0.52,0.56,1.03,0.85,1.54
		c1.01,1.84,2.06,3.66,3.15,5.47c0.52,0.88,1.06,1.75,1.59,2.61c0.04,0.04,0.07,0.09,0.1,0.14c0.02,0.03,0.04,0.07,0.06,0.1
		c0.04,0.06,0.08,0.13,0.11,0.19l1.5,2.33c0.39,0.61,0.78,1.21,1.18,1.82c0.41,0.61,0.83,1.23,1.25,1.85
		c0.35,0.51,0.7,1.03,1.05,1.54c0.9,1.29,1.82,2.58,2.77,3.85c0.42,0.6,0.86,1.19,1.3,1.78c7.13,9.53,15.63,17.46,23.51,26.29
		c0.04,0.04,0.13,0.15,0.3,0.34c0.04,0.04,0.08,0.09,0.12,0.14c0.28,0.31,0.7,0.79,1.23,1.4c0.09,0.1,0.2,0.21,0.29,0.32
		c0.19,0.22,0.41,0.47,0.64,0.74c0.32,0.35,0.65,0.75,1.01,1.16c0.6,0.69,1.26,1.47,2,2.32c0.29,0.34,0.59,0.7,0.9,1.06
		c0.16,0.18,0.31,0.37,0.47,0.56c0.32,0.37,0.65,0.77,0.99,1.16c0.16,0.21,0.34,0.41,0.51,0.61c0.34,0.41,0.69,0.83,1.06,1.27
		c0.54,0.65,1.11,1.33,1.69,2.03c0.3,0.35,0.59,0.72,0.91,1.09c0.37,0.46,0.75,0.92,1.14,1.4c0.23,0.27,0.46,0.56,0.68,0.84
		c0.31,0.37,0.61,0.73,0.91,1.1c0.44,0.54,0.87,1.08,1.31,1.61c0.8,1.01,1.64,2.05,2.49,3.12c0.23,0.28,0.45,0.56,0.67,0.84
		c0.23,0.28,0.45,0.58,0.69,0.86c0.02,0.03,0.05,0.06,0.07,0.09c0.1,0.13,0.21,0.27,0.32,0.41c0.41,0.52,0.84,1.07,1.27,1.61
		c0.48,0.61,0.96,1.23,1.45,1.85c0.48,0.63,0.96,1.25,1.46,1.89c2.47,3.19,5.02,6.56,7.6,10.06c0.52,0.7,1.03,1.41,1.55,2.12
		c1.09,1.49,2.18,3,3.26,4.51c0.6,0.85,1.21,1.7,1.8,2.55c0.31,0.44,0.61,0.86,0.91,1.29c0.29,0.44,0.6,0.86,0.89,1.3
		c0.61,0.86,1.21,1.73,1.8,2.61c0.6,0.87,1.2,1.75,1.78,2.63c0.6,0.88,1.19,1.77,1.78,2.65c1.17,1.77,2.33,3.56,3.47,5.37
		c0.58,0.9,1.14,1.8,1.7,2.7c0.57,0.9,1.13,1.8,1.67,2.71c0.29,0.45,0.56,0.9,0.83,1.36c0.83,1.35,1.63,2.71,2.42,4.08
		c0.26,0.45,0.52,0.91,0.78,1.36c0.4,0.68,0.78,1.36,1.16,2.04c0.2,0.34,0.38,0.69,0.57,1.02c0.2,0.33,0.38,0.68,0.56,1.02
		c1.04,1.88,2.03,3.76,2.99,5.62c0.43,0.84,0.84,1.67,1.25,2.49c0.28,0.56,0.55,1.1,0.81,1.65c0.03,0.05,0.05,0.09,0.07,0.14
		c0.03,0.06,0.06,0.13,0.09,0.19c0.2,0.43,0.41,0.85,0.6,1.27c0.37,0.77,0.73,1.54,1.06,2.3c0.32,0.7,0.62,1.38,0.92,2.07
		c0.02,0.06,0.05,0.11,0.07,0.17c0.03,0.07,0.06,0.13,0.08,0.19c0.3,0.66,0.57,1.33,0.85,1.99c0.08,0.21,0.16,0.42,0.25,0.62
		c0.24,0.59,0.47,1.17,0.7,1.75c0.21,0.54,0.41,1.07,0.61,1.61c0.18,0.47,0.35,0.95,0.52,1.42c0.36,1,0.7,1.99,1.02,2.98
		c0.11,0.33,0.21,0.64,0.3,0.95c0.02,0.06,0.04,0.12,0.06,0.19c0.03,0.11,0.07,0.22,0.11,0.33c0.03,0.09,0.05,0.18,0.08,0.27
		c0.06,0.23,0.13,0.46,0.2,0.68c0.07,0.23,0.13,0.46,0.19,0.68c0.18,0.58,0.33,1.15,0.48,1.73c3.44,8.07,6.36,16.45,8.73,25.1
		c0.09,0.3,0.17,0.58,0.24,0.87C1042.42,589.73,1044.91,607.87,1044.91,626.67z"/>
	<path class="st1" d="M952.53,510.47c-0.84,4.2-2.24,8.13-4.35,11.6c-0.9-3.39-2.21-7.12-3.39-10.26c-1.14-3.67-2.37-7.02-2.81-8.31
		c-2.64-7.72-6.36-15.07-10.97-21.79c-7.2-10.51-16.61-19.54-27.54-26.12c-3.05-1.83-6.22-3.47-9.49-4.9
		c0.13,9.39,0.26,18.78,0.39,28.17c0.36,26.3,0.72,52.6,1.08,78.9c0.4,29.02,3.94,62.68-12.91,88.14
		c-2.82,4.27-6.17,8.13-9.93,11.57c-9.95,9.11-22.75,15.22-36.07,17.8c-13.53,2.62-27.91,1.77-40.59-3.67
		c-12.67-5.44-23.46-15.67-28.41-28.55c-5.03-13.12-3.71-28.25,2.34-40.94c4.64-9.74,11.82-18.06,20.42-24.51
		c6.1-4.6,12.92-8.24,20.06-10.81c8.68-3.12,17.92-4.71,27.14-4.75h0.95c2.54,0.02,22.51,1.45,27.05,4.16V364.12
		c0-5.32-0.08-10.64-0.16-15.96c-0.02-1.41-0.03-2.81-0.05-4.22c1.19,2.29,2.37,4.58,3.56,6.87c16.58,31.91,38.92,58.46,60.54,86.85
		C945.34,458.61,957.89,483.45,952.53,510.47z"/>
	
		<radialGradient id="SVGID_3_" cx="815.1146" cy="606.2803" r="180.4813" fx="812.8069" fy="731.3333" gradientUnits="userSpaceOnUse">
		<stop  offset="0.2991" style="stop-color:#C31432"/>
		<stop  offset="0.484" style="stop-color:#C01432"/>
		<stop  offset="0.5951" style="stop-color:#B81332"/>
		<stop  offset="0.6867" style="stop-color:#AA1333"/>
		<stop  offset="0.7677" style="stop-color:#961133"/>
		<stop  offset="0.8417" style="stop-color:#7B1034"/>
		<stop  offset="0.9106" style="stop-color:#5B0E35"/>
		<stop  offset="0.9743" style="stop-color:#350C36"/>
		<stop  offset="1" style="stop-color:#240B36"/>
	</radialGradient>
	<path class="st18" d="M970.56,605.93c0.02,1.44,0.01,2.9-0.02,4.36c-0.3,13.9-2.73,27.38-6.84,40.41
		c-3.53,11.17-8.32,22.02-14.02,32.49c-3.54,6.49-7.42,12.7-11.68,18.58c-12.42,17.16-28.03,31.43-47.69,41.11
		c-43.04,21.19-96.33,15.21-138.74-4.39c-25.92-11.99-48.14-30.58-64.27-53.5c-11.19-15.93-19.44-33.94-23.9-53.25
		c-2.15-9.27-3.39-18.76-3.68-28.27c-0.23-7.65,0.19-15.3,1.23-22.86c0.46-3.34,1.04-6.65,1.73-9.95v-0.01
		c0.01-0.02,0.02-0.04,0.02-0.06v-0.01c2.33-11.07,5.99-21.9,10.92-32.15c0.96-2.01,1.97-4,3.03-5.95
		c5.25-9.71,11.65-18.73,18.98-26.92c0-0.01,0.01-0.02,0.02-0.03c22.51-25.16,53.8-42.43,87.63-47.37
		c20.89-3.05,42.41-2.28,63.01,2.34c1.29,0.28,2.56,0.59,3.83,0.91c3.33,0.81,6.64,1.73,9.92,2.75c1.83,0.57,3.65,1.16,5.46,1.8
		V566.2c-4.54-2.71-24.51-4.14-27.05-4.16h-0.95c-9.22,0.04-18.46,1.63-27.14,4.75c-7.14,2.57-13.96,6.21-20.06,10.81
		c-8.6,6.45-15.78,14.77-20.42,24.51c-6.05,12.69-7.37,27.82-2.34,40.94c4.95,12.88,15.74,23.11,28.41,28.55
		c12.68,5.44,27.06,6.29,40.59,3.67c13.32-2.58,26.12-8.69,36.07-17.8c3.76-3.44,7.11-7.3,9.93-11.57
		c16.85-25.46,13.31-59.12,12.91-88.14c-0.36-26.3-0.72-52.6-1.08-78.9c24.35,13.63,45.34,33.14,58.58,57.58
		C964.46,557.66,970.39,581.81,970.56,605.93z"/>
	<linearGradient id="SVGID_4_" gradientUnits="userSpaceOnUse" x1="1025.9083" y1="549.2667" x2="1026.1936" y2="549.2667">
		<stop  offset="4.888180e-07" style="stop-color:#C31432"/>
		<stop  offset="1" style="stop-color:#240B36"/>
	</linearGradient>
	<path class="st19" d="M1026.19,549.8c-0.09-0.35-0.17-0.71-0.29-1.06"/>
	<linearGradient id="SVGID_5_" gradientUnits="userSpaceOnUse" x1="1103.3293" y1="681.5294" x2="776.1579" y2="354.3578">
		<stop  offset="3.594250e-07" style="stop-color:#C31432"/>
		<stop  offset="1" style="stop-color:#240B36"/>
	</linearGradient>
	<path class="st20" d="M1099.9,608.63c-4.03,42.97-19.07,83.69-43.05,118.13c-12.2,14.66-26.69,27.98-43.08,39.53
		c-9.88,7.19-20.31,13.62-31.17,19.25c-11.27,5.85-22.99,10.85-35.01,14.97c-9.97,3.43-20.11,6.88-30.48,8.97
		c-6.08,1.25-12.28,2.29-18.56,3.14c-11.2,1.51-22.29,2.31-33.24,2.45c-0.58,0.01-1.17,0.02-1.75,0.01h-0.06
		c-0.06,0-0.11-0.01-0.16-0.01c10.85-0.14,21.85-0.94,32.95-2.45c1.24-0.17,2.48-0.34,3.71-0.54c0.71-0.1,1.42-0.2,2.13-0.32
		c0.47-0.07,0.94-0.14,1.42-0.22c1.09-0.17,2.18-0.37,3.27-0.56c2.01-0.34,4.02-0.72,6.02-1.12c0.91-0.18,1.81-0.36,2.71-0.55
		c0.38-0.08,0.75-0.15,1.12-0.23c1.95-0.4,3.92-0.77,5.82-1.33c0.17-0.03,0.33-0.07,0.49-0.11c3.64-1.22,7.23-2.58,10.77-4.08
		c2.35-0.98,4.67-2.02,6.97-3.14c0.59-0.27,1.19-0.56,1.78-0.86c0.16-0.07,0.32-0.15,0.48-0.23c0.16-0.08,0.32-0.16,0.48-0.25
		c0.33-0.16,0.65-0.32,0.97-0.49c0.6-0.3,1.19-0.61,1.78-0.93c0.18-0.09,0.36-0.18,0.54-0.27c0.61-0.34,1.22-0.67,1.83-1.01
		c0.69-0.37,1.38-0.75,2.06-1.15c0.69-0.38,1.37-0.78,2.04-1.18c0.55-0.32,1.09-0.64,1.63-0.98c0.99-0.59,1.97-1.2,2.95-1.82
		c0.47-0.29,0.93-0.59,1.39-0.9c0.46-0.29,0.91-0.59,1.37-0.89c0.22-0.15,0.45-0.3,0.67-0.44c0.64-0.44,1.29-0.89,1.93-1.33
		c1.3-0.9,2.6-1.82,3.88-2.76c47.1-33.01,78.41-91.56,78.41-158.26c0-18.8-2.49-36.94-7.12-54.05c-0.07-0.29-0.15-0.57-0.24-0.87
		c-2.37-8.65-5.29-17.03-8.73-25.1c-0.15-0.58-0.3-1.15-0.48-1.73c-0.06-0.22-0.12-0.45-0.19-0.68c-0.07-0.22-0.14-0.45-0.2-0.68
		c-0.03-0.09-0.05-0.18-0.08-0.27c-0.04-0.11-0.08-0.22-0.11-0.33c-0.02-0.07-0.04-0.13-0.06-0.19c-0.09-0.31-0.19-0.62-0.3-0.95
		c-0.32-0.99-0.66-1.98-1.02-2.98c-0.17-0.47-0.34-0.95-0.52-1.42c-0.2-0.54-0.4-1.07-0.61-1.61c-0.23-0.58-0.46-1.16-0.7-1.75
		c-0.09-0.2-0.17-0.41-0.25-0.62c-0.28-0.66-0.55-1.33-0.85-1.99c-0.02-0.06-0.05-0.12-0.08-0.19c-0.02-0.06-0.05-0.11-0.07-0.17
		c-0.3-0.69-0.6-1.37-0.92-2.07c-0.33-0.76-0.69-1.53-1.06-2.3c-0.19-0.42-0.4-0.84-0.6-1.27c-0.03-0.06-0.06-0.13-0.09-0.19
		c-0.02-0.05-0.04-0.09-0.07-0.14c-0.26-0.55-0.53-1.09-0.81-1.65c-0.41-0.82-0.82-1.65-1.25-2.49c-0.96-1.86-1.95-3.74-2.99-5.62
		c-0.18-0.34-0.36-0.69-0.56-1.02c-0.19-0.33-0.37-0.68-0.57-1.02c-0.38-0.68-0.76-1.36-1.16-2.04c-0.26-0.45-0.52-0.91-0.78-1.36
		c-0.79-1.37-1.59-2.73-2.42-4.08c-0.27-0.46-0.54-0.91-0.83-1.36c-0.54-0.91-1.1-1.81-1.67-2.71c-0.56-0.9-1.12-1.8-1.7-2.7
		c-1.14-1.81-2.3-3.6-3.47-5.37c-0.59-0.88-1.18-1.77-1.78-2.65c-0.58-0.88-1.18-1.76-1.78-2.63c-0.59-0.88-1.19-1.75-1.8-2.61
		c-0.29-0.44-0.6-0.86-0.89-1.3c-0.3-0.43-0.6-0.85-0.91-1.29c-0.59-0.85-1.2-1.7-1.8-2.55c-1.08-1.51-2.17-3.02-3.26-4.51
		c-0.52-0.71-1.03-1.42-1.55-2.12c-2.58-3.5-5.13-6.87-7.6-10.06c-0.5-0.64-0.98-1.26-1.46-1.89c-0.49-0.62-0.97-1.24-1.45-1.85
		c-0.43-0.54-0.86-1.09-1.27-1.61c-0.11-0.14-0.22-0.28-0.32-0.41c-0.02-0.03-0.05-0.06-0.07-0.09c-0.24-0.28-0.46-0.58-0.69-0.86
		c-0.22-0.28-0.44-0.56-0.67-0.84c-0.85-1.07-1.69-2.11-2.49-3.12c-0.44-0.53-0.87-1.07-1.31-1.61c-0.3-0.37-0.6-0.73-0.91-1.1
		c-0.22-0.28-0.45-0.57-0.68-0.84c-0.39-0.48-0.77-0.94-1.14-1.4c-0.32-0.37-0.61-0.74-0.91-1.09c-0.58-0.7-1.15-1.38-1.69-2.03
		c-0.37-0.44-0.72-0.86-1.06-1.27c-0.17-0.2-0.35-0.4-0.51-0.61c-0.34-0.39-0.67-0.79-0.99-1.16c-0.16-0.19-0.31-0.38-0.47-0.56
		c-0.31-0.36-0.61-0.72-0.9-1.06c-0.74-0.85-1.4-1.63-2-2.32c-0.36-0.41-0.69-0.81-1.01-1.16c-0.23-0.27-0.45-0.52-0.64-0.74
		c-0.09-0.11-0.2-0.22-0.29-0.32c-0.53-0.61-0.95-1.09-1.23-1.4c-0.04-0.05-0.08-0.1-0.12-0.14c-0.17-0.19-0.26-0.3-0.3-0.34
		c-7.88-8.83-16.38-16.76-23.51-26.29c-0.44-0.59-0.88-1.18-1.3-1.78c-0.95-1.27-1.87-2.56-2.77-3.85c-0.35-0.51-0.7-1.03-1.05-1.54
		c-0.42-0.62-0.84-1.24-1.25-1.85c-0.4-0.61-0.79-1.21-1.18-1.82l-1.5-2.33c-0.03-0.06-0.07-0.13-0.11-0.19
		c-0.02-0.03-0.04-0.07-0.06-0.1c-0.03-0.05-0.06-0.1-0.1-0.14c-0.53-0.86-1.07-1.73-1.59-2.61c-1.09-1.81-2.14-3.63-3.15-5.47
		c-0.29-0.51-0.58-1.02-0.85-1.54c-0.29-0.51-0.55-1.03-0.83-1.54c-0.55-1.04-1.09-2.08-1.62-3.13c-0.02-0.03-0.04-0.07-0.06-0.11
		c-0.47-0.93-0.93-1.87-1.37-2.81c-0.09-0.15-0.16-0.3-0.23-0.45c-0.46-0.95-0.9-1.91-1.34-2.87c-0.01-0.03-0.03-0.06-0.04-0.1
		c-0.48-1.04-0.95-2.08-1.4-3.15c-0.34-0.76-0.66-1.52-0.98-2.29c-0.19-0.45-0.38-0.9-0.56-1.36c-0.31-0.78-0.63-1.57-0.94-2.36
		c-0.28-0.73-0.57-1.47-0.83-2.21c-0.07-0.16-0.12-0.31-0.19-0.47c-0.23-0.64-0.46-1.28-0.69-1.91c-0.32-0.92-0.64-1.83-0.96-2.75
		c-0.28-0.86-0.57-1.72-0.84-2.59c-0.24-0.73-0.46-1.45-0.68-2.17c-0.22-0.73-0.43-1.45-0.65-2.18c-0.21-0.73-0.42-1.46-0.61-2.19
		c-3.62-13.16-5.57-26.72-5.77-40.56c-0.03-2.06-0.02-4.13,0.03-6.18c0.03-1.32,0.07-2.62,0.14-3.93c0.2-4.64,0.59-9.29,1.16-13.93
		c0.14-1.12,0.29-2.24,0.45-3.37c0.03-0.19,0.06-0.37,0.08-0.55c0.27-1.86,0.58-3.7,0.9-5.54c0.99-5.05,2.21-10.06,3.62-15.01
		c0.02-0.07,0.04-0.13,0.06-0.2c4.32-15.06,10.57-29.57,18.51-43.07c4.45-7.58,9.43-14.84,14.91-21.72c0-0.01,0.01-0.02,0.02-0.03
		c3.89-4.47,7.98-8.68,12.16-12.83c3.63-3.61,7.32-7.17,10.95-10.85c0.55-0.56,1.1-1.12,1.64-1.67c0.01,0,0.01-0.01,0.02-0.01
		c0.01-0.01,0.02-0.02,0.03-0.02c0.04-0.02,0.07-0.02,0.11-0.04c0.02,0,0.05-0.01,0.07-0.02c0.07-0.02,0.13-0.04,0.2-0.08
		c0.01-0.01,0.01-0.02,0.02-0.03c0.29-0.09,0.58-0.21,0.82-0.35c0.01-0.01,0.03-0.02,0.04-0.02c-0.02,0.05-0.03,0.11-0.04,0.16
		c0,0,0-0.01,0.01-0.01c-0.03,0.08-0.05,0.15-0.07,0.23c-0.02,0.05-0.03,0.09-0.04,0.13c-0.02,0.06-0.04,0.13-0.05,0.19
		c-0.01,0.04-0.02,0.09-0.04,0.13c-5.03,17.68-8.9,34.86-8.9,53.46c0,25.22,6.92,49.76,16.86,72.8c2.76,6.38,5.74,12.67,8.85,18.88
		c1.57,3.12,3.26,6.18,4.92,9.24c1.57,2.91,2.87,5.87,4.4,8.78c2.76,4.57,5.02,9.55,7.51,14.29c1.85,3.54,3.85,7.02,5.88,10.48
		c1.98,3.37,4.34,6.46,6.4,9.79c1.25,2.03,2.4,4.14,3.63,6.2c4.74,7.93,9.58,15.78,14.47,23.62c7.58,12.13,15.17,24.27,22.75,36.41
		c7.58,12.13,15.16,24.27,22.76,36.41c6.84,10.95,11.4,23.68,15.42,35.93c0.59,1.78,1.15,3.57,1.7,5.37
		c3.61,11.78,6.32,23.61,8.16,35.41C1101.24,567.04,1101.84,588.09,1099.9,608.63z"/>
	<path class="st6" d="M940.72,800.42c-2.3,1.12-4.62,2.16-6.97,3.14c-3.54,1.5-7.13,2.86-10.77,4.08c-0.16,0.04-0.32,0.08-0.49,0.11
		c0.68-0.19,1.34-0.4,1.99-0.65C929.99,805.04,935.41,802.93,940.72,800.42z"/>
	<path class="st14" d="M1248.51,529.77c0.59-0.66,1.18-1.32,1.78-1.97c-0.5,0.53-0.98,1.06-1.46,1.6
		C1248.72,529.52,1248.62,529.65,1248.51,529.77z"/>
</g>
<g id="bg" class="st0">
	<rect class="st7" width="1920" height="1080"/>
</g>
<g id="merged_copy_2">
	<path class="st21" d="M1079.8,114.86c0,0.05-0.01,0.1-0.02,0.15c-0.01,0-0.01,0.01-0.02,0.01
		C1079.78,114.97,1079.79,114.91,1079.8,114.86z"/>
	<path class="st22" d="M1032.35,898.29c-0.8,0.31-1.61,0.56-2.44,0.8c0.21-0.04,0.41-0.09,0.6-0.14c4.47-1.5,8.87-3.17,13.22-5.01
		c2.88-1.2,5.73-2.48,8.55-3.85C1045.77,893.17,1039.11,895.76,1032.35,898.29z"/>
	
		<radialGradient id="SVGID_6_" cx="894.653" cy="580.5714" r="402.9507" gradientTransform="matrix(1.2273 0 0 1.2272 -164.0112 -201.0668)" gradientUnits="userSpaceOnUse">
		<stop  offset="0" style="stop-color:#C31432"/>
		<stop  offset="0.1308" style="stop-color:#BF1432"/>
		<stop  offset="0.2555" style="stop-color:#B41332"/>
		<stop  offset="0.3776" style="stop-color:#A01233"/>
		<stop  offset="0.4983" style="stop-color:#851134"/>
		<stop  offset="0.6179" style="stop-color:#630F34"/>
		<stop  offset="0.7351" style="stop-color:#390C35"/>
		<stop  offset="0.7858" style="stop-color:#240B36"/>
	</radialGradient>
	<path class="st23" d="M1180.16,676.87c0,81.85-38.43,153.7-96.23,194.21c-1.57,1.15-3.17,2.28-4.76,3.39
		c-0.79,0.54-1.58,1.09-2.37,1.63c-0.27,0.17-0.55,0.36-0.82,0.54c-0.56,0.37-1.12,0.74-1.68,1.09c-0.56,0.38-1.13,0.75-1.71,1.1
		c-1.2,0.76-2.41,1.51-3.62,2.23c-0.66,0.42-1.33,0.81-2,1.2c-0.82,0.49-1.66,0.98-2.5,1.45c-0.83,0.49-1.68,0.96-2.53,1.41
		c-0.75,0.42-1.5,0.82-2.25,1.24c-0.22,0.11-0.44,0.22-0.66,0.33c-0.72,0.39-1.45,0.77-2.18,1.14c-0.39,0.21-0.79,0.41-1.19,0.6
		c-0.39,0.2-0.79,0.39-1.18,0.59c-0.72,0.37-1.46,0.72-2.18,1.06c-6.52,3.08-13.17,5.67-19.93,8.2c-0.8,0.31-1.61,0.56-2.44,0.8
		c-2.36,0.58-4.74,1.1-7.14,1.63c-0.45,0.1-0.91,0.18-1.37,0.28c-1.1,0.23-2.21,0.45-3.33,0.67c-2.45,0.49-4.92,0.96-7.39,1.37
		c-1.34,0.23-2.68,0.48-4.01,0.69c-0.59,0.1-1.17,0.18-1.74,0.27c-0.87,0.13-1.76,0.27-2.61,0.39c-1.51,0.25-3.03,0.45-4.55,0.66
		c-13.62,1.85-27.12,2.83-40.44,3.01c0.06,0,0.12,0.01,0.2,0.01c-12.63,0.1-25.05-0.53-37.24-1.84
		c-51.2-5.51-101.39-23.24-142.77-53.71c-38.49-28.34-68.51-67.69-81.87-113.4c-0.98-3.36-1.87-6.74-2.66-10.12
		c-12.14-51.92-2.14-106.54,25.33-152.49c3.09-5.17,6.38-10.25,9.89-15.23c-1.3,2.39-2.54,4.84-3.72,7.3
		c-6.05,12.58-10.54,25.87-13.4,39.45v0.01c0,0.02-0.01,0.05-0.02,0.07v0.01c-0.85,4.05-1.56,8.11-2.12,12.21
		c-1.28,9.28-1.79,18.67-1.51,28.05c0.36,11.67,1.88,23.32,4.52,34.69c5.47,23.7,15.6,45.8,29.33,65.35
		c19.8,28.13,47.07,50.94,78.88,65.65c52.05,24.05,117.45,31.39,170.28,5.39c24.13-11.88,43.29-29.39,58.53-50.45
		c5.23-7.22,9.99-14.84,14.34-22.8c7-12.85,12.87-26.16,17.21-39.87c5.04-15.99,8.03-32.53,8.39-49.59
		c0.04-1.79,0.05-3.58,0.02-5.35c-0.21-29.6-7.49-59.24-21.61-85.28c-16.25-29.99-42.01-53.93-71.9-70.66
		c-0.16-11.52-0.32-23.05-0.48-34.57c4.01,1.75,7.9,3.77,11.65,6.01c13.41,8.07,24.96,19.16,33.8,32.05
		c5.66,8.25,10.22,17.27,13.46,26.74c0.54,1.58,2.05,5.69,3.45,10.2c1.45,3.85,3.06,8.43,4.16,12.59c2.59-4.26,4.31-9.08,5.34-14.24
		c6.58-33.16-8.82-63.64-28.4-89.35c-26.53-34.84-53.95-67.42-74.3-106.58c-1.46-2.81-2.91-5.62-4.37-8.43
		c0.02,1.73,0.04,3.45,0.06,5.18c0.1,6.53,0.2,13.06,0.2,19.59v124.98c-2.22-0.79-4.46-1.51-6.7-2.21
		c-4.03-1.25-8.09-2.38-12.17-3.37c-14.84-14.73-24.57-35.18-32.66-53.74c-10.96-25.11-16.48-52.72-16.48-80.01
		c0-5.83,0.26-11.62,0.74-17.34c4.16-48.28,26.24-93.38,59.13-129.05c33.8-36.66,77.57-62.99,124.99-78.7
		c0.01-0.01,0.01-0.01,0.02-0.01c0.53-0.18,1.07-0.36,1.6-0.52c-0.66,0.67-1.34,1.36-2.01,2.05c-4.46,4.52-8.98,8.88-13.44,13.31
		c-5.13,5.09-10.15,10.26-14.92,15.74c-0.01,0.01-0.02,0.02-0.02,0.04c-6.73,8.44-12.84,17.35-18.3,26.65
		c-9.74,16.57-17.42,34.37-22.72,52.85c-0.02,0.09-0.05,0.16-0.07,0.25c-1.73,6.07-3.23,12.22-4.44,18.42
		c-0.01,0.01-0.01,0.01-0.01,0.02c-0.39,2.25-0.77,4.5-1.09,6.77c-0.02,0.22-0.06,0.44-0.1,0.67c-0.21,1.39-0.38,2.76-0.55,4.14
		c-0.7,5.69-1.18,11.4-1.42,17.09c-0.09,1.61-0.14,3.2-0.17,4.82c-0.06,2.52-0.07,5.06-0.04,7.58c0.25,16.98,2.64,33.62,7.08,49.77
		c0.23,0.9,0.49,1.79,0.75,2.69c0.27,0.9,0.53,1.78,0.8,2.68c0.27,0.88,0.54,1.77,0.83,2.66c0.33,1.07,0.69,2.12,1.03,3.18
		c0.39,1.13,0.79,2.25,1.18,3.37c0.28,0.77,0.56,1.56,0.85,2.34c0.09,0.2,0.15,0.38,0.23,0.58c0.32,0.91,0.67,1.82,1.02,2.71
		c0.38,0.97,0.77,1.94,1.15,2.9c0.22,0.56,0.45,1.12,0.69,1.67c0.39,0.94,0.79,1.88,1.2,2.81c0.55,1.31,1.13,2.59,1.72,3.87
		c0.01,0.05,0.04,0.09,0.05,0.12c0.54,1.18,1.08,2.36,1.64,3.52c0.09,0.18,0.17,0.37,0.28,0.55c0.54,1.15,1.1,2.31,1.68,3.45
		c0.02,0.05,0.05,0.1,0.07,0.13c0.65,1.29,1.31,2.56,1.99,3.84c0.34,0.63,0.66,1.26,1.02,1.89c0.33,0.64,0.69,1.26,1.04,1.89
		c1.24,2.26,2.53,4.49,3.87,6.71c0.64,1.08,1.3,2.15,1.95,3.2c0.05,0.05,0.09,0.11,0.12,0.17c0.02,0.04,0.05,0.09,0.07,0.12
		c0.05,0.07,0.1,0.16,0.14,0.23l1.84,2.86c0.48,0.75,0.96,1.48,1.45,2.23c0.5,0.75,1.02,1.51,1.53,2.27
		c0.43,0.63,0.86,1.26,1.29,1.89c1.1,1.58,2.23,3.17,3.4,4.72c0.52,0.74,1.06,1.46,1.6,2.18c8.75,11.69,19.18,21.43,28.85,32.26
		c0.05,0.05,0.16,0.18,0.37,0.42c0.05,0.05,0.1,0.11,0.15,0.17c0.34,0.38,0.86,0.97,1.51,1.72c0.11,0.12,0.25,0.26,0.36,0.39
		c0.23,0.27,0.5,0.58,0.79,0.91c0.39,0.43,0.8,0.92,1.24,1.42c0.74,0.85,1.55,1.8,2.45,2.85c0.36,0.42,0.72,0.86,1.1,1.3
		c0.2,0.22,0.38,0.45,0.58,0.69c0.39,0.45,0.8,0.94,1.22,1.42c0.2,0.26,0.42,0.5,0.63,0.75c0.42,0.5,0.85,1.02,1.3,1.56
		c0.66,0.8,1.36,1.63,2.07,2.49c0.37,0.43,0.72,0.88,1.12,1.34c0.45,0.56,0.92,1.13,1.4,1.72c0.28,0.33,0.56,0.69,0.83,1.03
		c0.38,0.45,0.75,0.9,1.12,1.35c0.54,0.66,1.07,1.33,1.61,1.98c0.98,1.24,2.01,2.52,3.06,3.83c0.28,0.34,0.55,0.69,0.82,1.03
		c0.28,0.34,0.55,0.71,0.85,1.06c0.02,0.04,0.06,0.07,0.09,0.11c0.12,0.16,0.26,0.33,0.39,0.5c0.5,0.64,1.03,1.31,1.56,1.98
		c0.59,0.75,1.18,1.51,1.78,2.27c0.59,0.77,1.18,1.53,1.79,2.32c3.03,3.91,6.16,8.05,9.33,12.35c0.64,0.86,1.26,1.73,1.9,2.6
		c1.34,1.83,2.68,3.68,4,5.53c0.74,1.04,1.49,2.09,2.21,3.13c0.38,0.54,0.75,1.06,1.12,1.58c0.36,0.54,0.74,1.06,1.09,1.6
		c0.75,1.06,1.49,2.12,2.21,3.2c0.74,1.07,1.47,2.15,2.18,3.23c0.74,1.08,1.46,2.17,2.18,3.25c1.44,2.17,2.86,4.37,4.26,6.59
		c0.71,1.1,1.4,2.21,2.09,3.31c0.7,1.1,1.39,2.21,2.05,3.33c0.36,0.55,0.69,1.1,1.02,1.67c1.02,1.66,2,3.33,2.97,5.01
		c0.32,0.55,0.64,1.12,0.96,1.67c0.49,0.83,0.96,1.67,1.42,2.5c0.25,0.42,0.47,0.85,0.7,1.25c0.25,0.4,0.47,0.83,0.69,1.25
		c1.28,2.31,2.49,4.61,3.67,6.9c0.53,1.03,1.03,2.05,1.53,3.06c0.34,0.69,0.68,1.35,0.99,2.02c0.04,0.06,0.06,0.11,0.09,0.17
		c0.04,0.07,0.07,0.16,0.11,0.23c0.25,0.53,0.5,1.04,0.74,1.56c0.45,0.94,0.9,1.89,1.3,2.82c0.39,0.86,0.76,1.69,1.13,2.54
		c0.02,0.07,0.06,0.14,0.09,0.21c0.04,0.09,0.07,0.16,0.1,0.23c0.37,0.81,0.7,1.63,1.04,2.44c0.1,0.26,0.2,0.52,0.31,0.76
		c0.29,0.72,0.58,1.44,0.86,2.15c0.26,0.66,0.5,1.31,0.75,1.98c0.22,0.58,0.43,1.17,0.64,1.74c0.44,1.23,0.86,2.44,1.25,3.66
		c0.14,0.4,0.26,0.79,0.37,1.17c0.02,0.07,0.05,0.15,0.07,0.23c0.04,0.14,0.09,0.27,0.14,0.4c0.04,0.11,0.06,0.22,0.1,0.33
		c0.07,0.28,0.16,0.56,0.25,0.83c0.09,0.28,0.16,0.56,0.23,0.83c0.22,0.71,0.4,1.41,0.59,2.12c4.22,9.9,7.81,20.19,10.71,30.8
		c0.11,0.37,0.21,0.71,0.29,1.07C1177.1,631.54,1180.16,653.8,1180.16,676.87z"/>
	<path class="st12" d="M1066.78,534.27c-1.03,5.15-2.75,9.98-5.34,14.24c-1.1-4.16-2.71-8.74-4.16-12.59
		c-1.4-4.5-2.91-8.61-3.45-10.2c-3.24-9.47-7.81-18.49-13.46-26.74c-8.84-12.9-20.39-23.98-33.8-32.05
		c-3.74-2.25-7.63-4.26-11.65-6.01c0.16,11.52,0.32,23.05,0.48,34.57c0.44,32.27,0.88,64.55,1.33,96.82
		c0.49,35.61,4.84,76.92-15.84,108.16c-3.46,5.24-7.57,9.98-12.19,14.2c-12.21,11.18-27.92,18.68-44.27,21.84
		c-16.61,3.22-34.25,2.17-49.82-4.5c-15.55-6.68-28.79-19.23-34.87-35.04c-6.17-16.1-4.55-34.67,2.87-50.24
		c5.69-11.95,14.51-22.16,25.06-30.08c7.49-5.64,15.86-10.11,24.62-13.27c10.65-3.83,21.99-5.78,33.31-5.83h1.17
		c3.12,0.02,27.63,1.78,33.2,5.11V354.67c0-6.53-0.1-13.06-0.2-19.59c-0.02-1.73-0.04-3.45-0.06-5.18c1.46,2.81,2.91,5.62,4.37,8.43
		c20.35,39.16,47.77,71.74,74.3,106.58C1057.95,470.63,1073.36,501.11,1066.78,534.27z"/>
	
		<radialGradient id="SVGID_7_" cx="865.4119" cy="695.0225" r="180.4813" fx="863.1043" fy="820.0756" gradientTransform="matrix(1.2273 0 0 1.2272 -164.0112 -201.0668)" gradientUnits="userSpaceOnUse">
		<stop  offset="0.2991" style="stop-color:#C31432"/>
		<stop  offset="0.484" style="stop-color:#C01432"/>
		<stop  offset="0.5951" style="stop-color:#B81332"/>
		<stop  offset="0.6867" style="stop-color:#AA1333"/>
		<stop  offset="0.7677" style="stop-color:#961133"/>
		<stop  offset="0.8417" style="stop-color:#7B1034"/>
		<stop  offset="0.9106" style="stop-color:#5B0E35"/>
		<stop  offset="0.9743" style="stop-color:#350C36"/>
		<stop  offset="1" style="stop-color:#240B36"/>
	</radialGradient>
	<path class="st24" d="M1088.91,651.42c0.02,1.77,0.01,3.56-0.02,5.35c-0.37,17.06-3.35,33.6-8.39,49.59
		c-4.33,13.71-10.21,27.02-17.21,39.87c-4.34,7.96-9.11,15.59-14.34,22.8c-15.24,21.06-34.4,38.57-58.53,50.45
		c-52.82,26-118.23,18.67-170.28-5.39c-31.81-14.71-59.08-37.53-78.88-65.65c-13.73-19.55-23.86-41.65-29.33-65.35
		c-2.64-11.38-4.16-23.02-4.52-34.69c-0.28-9.39,0.23-18.78,1.51-28.05c0.56-4.1,1.28-8.16,2.12-12.21v-0.01
		c0.01-0.02,0.02-0.05,0.02-0.07v-0.01c2.86-13.58,7.35-26.88,13.4-39.45c1.18-2.47,2.42-4.91,3.72-7.3
		c6.44-11.92,14.3-22.98,23.29-33.04c0-0.01,0.01-0.02,0.02-0.04c27.63-30.88,66.03-52.07,107.55-58.13
		c25.64-3.74,52.05-2.8,77.33,2.87c1.58,0.34,3.14,0.72,4.7,1.12c4.09,0.99,8.15,2.12,12.17,3.37c2.25,0.7,4.48,1.42,6.7,2.21
		v123.01c-5.57-3.33-30.08-5.08-33.2-5.11h-1.17c-11.32,0.05-22.66,2-33.31,5.83c-8.76,3.15-17.13,7.62-24.62,13.27
		c-10.55,7.92-19.37,18.13-25.06,30.08c-7.43,15.57-9.05,34.14-2.87,50.24c6.08,15.81,19.32,28.36,34.87,35.04
		c15.56,6.68,33.21,7.72,49.82,4.5c16.35-3.17,32.06-10.66,44.27-21.84c4.61-4.22,8.73-8.96,12.19-14.2
		c20.68-31.24,16.34-72.55,15.84-108.16c-0.44-32.27-0.88-64.55-1.33-96.82c29.89,16.73,55.65,40.67,71.9,70.66
		C1081.42,592.18,1088.7,621.82,1088.91,651.42z"/>
	<linearGradient id="SVGID_8_" gradientUnits="userSpaceOnUse" x1="1156.8373" y1="581.8796" x2="1157.1875" y2="581.8796">
		<stop  offset="4.888180e-07" style="stop-color:#C31432"/>
		<stop  offset="1" style="stop-color:#240B36"/>
	</linearGradient>
	<path class="st25" d="M1157.19,582.53c-0.11-0.43-0.21-0.87-0.35-1.3"/>
	<linearGradient id="SVGID_9_" gradientUnits="userSpaceOnUse" x1="1251.8392" y1="744.1983" x2="850.3365" y2="342.6956">
		<stop  offset="3.594250e-07" style="stop-color:#C31432"/>
		<stop  offset="1" style="stop-color:#240B36"/>
	</linearGradient>
	<path class="st26" d="M1247.65,654.73c-4.95,52.73-23.4,102.7-52.84,144.97c-14.97,17.99-32.76,34.34-52.87,48.51
		c-12.13,8.82-24.93,16.71-38.26,23.62c-13.83,7.18-28.22,13.31-42.97,18.37c-12.24,4.21-24.68,8.44-37.41,11.01
		c-7.46,1.53-15.07,2.81-22.78,3.85c-13.75,1.85-27.36,2.83-40.8,3.01c-0.71,0.01-1.44,0.02-2.15,0.01h-0.07
		c-0.07,0-0.14-0.01-0.2-0.01c13.32-0.17,26.82-1.15,40.44-3.01c1.52-0.21,3.04-0.42,4.55-0.66c0.87-0.12,1.74-0.25,2.61-0.39
		c0.58-0.09,1.15-0.17,1.74-0.27c1.34-0.21,2.68-0.45,4.01-0.69c2.47-0.42,4.93-0.88,7.39-1.37c1.12-0.22,2.22-0.44,3.33-0.67
		c0.47-0.1,0.92-0.18,1.37-0.28c2.39-0.49,4.81-0.94,7.14-1.63c0.21-0.04,0.41-0.09,0.6-0.14c4.47-1.5,8.87-3.17,13.22-5.01
		c2.88-1.2,5.73-2.48,8.55-3.85c0.72-0.33,1.46-0.69,2.18-1.06c0.2-0.09,0.39-0.18,0.59-0.28s0.39-0.2,0.59-0.31
		c0.41-0.2,0.8-0.39,1.19-0.6c0.74-0.37,1.46-0.75,2.18-1.14c0.22-0.11,0.44-0.22,0.66-0.33c0.75-0.42,1.5-0.82,2.25-1.24
		c0.85-0.45,1.69-0.92,2.53-1.41c0.85-0.47,1.68-0.96,2.5-1.45c0.67-0.39,1.34-0.79,2-1.2c1.22-0.72,2.42-1.47,3.62-2.23
		c0.58-0.36,1.14-0.72,1.71-1.1c0.56-0.36,1.12-0.72,1.68-1.09c0.27-0.18,0.55-0.37,0.82-0.54c0.79-0.54,1.58-1.09,2.37-1.63
		c1.6-1.1,3.19-2.23,4.76-3.39c57.81-40.51,96.23-112.36,96.23-194.21c0-23.07-3.06-45.33-8.74-66.33c-0.09-0.36-0.18-0.7-0.29-1.07
		c-2.91-10.62-6.49-20.9-10.71-30.8c-0.18-0.71-0.37-1.41-0.59-2.12c-0.07-0.27-0.15-0.55-0.23-0.83c-0.09-0.27-0.17-0.55-0.25-0.83
		c-0.04-0.11-0.06-0.22-0.1-0.33c-0.05-0.13-0.1-0.27-0.14-0.4c-0.02-0.09-0.05-0.16-0.07-0.23c-0.11-0.38-0.23-0.76-0.37-1.17
		c-0.39-1.21-0.81-2.43-1.25-3.66c-0.21-0.58-0.42-1.17-0.64-1.74c-0.25-0.66-0.49-1.31-0.75-1.98c-0.28-0.71-0.56-1.42-0.86-2.15
		c-0.11-0.25-0.21-0.5-0.31-0.76c-0.34-0.81-0.68-1.63-1.04-2.44c-0.02-0.07-0.06-0.15-0.1-0.23c-0.02-0.07-0.06-0.14-0.09-0.21
		c-0.37-0.85-0.74-1.68-1.13-2.54c-0.41-0.93-0.85-1.88-1.3-2.82c-0.23-0.52-0.49-1.03-0.74-1.56c-0.04-0.07-0.07-0.16-0.11-0.23
		c-0.02-0.06-0.05-0.11-0.09-0.17c-0.32-0.67-0.65-1.34-0.99-2.02c-0.5-1.01-1.01-2.02-1.53-3.06c-1.18-2.28-2.39-4.59-3.67-6.9
		c-0.22-0.42-0.44-0.85-0.69-1.25c-0.23-0.4-0.45-0.83-0.7-1.25c-0.47-0.83-0.93-1.67-1.42-2.5c-0.32-0.55-0.64-1.12-0.96-1.67
		c-0.97-1.68-1.95-3.35-2.97-5.01c-0.33-0.56-0.66-1.12-1.02-1.67c-0.66-1.12-1.35-2.22-2.05-3.33c-0.69-1.1-1.37-2.21-2.09-3.31
		c-1.4-2.22-2.82-4.42-4.26-6.59c-0.72-1.08-1.45-2.17-2.18-3.25c-0.71-1.08-1.45-2.16-2.18-3.23c-0.72-1.08-1.46-2.15-2.21-3.2
		c-0.36-0.54-0.74-1.06-1.09-1.6c-0.37-0.53-0.74-1.04-1.12-1.58c-0.72-1.04-1.47-2.09-2.21-3.13c-1.33-1.85-2.66-3.71-4-5.53
		c-0.64-0.87-1.26-1.74-1.9-2.6c-3.17-4.3-6.3-8.43-9.33-12.35c-0.61-0.79-1.2-1.55-1.79-2.32c-0.6-0.76-1.19-1.52-1.78-2.27
		c-0.53-0.66-1.06-1.34-1.56-1.98c-0.14-0.17-0.27-0.34-0.39-0.5c-0.02-0.04-0.06-0.07-0.09-0.11c-0.29-0.34-0.56-0.71-0.85-1.06
		c-0.27-0.34-0.54-0.69-0.82-1.03c-1.04-1.31-2.07-2.59-3.06-3.83c-0.54-0.65-1.07-1.31-1.61-1.98c-0.37-0.45-0.74-0.9-1.12-1.35
		c-0.27-0.34-0.55-0.7-0.83-1.03c-0.48-0.59-0.95-1.15-1.4-1.72c-0.39-0.45-0.75-0.91-1.12-1.34c-0.71-0.86-1.41-1.69-2.07-2.49
		c-0.45-0.54-0.88-1.06-1.3-1.56c-0.21-0.25-0.43-0.49-0.63-0.75c-0.42-0.48-0.82-0.97-1.22-1.42c-0.2-0.23-0.38-0.47-0.58-0.69
		c-0.38-0.44-0.75-0.88-1.1-1.3c-0.91-1.04-1.72-2-2.45-2.85c-0.44-0.5-0.85-0.99-1.24-1.42c-0.28-0.33-0.55-0.64-0.79-0.91
		c-0.11-0.13-0.25-0.27-0.36-0.39c-0.65-0.75-1.17-1.34-1.51-1.72c-0.05-0.06-0.1-0.12-0.15-0.17c-0.21-0.23-0.32-0.37-0.37-0.42
		c-9.67-10.84-20.1-20.57-28.85-32.26c-0.54-0.72-1.08-1.45-1.6-2.18c-1.17-1.56-2.3-3.14-3.4-4.72c-0.43-0.63-0.86-1.26-1.29-1.89
		c-0.52-0.76-1.03-1.52-1.53-2.27c-0.49-0.75-0.97-1.48-1.45-2.23l-1.84-2.86c-0.04-0.07-0.09-0.16-0.14-0.23
		c-0.02-0.04-0.05-0.09-0.07-0.12c-0.04-0.06-0.07-0.12-0.12-0.17c-0.65-1.06-1.31-2.12-1.95-3.2c-1.34-2.22-2.63-4.45-3.87-6.71
		c-0.36-0.63-0.71-1.25-1.04-1.89c-0.36-0.63-0.68-1.26-1.02-1.89c-0.68-1.28-1.34-2.55-1.99-3.84c-0.02-0.04-0.05-0.09-0.07-0.13
		c-0.58-1.14-1.14-2.29-1.68-3.45c-0.11-0.18-0.2-0.37-0.28-0.55c-0.56-1.17-1.1-2.34-1.64-3.52c-0.01-0.04-0.04-0.07-0.05-0.12
		c-0.59-1.28-1.17-2.55-1.72-3.87c-0.42-0.93-0.81-1.87-1.2-2.81c-0.23-0.55-0.47-1.1-0.69-1.67c-0.38-0.96-0.77-1.93-1.15-2.9
		c-0.34-0.9-0.7-1.8-1.02-2.71c-0.09-0.2-0.15-0.38-0.23-0.58c-0.28-0.79-0.56-1.57-0.85-2.34c-0.39-1.13-0.79-2.25-1.18-3.37
		c-0.34-1.06-0.7-2.11-1.03-3.18c-0.29-0.9-0.56-1.78-0.83-2.66c-0.27-0.9-0.53-1.78-0.8-2.68c-0.26-0.9-0.52-1.79-0.75-2.69
		c-4.44-16.15-6.84-32.79-7.08-49.77c-0.04-2.53-0.02-5.07,0.04-7.58c0.04-1.62,0.09-3.22,0.17-4.82c0.25-5.69,0.72-11.4,1.42-17.09
		c0.17-1.37,0.36-2.75,0.55-4.14c0.04-0.23,0.07-0.45,0.1-0.67c0.33-2.28,0.71-4.54,1.1-6.8c1.22-6.2,2.71-12.35,4.44-18.42
		c0.02-0.09,0.05-0.16,0.07-0.25c5.3-18.48,12.97-36.29,22.72-52.85c5.46-9.3,11.57-18.21,18.3-26.65c0-0.01,0.01-0.02,0.02-0.04
		c4.77-5.49,9.79-10.65,14.92-15.74c4.46-4.43,8.98-8.8,13.44-13.31c0.68-0.69,1.35-1.37,2.01-2.05c0.01,0,0.01-0.01,0.02-0.01
		c0.01-0.01,0.02-0.02,0.04-0.02c0.05-0.02,0.09-0.02,0.14-0.05c0.02,0,0.06-0.01,0.09-0.02c0.09-0.02,0.16-0.05,0.25-0.1
		c0.01-0.01,0.01-0.02,0.02-0.04c0.36-0.11,0.71-0.26,1.01-0.43c0.01-0.01,0.04-0.02,0.05-0.02c-0.02,0.06-0.04,0.13-0.05,0.2
		c0,0,0-0.01,0.01-0.01c-0.04,0.1-0.06,0.18-0.09,0.28c-0.02,0.06-0.04,0.11-0.05,0.16c-0.02,0.07-0.05,0.16-0.06,0.23
		c-0.01,0.05-0.02,0.11-0.05,0.16c-6.17,21.7-10.92,42.78-10.92,65.6c0,30.95,8.49,61.06,20.69,89.34
		c3.39,7.83,7.04,15.55,10.86,23.17c1.93,3.83,4,7.58,6.04,11.34c1.93,3.57,3.52,7.2,5.4,10.77c3.39,5.61,6.16,11.72,9.22,17.54
		c2.27,4.34,4.73,8.61,7.22,12.86c2.43,4.14,5.33,7.93,7.85,12.01c1.53,2.49,2.95,5.08,4.46,7.61c5.82,9.73,11.76,19.36,17.76,28.99
		c9.3,14.89,18.62,29.78,27.92,44.68c9.3,14.89,18.61,29.78,27.93,44.68c8.39,13.44,13.99,29.06,18.93,44.09
		c0.72,2.18,1.41,4.38,2.09,6.59c4.43,14.46,7.76,28.97,10.01,43.45C1249.29,603.69,1250.03,629.52,1247.65,654.73z"/>
	<path class="st27" d="M1052.28,890.09c-2.82,1.37-5.67,2.65-8.55,3.85c-4.34,1.84-8.75,3.51-13.22,5.01
		c-0.2,0.05-0.39,0.1-0.6,0.14c0.83-0.23,1.64-0.49,2.44-0.8C1039.11,895.76,1045.77,893.17,1052.28,890.09z"/>
	<path class="st28" d="M1248.51,529.77c0.59-0.66,1.18-1.32,1.78-1.97c-0.5,0.53-0.98,1.06-1.46,1.6
		C1248.72,529.52,1248.62,529.65,1248.51,529.77z"/>
</g>
</svg>
