<?xml version="1.0" encoding="utf-8"?>
<!-- Generator: Adobe Illustrator 25.2.0, SVG Export Plug-In . SVG Version: 6.00 Build 0)  -->
<svg version="1.1" xmlns="http://www.w3.org/2000/svg" xmlns:xlink="http://www.w3.org/1999/xlink" x="0px" y="0px"
	 viewBox="0 0 1920 1080" style="enable-background:new 0 0 1920 1080;" xml:space="preserve">
<style type="text/css">
	.st0{fill:url(#SVGID_1_);}
	.st1{fill:url(#SVGID_2_);}
	.st2{fill:url(#SVGID_3_);}
	.st3{font-family:'Poppins-Regular';}
	.st4{font-size:216px;}
</style>
<g id="logo">
	<g>
		
			<radialGradient id="SVGID_1_" cx="367.7632" cy="566.5803" r="258.5181" gradientTransform="matrix(1.2273 0 0 1.2272 -164.0112 -201.0668)" gradientUnits="userSpaceOnUse">
			<stop  offset="0" style="stop-color:#C31432"/>
			<stop  offset="0.1308" style="stop-color:#BF1432"/>
			<stop  offset="0.2555" style="stop-color:#B41332"/>
			<stop  offset="0.3776" style="stop-color:#A01233"/>
			<stop  offset="0.4983" style="stop-color:#851134"/>
			<stop  offset="0.6179" style="stop-color:#630F34"/>
			<stop  offset="0.7351" style="stop-color:#390C35"/>
			<stop  offset="0.7858" style="stop-color:#240B36"/>
		</radialGradient>
		<path class="st0" d="M445.27,600.39c0,52.51-24.65,98.61-61.74,124.6c-1.01,0.74-2.03,1.46-3.06,2.17
			c-0.5,0.35-1.02,0.7-1.52,1.05c-0.17,0.11-0.35,0.23-0.53,0.35c-0.36,0.24-0.72,0.47-1.08,0.7c-0.36,0.24-0.72,0.48-1.09,0.71
			c-0.77,0.49-1.54,0.97-2.32,1.43c-0.43,0.27-0.85,0.52-1.28,0.77c-0.53,0.31-1.06,0.63-1.61,0.93c-0.54,0.31-1.08,0.61-1.62,0.91
			c-0.48,0.27-0.96,0.53-1.44,0.8c-0.14,0.07-0.28,0.14-0.43,0.21c-0.46,0.25-0.93,0.5-1.4,0.73c-0.25,0.13-0.5,0.26-0.76,0.39
			c-0.25,0.13-0.5,0.25-0.76,0.38c-0.46,0.24-0.94,0.46-1.4,0.68c-4.18,1.98-8.45,3.64-12.79,5.26c-0.51,0.2-1.03,0.36-1.57,0.51
			c-1.51,0.37-3.04,0.71-4.58,1.05c-0.29,0.06-0.58,0.12-0.88,0.18c-0.71,0.15-1.42,0.29-2.13,0.43c-1.57,0.31-3.16,0.61-4.74,0.88
			c-0.86,0.15-1.72,0.31-2.57,0.44c-0.38,0.06-0.75,0.12-1.12,0.17c-0.56,0.09-1.13,0.17-1.68,0.25c-0.97,0.16-1.94,0.29-2.92,0.43
			c-8.74,1.19-17.4,1.82-25.94,1.93c0.04,0,0.08,0.01,0.13,0.01c-8.1,0.06-16.07-0.34-23.89-1.18
			c-32.85-3.53-65.05-14.91-91.6-34.46c-24.69-18.18-43.95-43.43-52.53-72.76c-0.63-2.16-1.2-4.32-1.71-6.5
			c-7.79-33.31-1.37-68.35,16.25-97.83c1.98-3.31,4.09-6.57,6.35-9.77c-0.83,1.54-1.63,3.1-2.39,4.68
			c-3.88,8.07-6.76,16.6-8.6,25.31v0.01c0,0.02-0.01,0.03-0.02,0.05v0.01c-0.54,2.6-1,5.2-1.36,7.83c-0.82,5.95-1.15,11.97-0.97,18
			c0.23,7.49,1.2,14.96,2.9,22.26c3.51,15.2,10.01,29.38,18.82,41.92c12.7,18.05,30.2,32.68,50.61,42.12
			c33.39,15.43,75.35,20.14,109.24,3.46c15.48-7.62,27.77-18.86,37.55-32.37c3.35-4.63,6.41-9.52,9.2-14.63
			c4.49-8.24,8.26-16.79,11.04-25.58c3.24-10.26,5.15-20.87,5.39-31.82c0.02-1.15,0.03-2.3,0.02-3.43
			c-0.13-18.99-4.8-38-13.87-54.71c-10.43-19.24-26.95-34.6-46.13-45.33c-0.1-7.39-0.2-14.79-0.31-22.18
			c2.57,1.13,5.07,2.42,7.47,3.86c8.61,5.18,16.02,12.29,21.69,20.56c3.63,5.29,6.56,11.08,8.64,17.16
			c0.35,1.02,1.32,3.65,2.21,6.54c0.93,2.47,1.96,5.41,2.67,8.08c1.66-2.73,2.76-5.83,3.43-9.13c4.22-21.27-5.66-40.83-18.22-57.32
			c-17.02-22.35-34.61-43.25-47.67-68.38c-0.94-1.8-1.87-3.61-2.8-5.41c0.02,1.11,0.02,2.21,0.04,3.32
			c0.06,4.19,0.13,8.38,0.13,12.57v80.18c-1.43-0.5-2.86-0.97-4.3-1.42c-2.58-0.8-5.19-1.53-7.81-2.17
			c-9.52-9.45-15.76-22.57-20.95-34.48c-7.03-16.11-10.57-33.82-10.57-51.33c0-3.74,0.17-7.46,0.47-11.12
			c2.67-30.97,16.83-59.91,37.94-82.79c21.69-23.52,49.76-40.41,80.19-50.49c0.01-0.01,0.01-0.01,0.02-0.01
			c0.34-0.12,0.69-0.23,1.02-0.33c-0.43,0.43-0.86,0.87-1.29,1.31c-2.86,2.9-5.76,5.7-8.62,8.54c-3.29,3.27-6.51,6.58-9.57,10.1
			c-0.01,0.01-0.02,0.02-0.02,0.02c-4.31,5.42-8.24,11.13-11.74,17.1c-6.25,10.63-11.17,22.05-14.57,33.91
			c-0.02,0.06-0.03,0.1-0.05,0.16c-1.11,3.9-2.07,7.84-2.85,11.82c-0.01,0.01-0.01,0.01-0.01,0.02c-0.25,1.44-0.5,2.89-0.7,4.35
			c-0.02,0.14-0.04,0.28-0.06,0.43c-0.13,0.89-0.24,1.77-0.35,2.65c-0.45,3.65-0.76,7.31-0.91,10.97c-0.06,1.03-0.09,2.05-0.11,3.09
			c-0.04,1.61-0.05,3.24-0.02,4.87c0.16,10.9,1.69,21.57,4.54,31.93c0.15,0.57,0.31,1.15,0.48,1.72c0.17,0.57,0.34,1.14,0.51,1.72
			c0.17,0.57,0.35,1.13,0.54,1.71c0.21,0.68,0.44,1.36,0.66,2.04c0.25,0.72,0.5,1.44,0.76,2.17c0.18,0.5,0.36,1,0.54,1.5
			c0.06,0.13,0.09,0.24,0.15,0.37c0.2,0.58,0.43,1.17,0.65,1.74c0.24,0.62,0.5,1.24,0.74,1.86c0.14,0.36,0.29,0.72,0.44,1.07
			c0.25,0.61,0.5,1.2,0.77,1.8c0.35,0.84,0.72,1.66,1.1,2.48c0.01,0.03,0.02,0.06,0.03,0.08c0.35,0.76,0.69,1.51,1.06,2.26
			c0.06,0.12,0.11,0.24,0.18,0.35c0.35,0.74,0.71,1.48,1.08,2.21c0.02,0.03,0.03,0.06,0.05,0.09c0.42,0.83,0.84,1.65,1.28,2.46
			c0.22,0.4,0.43,0.81,0.65,1.21c0.21,0.41,0.44,0.81,0.67,1.21c0.8,1.45,1.62,2.88,2.48,4.31c0.41,0.69,0.83,1.38,1.25,2.05
			c0.03,0.03,0.06,0.07,0.08,0.11c0.02,0.02,0.03,0.06,0.05,0.08c0.03,0.05,0.06,0.1,0.09,0.15l1.18,1.83
			c0.31,0.48,0.61,0.95,0.93,1.43c0.32,0.48,0.65,0.97,0.98,1.46c0.28,0.4,0.55,0.81,0.83,1.21c0.71,1.02,1.43,2.03,2.18,3.03
			c0.33,0.47,0.68,0.94,1.02,1.4c5.61,7.5,12.31,13.75,18.51,20.7c0.03,0.03,0.1,0.12,0.24,0.27c0.03,0.03,0.06,0.07,0.09,0.11
			c0.22,0.24,0.55,0.62,0.97,1.1c0.07,0.08,0.16,0.17,0.23,0.25c0.15,0.17,0.32,0.37,0.5,0.58c0.25,0.28,0.51,0.59,0.8,0.91
			c0.47,0.54,0.99,1.16,1.57,1.83c0.23,0.27,0.46,0.55,0.71,0.83c0.13,0.14,0.24,0.29,0.37,0.44c0.25,0.29,0.51,0.61,0.78,0.91
			c0.13,0.17,0.27,0.32,0.4,0.48c0.27,0.32,0.54,0.65,0.83,1c0.43,0.51,0.87,1.05,1.33,1.6c0.24,0.28,0.46,0.57,0.72,0.86
			c0.29,0.36,0.59,0.72,0.9,1.1c0.18,0.21,0.36,0.44,0.54,0.66c0.24,0.29,0.48,0.57,0.72,0.87c0.35,0.43,0.69,0.85,1.03,1.27
			c0.63,0.8,1.29,1.61,1.96,2.46c0.18,0.22,0.35,0.44,0.53,0.66c0.18,0.22,0.35,0.46,0.54,0.68c0.02,0.02,0.04,0.05,0.06,0.07
			c0.08,0.1,0.17,0.21,0.25,0.32c0.32,0.41,0.66,0.84,1,1.27c0.38,0.48,0.76,0.97,1.14,1.46c0.38,0.5,0.76,0.98,1.15,1.49
			c1.94,2.51,3.95,5.16,5.98,7.92c0.41,0.55,0.81,1.11,1.22,1.67c0.86,1.17,1.72,2.36,2.57,3.55c0.47,0.67,0.95,1.34,1.42,2.01
			c0.24,0.35,0.48,0.68,0.72,1.02c0.23,0.35,0.47,0.68,0.7,1.02c0.48,0.68,0.95,1.36,1.42,2.05c0.47,0.68,0.94,1.38,1.4,2.07
			c0.47,0.69,0.94,1.39,1.4,2.09c0.92,1.39,1.83,2.8,2.73,4.23c0.46,0.71,0.9,1.42,1.34,2.13c0.45,0.71,0.89,1.42,1.31,2.13
			c0.23,0.35,0.44,0.71,0.65,1.07c0.65,1.06,1.28,2.13,1.91,3.21c0.2,0.35,0.41,0.72,0.61,1.07c0.31,0.54,0.61,1.07,0.91,1.61
			c0.16,0.27,0.3,0.54,0.45,0.8c0.16,0.26,0.3,0.54,0.44,0.8c0.82,1.48,1.6,2.96,2.35,4.42c0.34,0.66,0.66,1.31,0.98,1.96
			c0.22,0.44,0.43,0.87,0.64,1.3c0.02,0.04,0.04,0.07,0.06,0.11c0.02,0.05,0.05,0.1,0.07,0.15c0.16,0.34,0.32,0.67,0.47,1
			c0.29,0.61,0.57,1.21,0.83,1.81c0.25,0.55,0.49,1.09,0.72,1.63c0.02,0.05,0.04,0.09,0.06,0.13c0.02,0.06,0.05,0.1,0.06,0.15
			c0.24,0.52,0.45,1.05,0.67,1.57c0.06,0.17,0.13,0.33,0.2,0.49c0.19,0.46,0.37,0.92,0.55,1.38c0.17,0.43,0.32,0.84,0.48,1.27
			c0.14,0.37,0.28,0.75,0.41,1.12c0.28,0.79,0.55,1.57,0.8,2.35c0.09,0.26,0.17,0.5,0.24,0.75c0.02,0.05,0.03,0.09,0.05,0.15
			c0.02,0.09,0.06,0.17,0.09,0.26c0.02,0.07,0.04,0.14,0.06,0.21c0.05,0.18,0.1,0.36,0.16,0.54c0.06,0.18,0.1,0.36,0.15,0.54
			c0.14,0.46,0.26,0.91,0.38,1.36c2.71,6.35,5.01,12.95,6.87,19.76c0.07,0.24,0.13,0.46,0.19,0.68
			C443.31,571.3,445.27,585.58,445.27,600.39z"/>
		
			<radialGradient id="SVGID_2_" cx="349.0032" cy="640.0079" r="115.7901" fx="347.5227" fy="720.2372" gradientTransform="matrix(1.2273 0 0 1.2272 -164.0112 -201.0668)" gradientUnits="userSpaceOnUse">
			<stop  offset="0.2991" style="stop-color:#C31432"/>
			<stop  offset="0.484" style="stop-color:#C01432"/>
			<stop  offset="0.5951" style="stop-color:#B81332"/>
			<stop  offset="0.6867" style="stop-color:#AA1333"/>
			<stop  offset="0.7677" style="stop-color:#961133"/>
			<stop  offset="0.8417" style="stop-color:#7B1034"/>
			<stop  offset="0.9106" style="stop-color:#5B0E35"/>
			<stop  offset="0.9743" style="stop-color:#350C36"/>
			<stop  offset="1" style="stop-color:#240B36"/>
		</radialGradient>
		<path class="st1" d="M386.73,584.06c0.02,1.13,0.01,2.28-0.02,3.43c-0.24,10.94-2.15,21.56-5.39,31.82
			c-2.78,8.79-6.55,17.34-11.04,25.58c-2.79,5.11-5.84,10-9.2,14.63c-9.78,13.51-22.07,24.75-37.55,32.37
			c-33.89,16.68-75.85,11.97-109.24-3.46c-20.41-9.44-37.91-24.08-50.61-42.12c-8.81-12.54-15.31-26.72-18.82-41.92
			c-1.69-7.3-2.67-14.77-2.9-22.26c-0.18-6.02,0.15-12.05,0.97-18c0.36-2.63,0.82-5.24,1.36-7.83v-0.01
			c0.01-0.02,0.02-0.03,0.02-0.05v-0.01c1.83-8.72,4.72-17.24,8.6-25.31c0.76-1.58,1.55-3.15,2.39-4.68
			c4.13-7.64,9.17-14.75,14.94-21.19c0-0.01,0.01-0.02,0.02-0.02c17.72-19.81,42.36-33.41,69-37.29c16.45-2.4,33.39-1.8,49.61,1.84
			c1.02,0.22,2.02,0.46,3.02,0.72c2.62,0.64,5.23,1.36,7.81,2.17c1.44,0.45,2.87,0.91,4.3,1.42v78.92
			c-3.57-2.13-19.3-3.26-21.3-3.28h-0.75c-7.26,0.03-14.54,1.28-21.37,3.74c-5.62,2.02-10.99,4.89-15.8,8.51
			c-6.77,5.08-12.43,11.63-16.08,19.3c-4.76,9.99-5.8,21.9-1.84,32.23c3.9,10.14,12.39,18.19,22.37,22.48
			c9.98,4.28,21.31,4.95,31.96,2.89c10.49-2.03,20.57-6.84,28.4-14.01c2.96-2.71,5.6-5.75,7.82-9.11
			c13.27-20.04,10.48-46.55,10.17-69.39c-0.28-20.71-0.57-41.41-0.85-62.12c19.17,10.73,35.7,26.09,46.13,45.33
			C381.92,546.05,386.59,565.07,386.73,584.06z"/>
		<linearGradient id="SVGID_3_" gradientUnits="userSpaceOnUse" x1="491.2565" y1="643.583" x2="233.6675" y2="385.994">
			<stop  offset="3.594250e-07" style="stop-color:#C31432"/>
			<stop  offset="1" style="stop-color:#240B36"/>
		</linearGradient>
		<path class="st2" d="M488.57,586.18c-3.17,33.83-15.02,65.89-33.9,93c-9.61,11.54-21.02,22.03-33.92,31.12
			c-7.78,5.66-15.99,10.72-24.54,15.16c-8.87,4.61-18.1,8.54-27.57,11.79c-7.85,2.7-15.83,5.42-24,7.06
			c-4.79,0.98-9.67,1.8-14.61,2.47c-8.82,1.19-17.55,1.82-26.17,1.93c-0.46,0.01-0.92,0.02-1.38,0.01h-0.05
			c-0.05,0-0.09-0.01-0.13-0.01c8.54-0.11,17.2-0.74,25.94-1.93c0.98-0.13,1.95-0.27,2.92-0.43c0.56-0.08,1.12-0.16,1.68-0.25
			c0.37-0.06,0.74-0.11,1.12-0.17c0.86-0.13,1.72-0.29,2.57-0.44c1.58-0.27,3.17-0.57,4.74-0.88c0.72-0.14,1.43-0.28,2.13-0.43
			c0.3-0.06,0.59-0.12,0.88-0.18c1.54-0.31,3.09-0.61,4.58-1.05c0.13-0.02,0.26-0.06,0.39-0.09c2.87-0.96,5.69-2.03,8.48-3.21
			c1.85-0.77,3.68-1.59,5.49-2.47c0.46-0.21,0.94-0.44,1.4-0.68c0.13-0.06,0.25-0.12,0.38-0.18c0.13-0.06,0.25-0.13,0.38-0.2
			c0.26-0.13,0.51-0.25,0.76-0.39c0.47-0.24,0.94-0.48,1.4-0.73c0.14-0.07,0.28-0.14,0.43-0.21c0.48-0.27,0.96-0.53,1.44-0.8
			c0.54-0.29,1.09-0.59,1.62-0.91c0.54-0.3,1.08-0.61,1.61-0.93c0.43-0.25,0.86-0.5,1.28-0.77c0.78-0.46,1.55-0.94,2.32-1.43
			c0.37-0.23,0.73-0.46,1.09-0.71c0.36-0.23,0.72-0.46,1.08-0.7c0.17-0.12,0.35-0.24,0.53-0.35c0.5-0.35,1.02-0.7,1.52-1.05
			c1.02-0.71,2.05-1.43,3.06-2.17c37.09-25.99,61.74-72.09,61.74-124.6c0-14.8-1.96-29.08-5.61-42.55
			c-0.06-0.23-0.12-0.45-0.19-0.68c-1.87-6.81-4.17-13.41-6.87-19.76c-0.12-0.46-0.24-0.91-0.38-1.36
			c-0.05-0.17-0.09-0.35-0.15-0.54c-0.06-0.17-0.11-0.35-0.16-0.54c-0.02-0.07-0.04-0.14-0.06-0.21c-0.03-0.09-0.06-0.17-0.09-0.26
			c-0.02-0.06-0.03-0.1-0.05-0.15c-0.07-0.24-0.15-0.49-0.24-0.75c-0.25-0.78-0.52-1.56-0.8-2.35c-0.13-0.37-0.27-0.75-0.41-1.12
			c-0.16-0.43-0.31-0.84-0.48-1.27c-0.18-0.46-0.36-0.91-0.55-1.38c-0.07-0.16-0.13-0.32-0.2-0.49c-0.22-0.52-0.43-1.05-0.67-1.57
			c-0.02-0.05-0.04-0.09-0.06-0.15c-0.02-0.05-0.04-0.09-0.06-0.13c-0.24-0.54-0.47-1.08-0.72-1.63c-0.26-0.6-0.54-1.2-0.83-1.81
			c-0.15-0.33-0.31-0.66-0.47-1c-0.02-0.05-0.05-0.1-0.07-0.15c-0.02-0.04-0.03-0.07-0.06-0.11c-0.2-0.43-0.42-0.86-0.64-1.3
			c-0.32-0.65-0.65-1.3-0.98-1.96c-0.76-1.46-1.54-2.94-2.35-4.42c-0.14-0.27-0.28-0.54-0.44-0.8c-0.15-0.26-0.29-0.54-0.45-0.8
			c-0.3-0.54-0.6-1.07-0.91-1.61c-0.2-0.35-0.41-0.72-0.61-1.07c-0.62-1.08-1.25-2.15-1.91-3.21c-0.21-0.36-0.43-0.72-0.65-1.07
			c-0.43-0.72-0.87-1.43-1.31-2.13c-0.44-0.71-0.88-1.42-1.34-2.13c-0.9-1.43-1.81-2.83-2.73-4.23c-0.46-0.69-0.93-1.39-1.4-2.09
			c-0.46-0.69-0.93-1.39-1.4-2.07c-0.46-0.69-0.94-1.38-1.42-2.05c-0.23-0.35-0.47-0.68-0.7-1.02c-0.24-0.34-0.47-0.67-0.72-1.02
			c-0.46-0.67-0.94-1.34-1.42-2.01c-0.85-1.19-1.71-2.38-2.57-3.55c-0.41-0.56-0.81-1.12-1.22-1.67c-2.03-2.76-4.04-5.41-5.98-7.92
			c-0.39-0.5-0.77-0.99-1.15-1.49c-0.39-0.49-0.76-0.98-1.14-1.46c-0.34-0.43-0.68-0.86-1-1.27c-0.09-0.11-0.17-0.22-0.25-0.32
			c-0.02-0.02-0.04-0.05-0.06-0.07c-0.19-0.22-0.36-0.46-0.54-0.68c-0.17-0.22-0.35-0.44-0.53-0.66c-0.67-0.84-1.33-1.66-1.96-2.46
			c-0.35-0.42-0.69-0.84-1.03-1.27c-0.24-0.29-0.47-0.57-0.72-0.87c-0.17-0.22-0.35-0.45-0.54-0.66c-0.31-0.38-0.61-0.74-0.9-1.1
			c-0.25-0.29-0.48-0.58-0.72-0.86c-0.46-0.55-0.91-1.09-1.33-1.6c-0.29-0.35-0.57-0.68-0.83-1c-0.13-0.16-0.28-0.31-0.4-0.48
			c-0.27-0.31-0.53-0.62-0.78-0.91c-0.13-0.15-0.24-0.3-0.37-0.44c-0.24-0.28-0.48-0.57-0.71-0.83c-0.58-0.67-1.1-1.28-1.57-1.83
			c-0.28-0.32-0.54-0.64-0.8-0.91c-0.18-0.21-0.35-0.41-0.5-0.58c-0.07-0.09-0.16-0.17-0.23-0.25c-0.42-0.48-0.75-0.86-0.97-1.1
			c-0.03-0.04-0.06-0.08-0.09-0.11c-0.13-0.15-0.2-0.24-0.24-0.27c-6.2-6.95-12.9-13.2-18.51-20.7c-0.35-0.46-0.69-0.93-1.02-1.4
			c-0.75-1-1.47-2.02-2.18-3.03c-0.28-0.4-0.55-0.81-0.83-1.21c-0.33-0.49-0.66-0.98-0.98-1.46c-0.32-0.48-0.62-0.95-0.93-1.43
			l-1.18-1.83c-0.02-0.05-0.06-0.1-0.09-0.15c-0.02-0.02-0.03-0.06-0.05-0.08c-0.02-0.04-0.05-0.08-0.08-0.11
			c-0.42-0.68-0.84-1.36-1.25-2.05c-0.86-1.43-1.68-2.86-2.48-4.31c-0.23-0.4-0.46-0.8-0.67-1.21c-0.23-0.4-0.43-0.81-0.65-1.21
			c-0.43-0.82-0.86-1.64-1.28-2.46c-0.02-0.02-0.03-0.06-0.05-0.09c-0.37-0.73-0.73-1.47-1.08-2.21c-0.07-0.12-0.13-0.24-0.18-0.35
			c-0.36-0.75-0.71-1.5-1.06-2.26c-0.01-0.02-0.02-0.05-0.03-0.08c-0.38-0.82-0.75-1.64-1.1-2.48c-0.27-0.6-0.52-1.2-0.77-1.8
			c-0.15-0.35-0.3-0.71-0.44-1.07c-0.24-0.61-0.5-1.24-0.74-1.86c-0.22-0.57-0.45-1.16-0.65-1.74c-0.06-0.13-0.09-0.24-0.15-0.37
			c-0.18-0.5-0.36-1.01-0.54-1.5c-0.25-0.72-0.5-1.44-0.76-2.17c-0.22-0.68-0.45-1.35-0.66-2.04c-0.19-0.57-0.36-1.14-0.54-1.71
			c-0.17-0.57-0.34-1.14-0.51-1.72c-0.17-0.57-0.33-1.15-0.48-1.72c-2.85-10.36-4.39-21.04-4.54-31.93
			c-0.02-1.62-0.02-3.25,0.02-4.87c0.02-1.04,0.06-2.06,0.11-3.09c0.16-3.65,0.46-7.31,0.91-10.97c0.11-0.88,0.23-1.76,0.35-2.65
			c0.02-0.15,0.05-0.29,0.06-0.43c0.21-1.46,0.46-2.91,0.71-4.36c0.78-3.98,1.74-7.92,2.85-11.82c0.02-0.06,0.03-0.1,0.05-0.16
			c3.4-11.86,8.32-23.28,14.57-33.91c3.5-5.97,7.43-11.68,11.74-17.1c0-0.01,0.01-0.02,0.02-0.02c3.06-3.52,6.28-6.83,9.57-10.1
			c2.86-2.84,5.76-5.64,8.62-8.54c0.43-0.44,0.87-0.88,1.29-1.31c0.01,0,0.01-0.01,0.02-0.01c0.01-0.01,0.02-0.02,0.02-0.02
			c0.03-0.02,0.06-0.02,0.09-0.03c0.02,0,0.04-0.01,0.06-0.02c0.06-0.02,0.1-0.03,0.16-0.06c0.01-0.01,0.01-0.02,0.02-0.02
			c0.23-0.07,0.46-0.17,0.65-0.28c0.01-0.01,0.02-0.02,0.03-0.02c-0.02,0.04-0.02,0.09-0.03,0.13c0,0,0-0.01,0.01-0.01
			c-0.02,0.06-0.04,0.12-0.06,0.18c-0.02,0.04-0.02,0.07-0.03,0.1c-0.02,0.05-0.03,0.1-0.04,0.15c-0.01,0.03-0.02,0.07-0.03,0.1
			c-3.96,13.92-7.01,27.45-7.01,42.09c0,19.86,5.45,39.18,13.28,57.32c2.17,5.02,4.52,9.98,6.97,14.86
			c1.24,2.46,2.57,4.87,3.87,7.27c1.24,2.29,2.26,4.62,3.46,6.91c2.17,3.6,3.95,7.52,5.91,11.25c1.46,2.79,3.03,5.53,4.63,8.25
			c1.56,2.65,3.42,5.09,5.04,7.71c0.98,1.6,1.89,3.26,2.86,4.88c3.73,6.24,7.54,12.42,11.39,18.6c5.97,9.55,11.94,19.11,17.91,28.67
			c5.97,9.55,11.94,19.11,17.92,28.67c5.39,8.62,8.98,18.64,12.14,28.29c0.46,1.4,0.91,2.81,1.34,4.23
			c2.84,9.27,4.98,18.59,6.43,27.88C489.62,553.44,490.1,570.01,488.57,586.18z"/>
	</g>
</g>
<g id="text">
	<text transform="matrix(1 0 0 1 642.765 581.6385)" class="st3 st4">rezonance</text>
</g>
</svg>
